<svg width="181" height="43" viewBox="0 0 181 43" fill="none" xmlns="http://www.w3.org/2000/svg">
<path d="M27.4231 22.181C30.0428 13.8871 27.0894 5.55991 20.8266 3.58176C14.5637 1.60361 7.36303 6.72354 4.74335 15.0175C2.12367 23.3114 5.07703 31.6385 11.3399 33.6167C17.6027 35.5948 24.8034 30.4749 27.4231 22.181Z" fill="#A56021"/>
<path d="M9.1407 16.4075C11.4457 9.11047 17.2969 4.27147 22.9352 4.56122C22.2823 4.15133 21.5782 3.82111 20.8258 3.58348C14.5632 1.60529 7.36267 6.72481 4.74295 15.0184C2.12323 23.312 5.07628 31.6388 11.3388 33.617C12.0912 33.8546 12.8571 33.9889 13.6271 34.0284C8.84542 31.0267 6.83575 23.7046 9.1407 16.4075Z" fill="#8C4C17"/>
<path d="M11.7188 33.5703C11.2942 33.5703 10.886 33.335 10.6848 32.929C8.37024 28.2585 9.35225 24.6477 10.5839 22.4411C11.9071 20.0705 13.7844 18.8091 13.8636 18.7565C13.8675 18.7539 13.8715 18.7512 13.8756 18.7487C17.6672 16.3032 19.8495 13.6376 20.3616 10.826C20.8931 7.90858 19.4149 5.87078 19.3998 5.85048C19.0208 5.33879 19.1284 4.61678 19.6401 4.23768C20.1517 3.85869 20.8738 3.96615 21.2529 4.47785C21.3383 4.59326 23.3389 7.34972 22.6301 11.2392C21.9996 14.7008 19.4774 17.8774 15.1339 20.6809C14.8496 20.8735 9.23245 24.8057 12.7507 31.905C13.0334 32.4757 12.8002 33.1673 12.2295 33.4501C12.0654 33.5317 11.8908 33.5703 11.7188 33.5703Z" fill="#8C4C17"/>
<path d="M16.0317 31.0236C16.9869 31.0236 17.7612 30.2493 17.7612 29.2941C17.7612 28.3389 16.9869 27.5646 16.0317 27.5646C15.0766 27.5646 14.3022 28.3389 14.3022 29.2941C14.3022 30.2493 15.0766 31.0236 16.0317 31.0236Z" fill="#8C4C17"/>
<path d="M48.5389 32.1982C51.891 26.5508 48.5455 18.3739 41.0666 13.9347C33.5876 9.49555 24.8073 10.475 21.4552 16.1225C18.1031 21.7699 21.4486 29.9468 28.9276 34.386C36.4066 38.8252 45.1868 37.8457 48.5389 32.1982Z" fill="#E58D23"/>
<path d="M31.2819 30.4185C24.7012 26.5127 21.3214 19.7136 22.8872 14.2892C22.3394 14.8317 21.8576 15.4421 21.4548 16.1207C18.1029 21.7684 21.4487 29.9454 28.928 34.3846C36.4072 38.8237 45.1878 37.8439 48.5398 32.1962C48.9426 31.5176 49.2475 30.8023 49.4614 30.0616C45.4499 34.0343 37.8626 34.3242 31.2819 30.4185Z" fill="#BF6C0D"/>
<path d="M44.5383 33.0638C41.2258 33.0639 38.9307 31.7025 37.4863 30.387C35.4792 28.5589 34.6783 26.4437 34.6451 26.3545C34.6434 26.35 34.6418 26.3455 34.6401 26.341C33.1301 22.1147 31.0448 19.389 28.4423 18.2392C25.7442 17.0473 23.4292 17.9875 23.3319 18.028C22.7476 18.2805 22.0719 18.0101 21.8194 17.4255C21.5669 16.841 21.8391 16.161 22.4236 15.9084C22.5557 15.8514 25.695 14.5309 29.321 16.1066C32.548 17.5088 35.0671 20.6878 36.8082 25.5554C36.9311 25.8762 39.4817 32.2409 47.195 30.4314C47.8156 30.2859 48.4355 30.6707 48.5809 31.2906C48.7264 31.9105 48.3418 32.531 47.7218 32.6765C46.5704 32.9464 45.5102 33.0638 44.5383 33.0638Z" fill="#A56021"/>
<path d="M42.6738 22.5087C43.629 22.5087 44.4033 21.7344 44.4033 20.7792C44.4033 19.824 43.629 19.0497 42.6738 19.0497C41.7187 19.0497 40.9443 19.824 40.9443 20.7792C40.9443 21.7344 41.7187 22.5087 42.6738 22.5087Z" fill="#BF6C0D"/>
<path d="M45.729 27.6526C46.6842 27.6526 47.4585 26.8783 47.4585 25.9231C47.4585 24.9679 46.6842 24.1936 45.729 24.1936C44.7738 24.1936 43.9995 24.9679 43.9995 25.9231C43.9995 26.8783 44.7738 27.6526 45.729 27.6526Z" fill="#BF6C0D"/>
<path d="M79.336 13.68L74.344 23.472V30H72.256V23.472L67.24 13.68H69.496L73.408 21.408L77.176 13.68H79.336ZM89.9106 23.328V24.768C89.9106 26.464 89.4706 27.8 88.5906 28.776C87.7266 29.752 86.4866 30.24 84.8706 30.24C83.2706 30.24 82.0306 29.752 81.1506 28.776C80.2706 27.8 79.8306 26.464 79.8306 24.768V23.328C79.8306 21.664 80.2626 20.344 81.1266 19.368C82.0066 18.376 83.2546 17.88 84.8706 17.88C86.4866 17.88 87.7266 18.376 88.5906 19.368C89.4706 20.344 89.9106 21.664 89.9106 23.328ZM87.8706 23.328C87.8706 22.192 87.6146 21.304 87.1026 20.664C86.5906 20.008 85.8466 19.68 84.8706 19.68C83.9106 19.68 83.1666 20.008 82.6386 20.664C82.1266 21.304 81.8706 22.192 81.8706 23.328V24.768C81.8706 25.952 82.1266 26.864 82.6386 27.504C83.1666 28.144 83.9106 28.464 84.8706 28.464C85.8466 28.464 86.5906 28.144 87.1026 27.504C87.6146 26.864 87.8706 25.952 87.8706 24.768V23.328ZM100.807 30V28.32C99.975 29.04 99.231 29.544 98.575 29.832C97.919 30.104 97.263 30.24 96.607 30.24C95.551 30.24 94.743 29.896 94.183 29.208C93.623 28.504 93.343 27.52 93.343 26.256V18.12H95.311V25.968C95.311 26.8 95.455 27.416 95.743 27.816C96.047 28.2 96.495 28.392 97.087 28.392C97.535 28.392 98.039 28.28 98.599 28.056C99.159 27.832 99.855 27.384 100.687 26.712V18.12H102.655V30H100.807ZM113.133 19.848C112.413 19.848 111.709 19.976 111.021 20.232C110.349 20.488 109.629 20.976 108.861 21.696V30H106.893V18.12H108.765V20.04C109.581 19.24 110.325 18.68 110.997 18.36C111.685 18.04 112.397 17.88 113.133 17.88V19.848ZM121.364 30V13.68H126.164C127.732 13.68 128.884 14.064 129.62 14.832C130.372 15.584 130.748 16.6 130.748 17.88V18.408C130.748 19.112 130.588 19.736 130.268 20.28C129.948 20.824 129.484 21.256 128.876 21.576C129.724 21.848 130.364 22.296 130.796 22.92C131.244 23.528 131.468 24.264 131.468 25.128V25.656C131.468 26.968 131.084 28.024 130.316 28.824C129.564 29.608 128.38 30 126.764 30H121.364ZM126.164 15.6H123.452V20.76H126.164C126.964 20.76 127.564 20.56 127.964 20.16C128.38 19.744 128.588 19.176 128.588 18.456V17.88C128.588 17.176 128.38 16.624 127.964 16.224C127.564 15.808 126.964 15.6 126.164 15.6ZM126.764 22.68H123.452V28.104H126.764C127.612 28.104 128.244 27.888 128.66 27.456C129.092 27.024 129.308 26.424 129.308 25.656V25.08C129.308 24.344 129.092 23.76 128.66 23.328C128.244 22.896 127.612 22.68 126.764 22.68ZM143.587 29.304C142.867 29.656 142.147 29.896 141.427 30.024C140.707 30.168 140.043 30.24 139.435 30.24C137.723 30.24 136.443 29.752 135.595 28.776C134.763 27.8 134.347 26.464 134.347 24.768V23.328C134.347 21.68 134.763 20.36 135.595 19.368C136.443 18.376 137.635 17.88 139.171 17.88C139.987 17.88 140.731 18.048 141.403 18.384C142.091 18.704 142.635 19.2 143.035 19.872C143.451 20.528 143.659 21.376 143.659 22.416C143.659 23.088 143.563 23.856 143.371 24.72H136.291V24.768C136.291 25.984 136.539 26.904 137.035 27.528C137.547 28.152 138.363 28.464 139.483 28.464C139.995 28.464 140.555 28.4 141.163 28.272C141.787 28.144 142.395 27.944 142.987 27.672L143.587 29.304ZM139.171 19.608C138.243 19.608 137.539 19.912 137.059 20.52C136.595 21.112 136.339 21.952 136.291 23.04H141.667C141.715 22.752 141.739 22.48 141.739 22.224C141.739 21.328 141.483 20.672 140.971 20.256C140.475 19.824 139.875 19.608 139.171 19.608ZM155.753 30.12C155.017 30.12 154.425 29.952 153.977 29.616C153.545 29.28 153.241 28.864 153.065 28.368C152.281 29.056 151.569 29.544 150.929 29.832C150.289 30.104 149.649 30.24 149.009 30.24C147.969 30.24 147.201 29.904 146.705 29.232C146.209 28.56 145.961 27.736 145.961 26.76C145.961 26.104 146.081 25.52 146.321 25.008C146.561 24.496 146.969 24.096 147.545 23.808C148.121 23.504 148.897 23.352 149.873 23.352C150.305 23.352 150.777 23.384 151.289 23.448C151.801 23.496 152.321 23.56 152.849 23.64V22.032C152.849 21.136 152.649 20.528 152.249 20.208C151.865 19.872 151.297 19.704 150.545 19.704C149.521 19.704 148.377 19.984 147.113 20.544L146.489 18.912C147.225 18.576 147.929 18.32 148.601 18.144C149.273 17.968 149.953 17.88 150.641 17.88C151.761 17.88 152.617 18.064 153.209 18.432C153.801 18.8 154.209 19.288 154.433 19.896C154.657 20.504 154.769 21.168 154.769 21.888V27.024C154.769 27.392 154.841 27.704 154.985 27.96C155.129 28.2 155.417 28.32 155.849 28.32H156.113V30.12H155.753ZM147.905 26.736C147.905 27.28 148.033 27.72 148.289 28.056C148.545 28.392 148.913 28.56 149.393 28.56C149.809 28.56 150.289 28.44 150.833 28.2C151.377 27.944 152.049 27.44 152.849 26.688V25.176C151.761 25 150.801 24.912 149.969 24.912C149.233 24.912 148.705 25.064 148.385 25.368C148.065 25.672 147.905 26.128 147.905 26.736ZM164.613 19.728C164.165 19.728 163.637 19.84 163.029 20.064C162.437 20.288 161.717 20.744 160.869 21.432V30H158.901V18.12H160.773V19.776C161.621 19.056 162.389 18.56 163.077 18.288C163.781 18.016 164.453 17.88 165.093 17.88C166.197 17.88 167.037 18.232 167.613 18.936C168.205 19.624 168.501 20.608 168.501 21.888V30H166.533V22.176C166.533 20.544 165.893 19.728 164.613 19.728ZM175.516 28.488C177.116 28.488 177.916 27.944 177.916 26.856C177.916 26.392 177.772 26.024 177.484 25.752C177.196 25.48 176.668 25.248 175.9 25.056L174.58 24.72C173.604 24.48 172.876 24.064 172.396 23.472C171.916 22.864 171.676 22.144 171.676 21.312C171.676 20.704 171.812 20.144 172.084 19.632C172.356 19.104 172.788 18.68 173.38 18.36C173.972 18.04 174.74 17.88 175.684 17.88C176.292 17.88 176.908 17.952 177.532 18.096C178.172 18.224 178.82 18.448 179.476 18.768L178.852 20.424C177.684 19.896 176.628 19.632 175.684 19.632C174.292 19.632 173.596 20.152 173.596 21.192C173.596 21.592 173.724 21.936 173.98 22.224C174.236 22.512 174.716 22.744 175.42 22.92L176.74 23.256C177.796 23.512 178.572 23.928 179.068 24.504C179.564 25.08 179.812 25.824 179.812 26.736C179.812 27.392 179.668 27.992 179.38 28.536C179.108 29.064 178.66 29.48 178.036 29.784C177.428 30.088 176.604 30.24 175.564 30.24C174.876 30.24 174.188 30.168 173.5 30.024C172.828 29.88 172.132 29.648 171.412 29.328L171.94 27.696C172.628 27.968 173.252 28.168 173.812 28.296C174.372 28.424 174.94 28.488 175.516 28.488Z" fill="black"/>
</svg>
