<svg width="162" height="63" viewBox="0 0 162 63" fill="none" xmlns="http://www.w3.org/2000/svg">
<path d="M34.9431 8.29904H0V53.9234H34.9431V8.29904Z" fill="#FFEACF"/>
<path d="M34.9771 14.974L44.1345 29.1639C45.5268 31.3212 46.142 33.8888 45.8788 36.4429L44.4627 50.1814C44.2532 52.2131 42.5416 53.7574 40.4992 53.7574H34.9771V14.974Z" fill="#FFD59A"/>
<path d="M34.9431 8.29904H0V5.31266C0 2.37861 2.37861 0 5.31266 0H29.6304C32.5645 0 34.9431 2.37861 34.9431 5.31266V8.29904Z" fill="#A56021"/>
<path d="M29.6304 62.2224H5.31266C2.37861 62.2224 0 59.8438 0 56.9098V52.5943H34.9431V56.9099C34.9431 59.844 32.5645 62.2224 29.6304 62.2224Z" fill="#A56021"/>
<path d="M17.4714 60.7079C19.2937 60.7079 20.771 59.2306 20.771 57.4083C20.771 55.586 19.2937 54.1088 17.4714 54.1088C15.6491 54.1088 14.1719 55.586 14.1719 57.4083C14.1719 59.2306 15.6491 60.7079 17.4714 60.7079Z" fill="#DB9C2E"/>
<path d="M5.31266 8.29904H0V52.5941H5.31266V8.29904Z" fill="#FFD59A"/>
<path d="M5.37044 56.9097V52.5941H0V56.9097C0 59.8438 2.40438 62.2224 5.37044 62.2224H10.7409C7.77481 62.2224 5.37044 59.8439 5.37044 56.9097Z" fill="#8C4C17"/>
<path d="M10.6253 0H5.31266C2.37848 0 0 2.37861 0 5.31266V8.29904H5.31266V5.31266C5.31266 2.37848 7.69114 0 10.6253 0Z" fill="#8C4C17"/>
<path d="M32.8662 13.5462C32.4262 13.5462 32.0693 13.1895 32.0693 12.7493V10.8899C32.0693 10.4497 32.4262 10.093 32.8662 10.093C33.3063 10.093 33.6631 10.4497 33.6631 10.8899V12.7493C33.6631 13.1893 33.3063 13.5462 32.8662 13.5462Z" fill="#FCF9DE"/>
<path d="M32.8662 29.3748C32.4262 29.3748 32.0693 29.018 32.0693 28.5779V15.403C32.0693 14.9629 32.4262 14.6061 32.8662 14.6061C33.3063 14.6061 33.6631 14.9629 33.6631 15.403V28.5779C33.6631 29.018 33.3063 29.3748 32.8662 29.3748Z" fill="#FCF9DE"/>
<path d="M32.8669 7.43665C32.8438 7.43665 32.8206 7.43572 32.7974 7.4336C32.3588 7.39574 32.0342 7.00951 32.0721 6.57109C32.162 5.531 31.933 4.69333 31.3915 4.08118C30.3855 2.9436 28.577 2.84718 28.559 2.84651C28.1191 2.83058 27.7756 2.46108 27.7915 2.02119C27.8074 1.58144 28.1711 1.23771 28.6169 1.25365C28.7182 1.25736 31.1153 1.36269 32.5856 3.02515C33.4275 3.97705 33.789 5.21623 33.66 6.70829C33.6242 7.12347 33.2759 7.43665 32.8669 7.43665Z" fill="#BF6C0D"/>
<path d="M29.5192 60.8764C29.3961 60.8764 29.2703 60.8711 29.1406 60.8602C28.702 60.8232 28.3765 60.4376 28.4135 59.9991C28.4504 59.5605 28.8347 59.2352 29.2746 59.272C31.7366 59.4805 32.0595 56.2012 32.0721 56.0616C32.1119 55.6233 32.5002 55.3001 32.9378 55.34C33.3762 55.3798 33.6992 55.7674 33.6595 56.2057C33.509 57.8646 32.4466 60.8764 29.5192 60.8764Z" fill="#BF6C0D"/>
<path d="M16.0105 60.7079C17.8328 60.7079 19.3101 59.2306 19.3101 57.4083C19.3101 55.586 17.8328 54.1088 16.0105 54.1088C14.1882 54.1088 12.7109 55.586 12.7109 57.4083C12.7109 59.2306 14.1882 60.7079 16.0105 60.7079Z" fill="#8C4C17"/>
<path d="M17.4714 60.7079C19.2937 60.7079 20.771 59.2306 20.771 57.4083C20.771 55.586 19.2937 54.1088 17.4714 54.1088C15.6491 54.1088 14.1719 55.586 14.1719 57.4083C14.1719 59.2306 15.6491 60.7079 17.4714 60.7079Z" fill="#F9BB32"/>
<path d="M26.5494 30.8328C25.5496 29.6651 23.4804 29.7963 21.9276 31.1257C20.3748 32.4552 19.9266 34.4794 20.9263 35.6472C21.926 36.8149 23.9953 36.6837 25.548 35.3543C27.1008 34.0249 27.5491 32.0004 26.5494 30.8328ZM24.9344 34.6375C24.2414 35.2309 23.3871 35.551 22.6492 35.4939C22.3502 35.4708 21.9329 35.3721 21.643 35.0335C21.2571 34.5829 21.3194 33.9739 21.3909 33.6511C21.5339 33.005 21.9532 32.3457 22.5412 31.8424C23.2343 31.2489 24.0885 30.9288 24.8265 30.986C25.1254 31.0091 25.5427 31.1078 25.8327 31.4463C26.4813 32.204 26.0699 33.6653 24.9344 34.6375Z" fill="#FCDA4F"/>
<path d="M23.5476 35.3944C23.2413 35.4805 22.9361 35.5162 22.6487 35.4939C22.3497 35.4708 21.9324 35.3721 21.6425 35.0335C21.2567 34.5829 21.3189 33.9739 21.3904 33.6511C21.5334 33.005 21.9527 32.3457 22.5407 31.8424C23.2338 31.2489 24.088 30.9289 24.826 30.986C25.0156 31.0007 25.2528 31.046 25.4749 31.1634C25.5047 30.8925 25.5205 30.6174 25.5205 30.3385V30.1648C24.4554 29.8271 23.0551 30.1598 21.9271 31.1257C20.3744 32.4552 19.9261 34.4794 20.9258 35.6472C21.2956 36.0791 21.8118 36.3328 22.394 36.4143C22.813 36.1145 23.1995 35.7724 23.5476 35.3944Z" fill="#EACF32"/>
<path d="M16.7325 37.8042C12.6092 37.8042 9.2666 34.4616 9.2666 30.3383V29.9269C9.2666 29.6834 9.46397 29.4859 9.70755 29.4859H23.7575C24.001 29.4859 24.1985 29.6833 24.1985 29.9269V30.3383C24.1984 34.4616 20.8558 37.8042 16.7325 37.8042Z" fill="#FCDA4F"/>
<path d="M18.9367 37.3634H18.9365C14.8133 37.3634 11.4707 34.0208 11.4707 29.8977V29.4861H9.70706C9.46361 29.4861 9.26611 29.6834 9.26611 29.927V30.3386C9.26611 34.4618 12.6086 37.8044 16.7319 37.8044H16.7321C17.6302 37.8044 18.4913 37.6456 19.2888 37.3549C19.1722 37.3602 19.0548 37.3634 18.9367 37.3634Z" fill="#EACF32"/>
<path d="M19.8623 35.8006C19.6605 35.8006 19.4675 35.685 19.3784 35.4894C19.2569 35.2224 19.3748 34.9074 19.6417 34.7857C21.5635 33.9105 21.9205 31.1338 21.924 31.1059C21.9592 30.8149 22.224 30.6071 22.5144 30.6417C22.8052 30.6764 23.0133 30.9398 22.9791 31.2309C22.9629 31.369 22.5526 34.6274 20.0821 35.7526C20.0109 35.7852 19.936 35.8006 19.8623 35.8006Z" fill="#FFF4C1"/>
<path d="M22.0304 40.0748H11.3256C10.449 40.0748 9.73828 39.3643 9.73828 38.4875H23.6176C23.6177 39.3643 22.907 40.0748 22.0304 40.0748Z" fill="#EACF32"/>
<path d="M12.3946 39.4174H23.3149C23.5044 39.1559 23.6176 38.8354 23.6176 38.4877H9.73828C9.73828 39.3643 10.4489 40.075 11.3256 40.075H12.5386C12.4471 39.8743 12.3946 39.6522 12.3946 39.4174Z" fill="#CCC033"/>
<path d="M24.0983 39.0608H9.08059C8.82186 39.0608 8.57947 38.9348 8.43098 38.7231L7.89361 37.957C7.81166 37.8401 7.8952 37.6794 8.03798 37.6794H25.2719C25.423 37.6794 25.5041 37.8571 25.4051 37.9712L24.6981 38.7869C24.5472 38.9609 24.3285 39.0608 24.0983 39.0608Z" fill="#EACF32"/>
<path d="M16.6782 27.89C18.7598 27.89 20.4473 26.6158 20.4473 25.044C20.4473 23.4722 18.7598 22.198 16.6782 22.198C14.5966 22.198 12.9092 23.4722 12.9092 25.044C12.9092 26.6158 14.5966 27.89 16.6782 27.89Z" fill="#BF6C0D"/>
<path d="M14.5958 25.044C14.5958 23.6949 15.82 22.5656 17.4625 22.2727C17.1914 22.2243 16.9095 22.1979 16.6193 22.1979C14.5703 22.1979 12.9092 23.4721 12.9092 25.0439C12.9092 26.6156 14.5702 27.8899 16.6193 27.8899C16.9095 27.8899 17.1916 27.8634 17.4625 27.8151C15.8201 27.5224 14.5958 26.3932 14.5958 25.044Z" fill="#A56021"/>
<path d="M18.5318 26.0743C17.395 26.0743 16.4939 25.2808 16.4549 25.2462C15.0132 23.8795 13.5204 25.1892 13.4575 25.2456C13.328 25.3619 13.1228 25.3576 12.999 25.2357C12.8753 25.1139 12.8799 24.921 13.0095 24.8047C13.7011 24.1838 15.4063 23.3859 16.9085 24.8105C16.909 24.8108 17.7025 25.5012 18.6066 25.4629C19.0723 25.4427 19.5007 25.2276 19.8797 24.8235C19.9983 24.6972 20.2033 24.6853 20.3374 24.7966C20.4718 24.908 20.4846 25.1006 20.3662 25.2269C19.865 25.761 19.2814 26.0455 18.6314 26.0723C18.5982 26.0736 18.5649 26.0743 18.5318 26.0743Z" fill="#8C4C17"/>
<path d="M41.5429 39.8358L35.8689 47.257L27.7741 41.0681C25.7247 39.5012 25.3336 36.5697 26.9006 34.5203C28.4674 32.471 31.3989 32.0798 33.4483 33.6467L41.5429 39.8358Z" fill="#FFB74B"/>
<path d="M36.5371 17.3913L34.9771 14.974V53.7574H36.5371V17.3913Z" fill="#FFB74B"/>
<path d="M42.8175 39.4869L37.1434 46.9081L27.0285 39.1745C24.9792 37.6077 24.588 34.6761 26.1549 32.6268C27.7217 30.5774 30.6532 30.1863 32.7026 31.7531L42.8175 39.4869Z" fill="#FFD59A"/>
<path d="M9.19733 6.21487C10.2976 6.21487 11.1896 5.32291 11.1896 4.22262C11.1896 3.12234 10.2976 2.23038 9.19733 2.23038C8.09704 2.23038 7.20508 3.12234 7.20508 4.22262C7.20508 5.32291 8.09704 6.21487 9.19733 6.21487Z" fill="#8C4C17"/>
<path d="M28.588 50.474C29.6882 50.474 30.5802 49.582 30.5802 48.4817C30.5802 47.3815 29.6882 46.4895 28.588 46.4895C27.4877 46.4895 26.5957 47.3815 26.5957 48.4817C26.5957 49.582 27.4877 50.474 28.588 50.474Z" fill="#FFD59A"/>
<path d="M57.96 30.64C57.96 32.144 58.256 33.304 58.848 34.12C59.456 34.92 60.384 35.32 61.632 35.32C62.176 35.32 62.712 35.256 63.24 35.128C63.768 35 64.4 34.776 65.136 34.456L65.832 36.232C65.048 36.584 64.304 36.84 63.6 37C62.896 37.16 62.216 37.24 61.56 37.24C59.672 37.24 58.24 36.648 57.264 35.464C56.288 34.28 55.8 32.672 55.8 30.64V27.04C55.8 25.008 56.288 23.4 57.264 22.216C58.24 21.032 59.672 20.44 61.56 20.44C62.216 20.44 62.896 20.52 63.6 20.68C64.32 20.84 65.048 21.096 65.784 21.448L65.112 23.248C63.816 22.672 62.656 22.384 61.632 22.384C60.384 22.384 59.456 22.784 58.848 23.584C58.256 24.384 57.96 25.536 57.96 27.04V30.64ZM77.6606 30.328V31.768C77.6606 33.464 77.2206 34.8 76.3406 35.776C75.4766 36.752 74.2366 37.24 72.6206 37.24C71.0206 37.24 69.7806 36.752 68.9006 35.776C68.0206 34.8 67.5806 33.464 67.5806 31.768V30.328C67.5806 28.664 68.0126 27.344 68.8766 26.368C69.7566 25.376 71.0046 24.88 72.6206 24.88C74.2366 24.88 75.4766 25.376 76.3406 26.368C77.2206 27.344 77.6606 28.664 77.6606 30.328ZM75.6206 30.328C75.6206 29.192 75.3646 28.304 74.8526 27.664C74.3406 27.008 73.5966 26.68 72.6206 26.68C71.6606 26.68 70.9166 27.008 70.3886 27.664C69.8766 28.304 69.6206 29.192 69.6206 30.328V31.768C69.6206 32.952 69.8766 33.864 70.3886 34.504C70.9166 35.144 71.6606 35.464 72.6206 35.464C73.5966 35.464 74.3406 35.144 74.8526 34.504C75.3646 33.864 75.6206 32.952 75.6206 31.768V30.328ZM88.989 37V26.848H83.589V37H81.621V26.848H79.557V25.12H81.621V23.32C81.621 22.6 81.741 21.928 81.981 21.304C82.221 20.68 82.621 20.184 83.181 19.816C83.741 19.432 84.485 19.24 85.413 19.24C86.277 19.24 87.149 19.416 88.029 19.768L87.453 21.448C86.733 21.176 86.093 21.04 85.533 21.04C84.925 21.04 84.445 21.224 84.093 21.592C83.757 21.944 83.589 22.52 83.589 23.32V25.12H88.989V23.152C88.989 22.416 89.109 21.736 89.349 21.112C89.605 20.472 90.013 19.96 90.573 19.576C91.133 19.192 91.877 19 92.805 19C93.797 19 94.773 19.208 95.733 19.624L95.181 21.28C94.365 20.96 93.653 20.8 93.045 20.8C92.373 20.8 91.853 20.984 91.485 21.352C91.133 21.72 90.957 22.312 90.957 23.128V25.12H94.845V26.848H90.957V37H88.989ZM105.626 36.304C104.906 36.656 104.186 36.896 103.466 37.024C102.746 37.168 102.082 37.24 101.474 37.24C99.7624 37.24 98.4824 36.752 97.6344 35.776C96.8024 34.8 96.3864 33.464 96.3864 31.768V30.328C96.3864 28.68 96.8024 27.36 97.6344 26.368C98.4824 25.376 99.6744 24.88 101.21 24.88C102.026 24.88 102.77 25.048 103.442 25.384C104.13 25.704 104.674 26.2 105.074 26.872C105.49 27.528 105.698 28.376 105.698 29.416C105.698 30.088 105.602 30.856 105.41 31.72H98.3304V31.768C98.3304 32.984 98.5784 33.904 99.0744 34.528C99.5864 35.152 100.402 35.464 101.522 35.464C102.034 35.464 102.594 35.4 103.202 35.272C103.826 35.144 104.434 34.944 105.026 34.672L105.626 36.304ZM101.21 26.608C100.282 26.608 99.5784 26.912 99.0984 27.52C98.6344 28.112 98.3784 28.952 98.3304 30.04H103.706C103.754 29.752 103.778 29.48 103.778 29.224C103.778 28.328 103.522 27.672 103.01 27.256C102.514 26.824 101.914 26.608 101.21 26.608ZM117.72 36.304C117 36.656 116.28 36.896 115.56 37.024C114.84 37.168 114.176 37.24 113.568 37.24C111.856 37.24 110.576 36.752 109.728 35.776C108.896 34.8 108.48 33.464 108.48 31.768V30.328C108.48 28.68 108.896 27.36 109.728 26.368C110.576 25.376 111.768 24.88 113.304 24.88C114.12 24.88 114.864 25.048 115.536 25.384C116.224 25.704 116.768 26.2 117.168 26.872C117.584 27.528 117.792 28.376 117.792 29.416C117.792 30.088 117.696 30.856 117.504 31.72H110.424V31.768C110.424 32.984 110.672 33.904 111.168 34.528C111.68 35.152 112.496 35.464 113.616 35.464C114.128 35.464 114.688 35.4 115.296 35.272C115.92 35.144 116.528 34.944 117.12 34.672L117.72 36.304ZM113.304 26.608C112.376 26.608 111.672 26.912 111.192 27.52C110.728 28.112 110.472 28.952 110.424 30.04H115.8C115.848 29.752 115.872 29.48 115.872 29.224C115.872 28.328 115.616 27.672 115.104 27.256C114.608 26.824 114.008 26.608 113.304 26.608ZM135.785 35.056V37H126.857V20.68H128.945V35.056H135.785ZM147.739 30.328V31.768C147.739 33.464 147.299 34.8 146.419 35.776C145.555 36.752 144.315 37.24 142.699 37.24C141.099 37.24 139.859 36.752 138.979 35.776C138.099 34.8 137.659 33.464 137.659 31.768V30.328C137.659 28.664 138.091 27.344 138.955 26.368C139.835 25.376 141.083 24.88 142.699 24.88C144.315 24.88 145.555 25.376 146.419 26.368C147.299 27.344 147.739 28.664 147.739 30.328ZM145.699 30.328C145.699 29.192 145.443 28.304 144.931 27.664C144.419 27.008 143.675 26.68 142.699 26.68C141.739 26.68 140.995 27.008 140.467 27.664C139.955 28.304 139.699 29.192 139.699 30.328V31.768C139.699 32.952 139.955 33.864 140.467 34.504C140.995 35.144 141.739 35.464 142.699 35.464C143.675 35.464 144.419 35.144 144.931 34.504C145.443 33.864 145.699 32.952 145.699 31.768V30.328ZM160.819 38.488C160.819 39.656 160.339 40.592 159.379 41.296C158.435 42 157.131 42.352 155.467 42.352C154.635 42.352 153.763 42.24 152.851 42.016C151.955 41.792 151.107 41.432 150.307 40.936L150.979 39.4C151.779 39.848 152.547 40.16 153.283 40.336C154.035 40.528 154.763 40.624 155.467 40.624C156.555 40.624 157.395 40.448 157.987 40.096C158.579 39.744 158.875 39.272 158.875 38.68C158.875 38.248 158.731 37.912 158.443 37.672C158.155 37.448 157.691 37.336 157.051 37.336H154.291C153.251 37.336 152.499 37.088 152.035 36.592C151.571 36.096 151.339 35.552 151.339 34.96C151.339 34.544 151.435 34.136 151.627 33.736C151.819 33.32 152.091 32.912 152.443 32.512C151.883 32.176 151.435 31.72 151.099 31.144C150.763 30.552 150.595 29.84 150.595 29.008C150.595 28.096 150.787 27.336 151.171 26.728C151.571 26.12 152.099 25.664 152.755 25.36C153.411 25.04 154.147 24.88 154.963 24.88H155.371C155.931 24.88 156.443 24.96 156.907 25.12H161.179V26.872L158.587 26.512C158.923 26.8 159.195 27.16 159.403 27.592C159.611 28.008 159.715 28.52 159.715 29.128C159.715 29.992 159.515 30.72 159.115 31.312C158.731 31.904 158.211 32.36 157.555 32.68C156.899 32.984 156.171 33.136 155.371 33.136H154.963C154.755 33.136 154.555 33.128 154.363 33.112C154.171 33.08 153.979 33.048 153.787 33.016C153.323 33.528 153.091 34.032 153.091 34.528C153.091 35.168 153.539 35.488 154.435 35.488H157.123C158.275 35.488 159.179 35.744 159.835 36.256C160.491 36.768 160.819 37.512 160.819 38.488ZM155.371 31.432C155.995 31.432 156.547 31.232 157.027 30.832C157.507 30.432 157.747 29.824 157.747 29.008C157.747 28.208 157.507 27.608 157.027 27.208C156.547 26.792 155.995 26.584 155.371 26.584H154.963C154.323 26.584 153.763 26.792 153.283 27.208C152.803 27.608 152.563 28.208 152.563 29.008C152.563 29.824 152.803 30.432 153.283 30.832C153.763 31.232 154.323 31.432 154.963 31.432H155.371Z" fill="black"/>
</svg>
