<svg width="832" height="96" viewBox="0 0 832 96" fill="none" xmlns="http://www.w3.org/2000/svg">
<path d="M4.24 39V11.8H12.24C14.8533 11.8 16.7733 12.44 18 13.72C19.2533 14.9733 19.88 16.6667 19.88 18.8V19.68C19.88 20.8533 19.6133 21.8933 19.08 22.8C18.5467 23.7067 17.7733 24.4267 16.76 24.96C18.1733 25.4133 19.24 26.16 19.96 27.2C20.7067 28.2133 21.08 29.44 21.08 30.88V31.76C21.08 33.9467 20.44 35.7067 19.16 37.04C17.9067 38.3467 15.9333 39 13.24 39H4.24ZM12.24 15H7.72V23.6H12.24C13.5733 23.6 14.5733 23.2667 15.24 22.6C15.9333 21.9067 16.28 20.96 16.28 19.76V18.8C16.28 17.6267 15.9333 16.7067 15.24 16.04C14.5733 15.3467 13.5733 15 12.24 15ZM13.24 26.8H7.72V35.84H13.24C14.6533 35.84 15.7067 35.48 16.4 34.76C17.12 34.04 17.48 33.04 17.48 31.76V30.8C17.48 29.5733 17.12 28.6 16.4 27.88C15.7067 27.16 14.6533 26.8 13.24 26.8ZM41.2784 37.84C40.0784 38.4267 38.8784 38.8267 37.6784 39.04C36.4784 39.28 35.3718 39.4 34.3584 39.4C31.5051 39.4 29.3718 38.5867 27.9584 36.96C26.5718 35.3333 25.8784 33.1067 25.8784 30.28V27.88C25.8784 25.1333 26.5718 22.9333 27.9584 21.28C29.3718 19.6267 31.3584 18.8 33.9184 18.8C35.2784 18.8 36.5184 19.08 37.6384 19.64C38.7851 20.1733 39.6918 21 40.3584 22.12C41.0518 23.2133 41.3984 24.6267 41.3984 26.36C41.3984 27.48 41.2384 28.76 40.9184 30.2H29.1184V30.28C29.1184 32.3067 29.5318 33.84 30.3584 34.88C31.2118 35.92 32.5718 36.44 34.4384 36.44C35.2918 36.44 36.2251 36.3333 37.2384 36.12C38.2784 35.9067 39.2918 35.5733 40.2784 35.12L41.2784 37.84ZM33.9184 21.68C32.3718 21.68 31.1984 22.1867 30.3984 23.2C29.6251 24.1867 29.1984 25.5867 29.1184 27.4H38.0784C38.1584 26.92 38.1984 26.4667 38.1984 26.04C38.1984 24.5467 37.7718 23.4533 36.9184 22.76C36.0918 22.04 35.0918 21.68 33.9184 21.68ZM57.4747 22.08H50.9947V39H47.7147V22.08H44.2747V19.2H47.7147V15.92C47.7147 14.6933 47.9147 13.56 48.3147 12.52C48.7414 11.4533 49.4214 10.6 50.3547 9.96C51.288 9.32 52.528 9 54.0747 9C54.848 9 55.6614 9.09333 56.5147 9.28C57.3947 9.44 58.208 9.69333 58.9547 10.04L58.0347 12.8C56.6747 12.2667 55.488 12 54.4747 12C53.3547 12 52.488 12.3067 51.8747 12.92C51.288 13.5333 50.9947 14.52 50.9947 15.88V19.2H57.4747V22.08ZM76.7391 27.88V30.28C76.7391 33.1067 76.0057 35.3333 74.5391 36.96C73.0991 38.5867 71.0324 39.4 68.3391 39.4C65.6724 39.4 63.6057 38.5867 62.1391 36.96C60.6724 35.3333 59.9391 33.1067 59.9391 30.28V27.88C59.9391 25.1067 60.6591 22.9067 62.0991 21.28C63.5657 19.6267 65.6457 18.8 68.3391 18.8C71.0324 18.8 73.0991 19.6267 74.5391 21.28C76.0057 22.9067 76.7391 25.1067 76.7391 27.88ZM73.3391 27.88C73.3391 25.9867 72.9124 24.5067 72.0591 23.44C71.2057 22.3467 69.9657 21.8 68.3391 21.8C66.7391 21.8 65.4991 22.3467 64.6191 23.44C63.7657 24.5067 63.3391 25.9867 63.3391 27.88V30.28C63.3391 32.2533 63.7657 33.7733 64.6191 34.84C65.4991 35.9067 66.7391 36.44 68.3391 36.44C69.9657 36.44 71.2057 35.9067 72.0591 34.84C72.9124 33.7733 73.3391 32.2533 73.3391 30.28V27.88ZM93.0997 22.08C91.8997 22.08 90.7264 22.2933 89.5797 22.72C88.4597 23.1467 87.2597 23.96 85.9797 25.16V39H82.6997V19.2H85.8197V22.4C87.1797 21.0667 88.4197 20.1333 89.5397 19.6C90.6864 19.0667 91.873 18.8 93.0997 18.8V22.08ZM111.747 37.84C110.547 38.4267 109.347 38.8267 108.147 39.04C106.947 39.28 105.841 39.4 104.827 39.4C101.974 39.4 99.8405 38.5867 98.4272 36.96C97.0405 35.3333 96.3472 33.1067 96.3472 30.28V27.88C96.3472 25.1333 97.0405 22.9333 98.4272 21.28C99.8405 19.6267 101.827 18.8 104.387 18.8C105.747 18.8 106.987 19.08 108.107 19.64C109.254 20.1733 110.161 21 110.827 22.12C111.521 23.2133 111.867 24.6267 111.867 26.36C111.867 27.48 111.707 28.76 111.387 30.2H99.5872V30.28C99.5872 32.3067 100.001 33.84 100.827 34.88C101.681 35.92 103.041 36.44 104.907 36.44C105.761 36.44 106.694 36.3333 107.707 36.12C108.747 35.9067 109.761 35.5733 110.747 35.12L111.747 37.84ZM104.387 21.68C102.841 21.68 101.667 22.1867 100.867 23.2C100.094 24.1867 99.6672 25.5867 99.5872 27.4H108.547C108.627 26.92 108.667 26.4667 108.667 26.04C108.667 24.5467 108.241 23.4533 107.387 22.76C106.561 22.04 105.561 21.68 104.387 21.68ZM133.014 41C132.161 43.4 131.108 45.1467 129.854 46.24C128.628 47.36 126.908 47.92 124.694 47.92V44.68C125.601 44.6533 126.374 44.5333 127.014 44.32C127.681 44.1067 128.268 43.6667 128.774 43C129.308 42.36 129.814 41.4 130.294 40.12L130.694 39.12L123.574 19.2H126.934L130.254 28.84L132.294 35L134.254 28.84L137.494 19.2H140.734L133.014 41ZM160.411 27.88V30.28C160.411 33.1067 159.678 35.3333 158.211 36.96C156.771 38.5867 154.704 39.4 152.011 39.4C149.344 39.4 147.278 38.5867 145.811 36.96C144.344 35.3333 143.611 33.1067 143.611 30.28V27.88C143.611 25.1067 144.331 22.9067 145.771 21.28C147.238 19.6267 149.318 18.8 152.011 18.8C154.704 18.8 156.771 19.6267 158.211 21.28C159.678 22.9067 160.411 25.1067 160.411 27.88ZM157.011 27.88C157.011 25.9867 156.584 24.5067 155.731 23.44C154.878 22.3467 153.638 21.8 152.011 21.8C150.411 21.8 149.171 22.3467 148.291 23.44C147.438 24.5067 147.011 25.9867 147.011 27.88V30.28C147.011 32.2533 147.438 33.7733 148.291 34.84C149.171 35.9067 150.411 36.44 152.011 36.44C153.638 36.44 154.878 35.9067 155.731 34.84C156.584 33.7733 157.011 32.2533 157.011 30.28V27.88ZM178.572 39V36.2C177.185 37.4 175.945 38.24 174.852 38.72C173.758 39.1733 172.665 39.4 171.572 39.4C169.812 39.4 168.465 38.8267 167.532 37.68C166.598 36.5067 166.132 34.8667 166.132 32.76V19.2H169.412V32.28C169.412 33.6667 169.652 34.6933 170.132 35.36C170.638 36 171.385 36.32 172.372 36.32C173.118 36.32 173.958 36.1333 174.892 35.76C175.825 35.3867 176.985 34.64 178.372 33.52V19.2H181.652V39H178.572ZM213.426 30.28C213.426 33.0533 212.733 35.2667 211.346 36.92C209.96 38.5733 207.92 39.4 205.226 39.4C202.56 39.4 199.92 38.6933 197.306 37.28V9.4H200.586V21.88C201.786 20.76 202.88 19.9733 203.866 19.52C204.88 19.04 205.906 18.8 206.946 18.8C209.026 18.8 210.626 19.6 211.746 21.2C212.866 22.8 213.426 25.0533 213.426 27.96V30.28ZM206.146 21.88C205.4 21.88 204.6 22.08 203.746 22.48C202.92 22.88 201.866 23.7067 200.586 24.96V35.44C202.16 36.1067 203.64 36.44 205.026 36.44C206.813 36.44 208.093 35.8933 208.866 34.8C209.64 33.68 210.026 32.1733 210.026 30.28V27.96C210.026 25.88 209.706 24.3467 209.066 23.36C208.426 22.3733 207.453 21.88 206.146 21.88ZM233.857 37.84C232.657 38.4267 231.457 38.8267 230.257 39.04C229.057 39.28 227.95 39.4 226.937 39.4C224.083 39.4 221.95 38.5867 220.537 36.96C219.15 35.3333 218.457 33.1067 218.457 30.28V27.88C218.457 25.1333 219.15 22.9333 220.537 21.28C221.95 19.6267 223.937 18.8 226.497 18.8C227.857 18.8 229.097 19.08 230.217 19.64C231.363 20.1733 232.27 21 232.937 22.12C233.63 23.2133 233.977 24.6267 233.977 26.36C233.977 27.48 233.817 28.76 233.497 30.2H221.697V30.28C221.697 32.3067 222.11 33.84 222.937 34.88C223.79 35.92 225.15 36.44 227.017 36.44C227.87 36.44 228.803 36.3333 229.817 36.12C230.857 35.9067 231.87 35.5733 232.857 35.12L233.857 37.84ZM226.497 21.68C224.95 21.68 223.777 22.1867 222.977 23.2C222.203 24.1867 221.777 25.5867 221.697 27.4H230.657C230.737 26.92 230.777 26.4667 230.777 26.04C230.777 24.5467 230.35 23.4533 229.497 22.76C228.67 22.04 227.67 21.68 226.497 21.68ZM255.493 41.48C255.493 43.4267 254.693 44.9867 253.093 46.16C251.519 47.3333 249.346 47.92 246.573 47.92C245.186 47.92 243.733 47.7333 242.213 47.36C240.719 46.9867 239.306 46.3867 237.973 45.56L239.093 43C240.426 43.7467 241.706 44.2667 242.933 44.56C244.186 44.88 245.399 45.04 246.573 45.04C248.386 45.04 249.786 44.7467 250.773 44.16C251.759 43.5733 252.253 42.7867 252.253 41.8C252.253 41.08 252.013 40.52 251.533 40.12C251.053 39.7467 250.279 39.56 249.213 39.56H244.613C242.879 39.56 241.626 39.1467 240.853 38.32C240.079 37.4933 239.693 36.5867 239.693 35.6C239.693 34.9067 239.853 34.2267 240.173 33.56C240.493 32.8667 240.946 32.1867 241.533 31.52C240.599 30.96 239.853 30.2 239.293 29.24C238.733 28.2533 238.453 27.0667 238.453 25.68C238.453 24.16 238.773 22.8933 239.413 21.88C240.079 20.8667 240.959 20.1067 242.053 19.6C243.146 19.0667 244.373 18.8 245.733 18.8H246.413C247.346 18.8 248.199 18.9333 248.973 19.2H256.093V22.12L251.773 21.52C252.333 22 252.786 22.6 253.133 23.32C253.479 24.0133 253.653 24.8667 253.653 25.88C253.653 27.32 253.319 28.5333 252.653 29.52C252.013 30.5067 251.146 31.2667 250.053 31.8C248.959 32.3067 247.746 32.56 246.413 32.56H245.733C245.386 32.56 245.053 32.5467 244.733 32.52C244.413 32.4667 244.093 32.4133 243.773 32.36C242.999 33.2133 242.613 34.0533 242.613 34.88C242.613 35.9467 243.359 36.48 244.853 36.48H249.333C251.253 36.48 252.759 36.9067 253.853 37.76C254.946 38.6133 255.493 39.8533 255.493 41.48ZM246.413 29.72C247.453 29.72 248.373 29.3867 249.173 28.72C249.973 28.0533 250.373 27.04 250.373 25.68C250.373 24.3467 249.973 23.3467 249.173 22.68C248.373 21.9867 247.453 21.64 246.413 21.64H245.733C244.666 21.64 243.733 21.9867 242.933 22.68C242.133 23.3467 241.733 24.3467 241.733 25.68C241.733 27.04 242.133 28.0533 242.933 28.72C243.733 29.3867 244.666 29.72 245.733 29.72H246.413ZM263.914 14.36H260.234V10.68H263.914V14.36ZM263.714 39H260.434V19.2H263.714V39ZM280.306 21.88C279.559 21.88 278.679 22.0667 277.666 22.44C276.679 22.8133 275.479 23.5733 274.066 24.72V39H270.786V19.2H273.906V21.96C275.319 20.76 276.599 19.9333 277.746 19.48C278.919 19.0267 280.039 18.8 281.106 18.8C282.946 18.8 284.346 19.3867 285.306 20.56C286.292 21.7067 286.786 23.3467 286.786 25.48V39H283.506V25.96C283.506 23.24 282.439 21.88 280.306 21.88ZM326.228 19.2L321.148 39H317.348L313.188 22.76L308.908 39H305.108L300.068 19.2H303.428L305.428 27.48L307.228 35.68L311.508 19.2H314.988L319.268 35.76L321.028 27.52L322.988 19.2H326.228ZM334.461 14.36H330.781V10.68H334.461V14.36ZM334.261 39H330.981V19.2H334.261V39ZM352.213 38.28C350.719 39.0267 349.133 39.4 347.453 39.4C346.013 39.4 344.879 39.1067 344.053 38.52C343.253 37.9333 342.679 37.1467 342.333 36.16C342.013 35.1733 341.853 34.08 341.853 32.88V22.08H338.413V19.2H341.853V13.68H345.133V19.2H351.613V22.08H345.133V32.76C345.133 34.1467 345.359 35.1067 345.813 35.64C346.293 36.1467 347.026 36.4 348.013 36.4C348.493 36.4 348.986 36.3467 349.493 36.24C350.026 36.1067 350.599 35.8933 351.213 35.6L352.213 38.28ZM366.048 21.88C365.301 21.88 364.421 22.0667 363.408 22.44C362.421 22.8133 361.221 23.5733 359.808 24.72V39H356.528V9.4H359.808V21.84C361.194 20.6667 362.448 19.8667 363.568 19.44C364.688 19.0133 365.781 18.8 366.848 18.8C368.688 18.8 370.088 19.3867 371.048 20.56C372.034 21.7067 372.528 23.3467 372.528 25.48V39H369.248V25.96C369.248 23.24 368.181 21.88 366.048 21.88ZM403.69 35.76V39H388.81V11.8H392.29V35.76H403.69ZM423.614 27.88V30.28C423.614 33.1067 422.881 35.3333 421.414 36.96C419.974 38.5867 417.907 39.4 415.214 39.4C412.547 39.4 410.481 38.5867 409.014 36.96C407.547 35.3333 406.814 33.1067 406.814 30.28V27.88C406.814 25.1067 407.534 22.9067 408.974 21.28C410.441 19.6267 412.521 18.8 415.214 18.8C417.907 18.8 419.974 19.6267 421.414 21.28C422.881 22.9067 423.614 25.1067 423.614 27.88ZM420.214 27.88C420.214 25.9867 419.787 24.5067 418.934 23.44C418.081 22.3467 416.841 21.8 415.214 21.8C413.614 21.8 412.374 22.3467 411.494 23.44C410.641 24.5067 410.214 25.9867 410.214 27.88V30.28C410.214 32.2533 410.641 33.7733 411.494 34.84C412.374 35.9067 413.614 36.44 415.214 36.44C416.841 36.44 418.081 35.9067 418.934 34.84C419.787 33.7733 420.214 32.2533 420.214 30.28V27.88ZM445.415 41.48C445.415 43.4267 444.615 44.9867 443.015 46.16C441.441 47.3333 439.268 47.92 436.495 47.92C435.108 47.92 433.655 47.7333 432.135 47.36C430.641 46.9867 429.228 46.3867 427.895 45.56L429.015 43C430.348 43.7467 431.628 44.2667 432.855 44.56C434.108 44.88 435.321 45.04 436.495 45.04C438.308 45.04 439.708 44.7467 440.695 44.16C441.681 43.5733 442.175 42.7867 442.175 41.8C442.175 41.08 441.935 40.52 441.455 40.12C440.975 39.7467 440.201 39.56 439.135 39.56H434.535C432.801 39.56 431.548 39.1467 430.775 38.32C430.001 37.4933 429.615 36.5867 429.615 35.6C429.615 34.9067 429.775 34.2267 430.095 33.56C430.415 32.8667 430.868 32.1867 431.455 31.52C430.521 30.96 429.775 30.2 429.215 29.24C428.655 28.2533 428.375 27.0667 428.375 25.68C428.375 24.16 428.695 22.8933 429.335 21.88C430.001 20.8667 430.881 20.1067 431.975 19.6C433.068 19.0667 434.295 18.8 435.655 18.8H436.335C437.268 18.8 438.121 18.9333 438.895 19.2H446.015V22.12L441.695 21.52C442.255 22 442.708 22.6 443.055 23.32C443.401 24.0133 443.575 24.8667 443.575 25.88C443.575 27.32 443.241 28.5333 442.575 29.52C441.935 30.5067 441.068 31.2667 439.975 31.8C438.881 32.3067 437.668 32.56 436.335 32.56H435.655C435.308 32.56 434.975 32.5467 434.655 32.52C434.335 32.4667 434.015 32.4133 433.695 32.36C432.921 33.2133 432.535 34.0533 432.535 34.88C432.535 35.9467 433.281 36.48 434.775 36.48H439.255C441.175 36.48 442.681 36.9067 443.775 37.76C444.868 38.6133 445.415 39.8533 445.415 41.48ZM436.335 29.72C437.375 29.72 438.295 29.3867 439.095 28.72C439.895 28.0533 440.295 27.04 440.295 25.68C440.295 24.3467 439.895 23.3467 439.095 22.68C438.295 21.9867 437.375 21.64 436.335 21.64H435.655C434.588 21.64 433.655 21.9867 432.855 22.68C432.055 23.3467 431.655 24.3467 431.655 25.68C431.655 27.04 432.055 28.0533 432.855 28.72C433.655 29.3867 434.588 29.72 435.655 29.72H436.335ZM466.196 41.48C466.196 43.4267 465.396 44.9867 463.796 46.16C462.223 47.3333 460.049 47.92 457.276 47.92C455.889 47.92 454.436 47.7333 452.916 47.36C451.423 46.9867 450.009 46.3867 448.676 45.56L449.796 43C451.129 43.7467 452.409 44.2667 453.636 44.56C454.889 44.88 456.103 45.04 457.276 45.04C459.089 45.04 460.489 44.7467 461.476 44.16C462.463 43.5733 462.956 42.7867 462.956 41.8C462.956 41.08 462.716 40.52 462.236 40.12C461.756 39.7467 460.983 39.56 459.916 39.56H455.316C453.583 39.56 452.329 39.1467 451.556 38.32C450.783 37.4933 450.396 36.5867 450.396 35.6C450.396 34.9067 450.556 34.2267 450.876 33.56C451.196 32.8667 451.649 32.1867 452.236 31.52C451.303 30.96 450.556 30.2 449.996 29.24C449.436 28.2533 449.156 27.0667 449.156 25.68C449.156 24.16 449.476 22.8933 450.116 21.88C450.783 20.8667 451.663 20.1067 452.756 19.6C453.849 19.0667 455.076 18.8 456.436 18.8H457.116C458.049 18.8 458.903 18.9333 459.676 19.2H466.796V22.12L462.476 21.52C463.036 22 463.489 22.6 463.836 23.32C464.183 24.0133 464.356 24.8667 464.356 25.88C464.356 27.32 464.023 28.5333 463.356 29.52C462.716 30.5067 461.849 31.2667 460.756 31.8C459.663 32.3067 458.449 32.56 457.116 32.56H456.436C456.089 32.56 455.756 32.5467 455.436 32.52C455.116 32.4667 454.796 32.4133 454.476 32.36C453.703 33.2133 453.316 34.0533 453.316 34.88C453.316 35.9467 454.063 36.48 455.556 36.48H460.036C461.956 36.48 463.463 36.9067 464.556 37.76C465.649 38.6133 466.196 39.8533 466.196 41.48ZM457.116 29.72C458.156 29.72 459.076 29.3867 459.876 28.72C460.676 28.0533 461.076 27.04 461.076 25.68C461.076 24.3467 460.676 23.3467 459.876 22.68C459.076 21.9867 458.156 21.64 457.116 21.64H456.436C455.369 21.64 454.436 21.9867 453.636 22.68C452.836 23.3467 452.436 24.3467 452.436 25.68C452.436 27.04 452.836 28.0533 453.636 28.72C454.436 29.3867 455.369 29.72 456.436 29.72H457.116ZM485.617 39.2C484.391 39.2 483.404 38.92 482.657 38.36C481.937 37.8 481.431 37.1067 481.137 36.28C479.831 37.4267 478.644 38.24 477.577 38.72C476.511 39.1733 475.444 39.4 474.377 39.4C472.644 39.4 471.364 38.84 470.537 37.72C469.711 36.6 469.297 35.2267 469.297 33.6C469.297 32.5067 469.497 31.5333 469.897 30.68C470.297 29.8267 470.977 29.16 471.937 28.68C472.897 28.1733 474.191 27.92 475.817 27.92C476.537 27.92 477.324 27.9733 478.177 28.08C479.031 28.16 479.897 28.2667 480.777 28.4V25.72C480.777 24.2267 480.444 23.2133 479.777 22.68C479.137 22.12 478.191 21.84 476.937 21.84C475.231 21.84 473.324 22.3067 471.217 23.24L470.177 20.52C471.404 19.96 472.577 19.5333 473.697 19.24C474.817 18.9467 475.951 18.8 477.097 18.8C478.964 18.8 480.391 19.1067 481.377 19.72C482.364 20.3333 483.044 21.1467 483.417 22.16C483.791 23.1733 483.977 24.28 483.977 25.48V34.04C483.977 34.6533 484.097 35.1733 484.337 35.6C484.577 36 485.057 36.2 485.777 36.2H486.217V39.2H485.617ZM472.537 33.56C472.537 34.4667 472.751 35.2 473.177 35.76C473.604 36.32 474.217 36.6 475.017 36.6C475.711 36.6 476.511 36.4 477.417 36C478.324 35.5733 479.444 34.7333 480.777 33.48V30.96C478.964 30.6667 477.364 30.52 475.977 30.52C474.751 30.52 473.871 30.7733 473.337 31.28C472.804 31.7867 472.537 32.5467 472.537 33.56ZM493.184 27.92V30.28C493.184 32.3067 493.557 33.84 494.304 34.88C495.05 35.8933 496.237 36.4 497.864 36.4C499.464 36.4 501.184 35.9867 503.024 35.16L504.024 37.92C501.837 38.9067 499.717 39.4 497.664 39.4C495.104 39.4 493.157 38.5867 491.824 36.96C490.49 35.3333 489.824 33.1067 489.824 30.28V27.92C489.824 25.0933 490.49 22.8667 491.824 21.24C493.157 19.6133 495.104 18.8 497.664 18.8C498.624 18.8 499.61 18.9333 500.624 19.2C501.664 19.44 502.704 19.7867 503.744 20.24L502.744 23.04C501.864 22.6667 501.01 22.3733 500.184 22.16C499.384 21.9467 498.61 21.84 497.864 21.84C496.237 21.84 495.05 22.36 494.304 23.4C493.557 24.4133 493.184 25.92 493.184 27.92ZM511.074 27.92V30.28C511.074 32.3067 511.448 33.84 512.194 34.88C512.941 35.8933 514.128 36.4 515.754 36.4C517.354 36.4 519.074 35.9867 520.914 35.16L521.914 37.92C519.728 38.9067 517.608 39.4 515.554 39.4C512.994 39.4 511.048 38.5867 509.714 36.96C508.381 35.3333 507.714 33.1067 507.714 30.28V27.92C507.714 25.0933 508.381 22.8667 509.714 21.24C511.048 19.6133 512.994 18.8 515.554 18.8C516.514 18.8 517.501 18.9333 518.514 19.2C519.554 19.44 520.594 19.7867 521.634 20.24L520.634 23.04C519.754 22.6667 518.901 22.3733 518.074 22.16C517.274 21.9467 516.501 21.84 515.754 21.84C514.128 21.84 512.941 22.36 512.194 23.4C511.448 24.4133 511.074 25.92 511.074 27.92ZM530.203 14.36H526.523V10.68H530.203V14.36ZM530.003 39H526.723V19.2H530.003V39ZM546.595 21.88C545.848 21.88 544.968 22.0667 543.955 22.44C542.968 22.8133 541.768 23.5733 540.355 24.72V39H537.075V19.2H540.195V21.96C541.608 20.76 542.888 19.9333 544.035 19.48C545.208 19.0267 546.328 18.8 547.395 18.8C549.235 18.8 550.635 19.3867 551.595 20.56C552.581 21.7067 553.075 23.3467 553.075 25.48V39H549.795V25.96C549.795 23.24 548.728 21.88 546.595 21.88ZM575.606 27.88V30.28C575.606 33.1067 574.873 35.3333 573.406 36.96C571.966 38.5867 569.9 39.4 567.206 39.4C564.54 39.4 562.473 38.5867 561.006 36.96C559.54 35.3333 558.806 33.1067 558.806 30.28V27.88C558.806 25.1067 559.526 22.9067 560.966 21.28C562.433 19.6267 564.513 18.8 567.206 18.8C569.9 18.8 571.966 19.6267 573.406 21.28C574.873 22.9067 575.606 25.1067 575.606 27.88ZM572.206 27.88C572.206 25.9867 571.78 24.5067 570.926 23.44C570.073 22.3467 568.833 21.8 567.206 21.8C565.606 21.8 564.366 22.3467 563.486 23.44C562.633 24.5067 562.206 25.9867 562.206 27.88V30.28C562.206 32.2533 562.633 33.7733 563.486 34.84C564.366 35.9067 565.606 36.44 567.206 36.44C568.833 36.44 570.073 35.9067 570.926 34.84C571.78 33.7733 572.206 32.2533 572.206 30.28V27.88ZM598.949 34.2V9.4H602.229V34.04C602.229 34.76 602.335 35.3067 602.549 35.68C602.789 36.0267 603.255 36.2 603.949 36.2H604.589V39.2H603.669C601.909 39.2 600.682 38.7333 599.989 37.8C599.295 36.8667 598.949 35.6667 598.949 34.2ZM623.896 37.84C622.696 38.4267 621.496 38.8267 620.296 39.04C619.096 39.28 617.989 39.4 616.976 39.4C614.122 39.4 611.989 38.5867 610.576 36.96C609.189 35.3333 608.496 33.1067 608.496 30.28V27.88C608.496 25.1333 609.189 22.9333 610.576 21.28C611.989 19.6267 613.976 18.8 616.536 18.8C617.896 18.8 619.136 19.08 620.256 19.64C621.402 20.1733 622.309 21 622.976 22.12C623.669 23.2133 624.016 24.6267 624.016 26.36C624.016 27.48 623.856 28.76 623.536 30.2H611.736V30.28C611.736 32.3067 612.149 33.84 612.976 34.88C613.829 35.92 615.189 36.44 617.056 36.44C617.909 36.44 618.842 36.3333 619.856 36.12C620.896 35.9067 621.909 35.5733 622.896 35.12L623.896 37.84ZM616.536 21.68C614.989 21.68 613.816 22.1867 613.016 23.2C612.242 24.1867 611.816 25.5867 611.736 27.4H620.696C620.776 26.92 620.816 26.4667 620.816 26.04C620.816 24.5467 620.389 23.4533 619.536 22.76C618.709 22.04 617.709 21.68 616.536 21.68ZM640.572 38.28C639.079 39.0267 637.492 39.4 635.812 39.4C634.372 39.4 633.239 39.1067 632.412 38.52C631.612 37.9333 631.039 37.1467 630.692 36.16C630.372 35.1733 630.212 34.08 630.212 32.88V22.08H626.772V19.2H630.212V13.68H633.492V19.2H639.972V22.08H633.492V32.76C633.492 34.1467 633.719 35.1067 634.172 35.64C634.652 36.1467 635.385 36.4 636.372 36.4C636.852 36.4 637.345 36.3467 637.852 36.24C638.385 36.1067 638.959 35.8933 639.572 35.6L640.572 38.28ZM649.727 36.48C652.394 36.48 653.727 35.5733 653.727 33.76C653.727 32.9867 653.487 32.3733 653.007 31.92C652.527 31.4667 651.647 31.08 650.367 30.76L648.167 30.2C646.541 29.8 645.327 29.1067 644.527 28.12C643.727 27.1067 643.327 25.9067 643.327 24.52C643.327 23.5067 643.554 22.5733 644.007 21.72C644.461 20.84 645.181 20.1333 646.167 19.6C647.154 19.0667 648.434 18.8 650.007 18.8C651.021 18.8 652.047 18.92 653.087 19.16C654.154 19.3733 655.234 19.7467 656.327 20.28L655.287 23.04C653.341 22.16 651.581 21.72 650.007 21.72C647.687 21.72 646.527 22.5867 646.527 24.32C646.527 24.9867 646.741 25.56 647.167 26.04C647.594 26.52 648.394 26.9067 649.567 27.2L651.767 27.76C653.527 28.1867 654.821 28.88 655.647 29.84C656.474 30.8 656.887 32.04 656.887 33.56C656.887 34.6533 656.647 35.6533 656.167 36.56C655.714 37.44 654.967 38.1333 653.927 38.64C652.914 39.1467 651.541 39.4 649.807 39.4C648.661 39.4 647.514 39.28 646.367 39.04C645.247 38.8 644.087 38.4133 642.887 37.88L643.767 35.16C644.914 35.6133 645.954 35.9467 646.887 36.16C647.821 36.3733 648.767 36.48 649.727 36.48ZM685.305 39.2C684.078 39.2 683.091 38.92 682.345 38.36C681.625 37.8 681.118 37.1067 680.825 36.28C679.518 37.4267 678.331 38.24 677.265 38.72C676.198 39.1733 675.131 39.4 674.065 39.4C672.331 39.4 671.051 38.84 670.225 37.72C669.398 36.6 668.985 35.2267 668.985 33.6C668.985 32.5067 669.185 31.5333 669.585 30.68C669.985 29.8267 670.665 29.16 671.625 28.68C672.585 28.1733 673.878 27.92 675.505 27.92C676.225 27.92 677.011 27.9733 677.865 28.08C678.718 28.16 679.585 28.2667 680.465 28.4V25.72C680.465 24.2267 680.131 23.2133 679.465 22.68C678.825 22.12 677.878 21.84 676.625 21.84C674.918 21.84 673.011 22.3067 670.905 23.24L669.865 20.52C671.091 19.96 672.265 19.5333 673.385 19.24C674.505 18.9467 675.638 18.8 676.785 18.8C678.651 18.8 680.078 19.1067 681.065 19.72C682.051 20.3333 682.731 21.1467 683.105 22.16C683.478 23.1733 683.665 24.28 683.665 25.48V34.04C683.665 34.6533 683.785 35.1733 684.025 35.6C684.265 36 684.745 36.2 685.465 36.2H685.905V39.2H685.305ZM672.225 33.56C672.225 34.4667 672.438 35.2 672.865 35.76C673.291 36.32 673.905 36.6 674.705 36.6C675.398 36.6 676.198 36.4 677.105 36C678.011 35.5733 679.131 34.7333 680.465 33.48V30.96C678.651 30.6667 677.051 30.52 675.665 30.52C674.438 30.52 673.558 30.7733 673.025 31.28C672.491 31.7867 672.225 32.5467 672.225 33.56ZM700.071 21.88C699.325 21.88 698.445 22.0667 697.431 22.44C696.445 22.8133 695.245 23.5733 693.831 24.72V39H690.551V19.2H693.671V21.96C695.085 20.76 696.365 19.9333 697.511 19.48C698.685 19.0267 699.805 18.8 700.871 18.8C702.711 18.8 704.111 19.3867 705.071 20.56C706.058 21.7067 706.551 23.3467 706.551 25.48V39H703.271V25.96C703.271 23.24 702.205 21.88 700.071 21.88ZM718.243 36.48C720.909 36.48 722.243 35.5733 722.243 33.76C722.243 32.9867 722.003 32.3733 721.523 31.92C721.043 31.4667 720.163 31.08 718.883 30.76L716.683 30.2C715.056 29.8 713.843 29.1067 713.043 28.12C712.243 27.1067 711.843 25.9067 711.843 24.52C711.843 23.5067 712.069 22.5733 712.523 21.72C712.976 20.84 713.696 20.1333 714.683 19.6C715.669 19.0667 716.949 18.8 718.523 18.8C719.536 18.8 720.563 18.92 721.603 19.16C722.669 19.3733 723.749 19.7467 724.843 20.28L723.803 23.04C721.856 22.16 720.096 21.72 718.523 21.72C716.203 21.72 715.043 22.5867 715.043 24.32C715.043 24.9867 715.256 25.56 715.683 26.04C716.109 26.52 716.909 26.9067 718.083 27.2L720.283 27.76C722.043 28.1867 723.336 28.88 724.163 29.84C724.989 30.8 725.403 32.04 725.403 33.56C725.403 34.6533 725.163 35.6533 724.683 36.56C724.229 37.44 723.483 38.1333 722.443 38.64C721.429 39.1467 720.056 39.4 718.323 39.4C717.176 39.4 716.029 39.28 714.883 39.04C713.763 38.8 712.603 38.4133 711.403 37.88L712.283 35.16C713.429 35.6133 714.469 35.9467 715.403 36.16C716.336 36.3733 717.283 36.48 718.243 36.48ZM754.509 19.2L749.429 39H745.629L741.469 22.76L737.189 39H733.389L728.349 19.2H731.709L733.709 27.48L735.509 35.68L739.789 19.2H743.269L747.549 35.76L749.309 27.52L751.269 19.2H754.509ZM773.466 37.84C772.266 38.4267 771.066 38.8267 769.866 39.04C768.666 39.28 767.559 39.4 766.546 39.4C763.693 39.4 761.559 38.5867 760.146 36.96C758.759 35.3333 758.066 33.1067 758.066 30.28V27.88C758.066 25.1333 758.759 22.9333 760.146 21.28C761.559 19.6267 763.546 18.8 766.106 18.8C767.466 18.8 768.706 19.08 769.826 19.64C770.973 20.1733 771.879 21 772.546 22.12C773.239 23.2133 773.586 24.6267 773.586 26.36C773.586 27.48 773.426 28.76 773.106 30.2H761.306V30.28C761.306 32.3067 761.719 33.84 762.546 34.88C763.399 35.92 764.759 36.44 766.626 36.44C767.479 36.44 768.413 36.3333 769.426 36.12C770.466 35.9067 771.479 35.5733 772.466 35.12L773.466 37.84ZM766.106 21.68C764.559 21.68 763.386 22.1867 762.586 23.2C761.813 24.1867 761.386 25.5867 761.306 27.4H770.266C770.346 26.92 770.386 26.4667 770.386 26.04C770.386 24.5467 769.959 23.4533 769.106 22.76C768.279 22.04 767.279 21.68 766.106 21.68ZM789.662 22.08C788.462 22.08 787.289 22.2933 786.142 22.72C785.022 23.1467 783.822 23.96 782.542 25.16V39H779.262V19.2H782.382V22.4C783.742 21.0667 784.982 20.1333 786.102 19.6C787.249 19.0667 788.436 18.8 789.662 18.8V22.08ZM817.141 39.2C815.914 39.2 814.927 38.92 814.181 38.36C813.461 37.8 812.954 37.1067 812.661 36.28C811.354 37.4267 810.167 38.24 809.101 38.72C808.034 39.1733 806.967 39.4 805.901 39.4C804.167 39.4 802.887 38.84 802.061 37.72C801.234 36.6 800.821 35.2267 800.821 33.6C800.821 32.5067 801.021 31.5333 801.421 30.68C801.821 29.8267 802.501 29.16 803.461 28.68C804.421 28.1733 805.714 27.92 807.341 27.92C808.061 27.92 808.847 27.9733 809.701 28.08C810.554 28.16 811.421 28.2667 812.301 28.4V25.72C812.301 24.2267 811.967 23.2133 811.301 22.68C810.661 22.12 809.714 21.84 808.461 21.84C806.754 21.84 804.847 22.3067 802.741 23.24L801.701 20.52C802.927 19.96 804.101 19.5333 805.221 19.24C806.341 18.9467 807.474 18.8 808.621 18.8C810.487 18.8 811.914 19.1067 812.901 19.72C813.887 20.3333 814.567 21.1467 814.941 22.16C815.314 23.1733 815.501 24.28 815.501 25.48V34.04C815.501 34.6533 815.621 35.1733 815.861 35.6C816.101 36 816.581 36.2 817.301 36.2H817.741V39.2H817.141ZM804.061 33.56C804.061 34.4667 804.274 35.2 804.701 35.76C805.127 36.32 805.741 36.6 806.541 36.6C807.234 36.6 808.034 36.4 808.941 36C809.847 35.5733 810.967 34.7333 812.301 33.48V30.96C810.487 30.6667 808.887 30.52 807.501 30.52C806.274 30.52 805.394 30.7733 804.861 31.28C804.327 31.7867 804.061 32.5467 804.061 33.56ZM13.92 70.08H7.44V87H4.16V70.08H0.72V67.2H4.16V63.92C4.16 62.6933 4.36 61.56 4.76 60.52C5.18667 59.4533 5.86667 58.6 6.8 57.96C7.73333 57.32 8.97333 57 10.52 57C11.2933 57 12.1067 57.0933 12.96 57.28C13.84 57.44 14.6533 57.6933 15.4 58.04L14.48 60.8C13.12 60.2667 11.9333 60 10.92 60C9.8 60 8.93333 60.3067 8.32 60.92C7.73333 61.5333 7.44 62.52 7.44 63.88V67.2H13.92V70.08ZM31.8644 85.84C30.6644 86.4267 29.4644 86.8267 28.2644 87.04C27.0644 87.28 25.9577 87.4 24.9444 87.4C22.091 87.4 19.9577 86.5867 18.5444 84.96C17.1577 83.3333 16.4644 81.1067 16.4644 78.28V75.88C16.4644 73.1333 17.1577 70.9333 18.5444 69.28C19.9577 67.6267 21.9444 66.8 24.5044 66.8C25.8644 66.8 27.1044 67.08 28.2244 67.64C29.371 68.1733 30.2777 69 30.9444 70.12C31.6377 71.2133 31.9844 72.6267 31.9844 74.36C31.9844 75.48 31.8244 76.76 31.5044 78.2H19.7044V78.28C19.7044 80.3067 20.1177 81.84 20.9444 82.88C21.7977 83.92 23.1577 84.44 25.0244 84.44C25.8777 84.44 26.811 84.3333 27.8244 84.12C28.8644 83.9067 29.8777 83.5733 30.8644 83.12L31.8644 85.84ZM24.5044 69.68C22.9577 69.68 21.7844 70.1867 20.9844 71.2C20.211 72.1867 19.7844 73.5867 19.7044 75.4H28.6644C28.7444 74.92 28.7844 74.4667 28.7844 74.04C28.7844 72.5467 28.3577 71.4533 27.5044 70.76C26.6777 70.04 25.6777 69.68 24.5044 69.68ZM61.4625 67.2L56.3825 87H52.5825L48.4225 70.76L44.1425 87H40.3425L35.3025 67.2H38.6625L40.6625 75.48L42.4625 83.68L46.7425 67.2H50.2225L54.5025 83.76L56.2625 75.52L58.2225 67.2H61.4625ZM90.0863 68.96V95.52H86.8063V84.32C85.6063 85.4667 84.4996 86.2667 83.4863 86.72C82.4996 87.1733 81.4863 87.4 80.4463 87.4C78.3663 87.4 76.7663 86.6 75.6463 85C74.5263 83.4 73.9663 81.16 73.9663 78.28V75.96C73.9663 73.16 74.6596 70.9333 76.0463 69.28C77.4596 67.6267 79.4996 66.8 82.1663 66.8C84.7796 66.8 87.4196 67.52 90.0863 68.96ZM77.3663 78.28C77.3663 80.36 77.6863 81.8933 78.3263 82.88C78.9663 83.84 79.9396 84.32 81.2463 84.32C82.0196 84.32 82.8196 84.12 83.6463 83.72C84.4729 83.32 85.5263 82.5067 86.8063 81.28V70.8C85.2329 70.1333 83.7529 69.8 82.3663 69.8C80.5796 69.8 79.2996 70.3467 78.5263 71.44C77.7529 72.5333 77.3663 74.04 77.3663 75.96V78.28ZM109.236 87V84.2C107.849 85.4 106.609 86.24 105.516 86.72C104.422 87.1733 103.329 87.4 102.236 87.4C100.476 87.4 99.129 86.8267 98.1956 85.68C97.2623 84.5067 96.7956 82.8667 96.7956 80.76V67.2H100.076V80.28C100.076 81.6667 100.316 82.6933 100.796 83.36C101.302 84 102.049 84.32 103.036 84.32C103.782 84.32 104.622 84.1333 105.556 83.76C106.489 83.3867 107.649 82.64 109.036 81.52V67.2H112.316V87H109.236ZM133.739 85.84C132.539 86.4267 131.339 86.8267 130.139 87.04C128.939 87.28 127.833 87.4 126.819 87.4C123.966 87.4 121.833 86.5867 120.419 84.96C119.033 83.3333 118.339 81.1067 118.339 78.28V75.88C118.339 73.1333 119.033 70.9333 120.419 69.28C121.833 67.6267 123.819 66.8 126.379 66.8C127.739 66.8 128.979 67.08 130.099 67.64C131.246 68.1733 132.153 69 132.819 70.12C133.513 71.2133 133.859 72.6267 133.859 74.36C133.859 75.48 133.699 76.76 133.379 78.2H121.579V78.28C121.579 80.3067 121.993 81.84 122.819 82.88C123.673 83.92 125.033 84.44 126.899 84.44C127.753 84.44 128.686 84.3333 129.699 84.12C130.739 83.9067 131.753 83.5733 132.739 83.12L133.739 85.84ZM126.379 69.68C124.833 69.68 123.659 70.1867 122.859 71.2C122.086 72.1867 121.659 73.5867 121.579 75.4H130.539C130.619 74.92 130.659 74.4667 130.659 74.04C130.659 72.5467 130.233 71.4533 129.379 70.76C128.553 70.04 127.553 69.68 126.379 69.68ZM144.376 84.48C147.042 84.48 148.376 83.5733 148.376 81.76C148.376 80.9867 148.136 80.3733 147.656 79.92C147.176 79.4667 146.296 79.08 145.016 78.76L142.816 78.2C141.189 77.8 139.976 77.1067 139.176 76.12C138.376 75.1067 137.976 73.9067 137.976 72.52C137.976 71.5067 138.202 70.5733 138.656 69.72C139.109 68.84 139.829 68.1333 140.816 67.6C141.802 67.0667 143.082 66.8 144.656 66.8C145.669 66.8 146.696 66.92 147.736 67.16C148.802 67.3733 149.882 67.7467 150.976 68.28L149.936 71.04C147.989 70.16 146.229 69.72 144.656 69.72C142.336 69.72 141.176 70.5867 141.176 72.32C141.176 72.9867 141.389 73.56 141.816 74.04C142.242 74.52 143.042 74.9067 144.216 75.2L146.416 75.76C148.176 76.1867 149.469 76.88 150.296 77.84C151.122 78.8 151.536 80.04 151.536 81.56C151.536 82.6533 151.296 83.6533 150.816 84.56C150.362 85.44 149.616 86.1333 148.576 86.64C147.562 87.1467 146.189 87.4 144.456 87.4C143.309 87.4 142.162 87.28 141.016 87.04C139.896 86.8 138.736 86.4133 137.536 85.88L138.416 83.16C139.562 83.6133 140.602 83.9467 141.536 84.16C142.469 84.3733 143.416 84.48 144.376 84.48ZM167.642 86.28C166.149 87.0267 164.562 87.4 162.882 87.4C161.442 87.4 160.309 87.1067 159.482 86.52C158.682 85.9333 158.109 85.1467 157.762 84.16C157.442 83.1733 157.282 82.08 157.282 80.88V70.08H153.842V67.2H157.282V61.68H160.562V67.2H167.042V70.08H160.562V80.76C160.562 82.1467 160.789 83.1067 161.242 83.64C161.722 84.1467 162.456 84.4 163.442 84.4C163.922 84.4 164.416 84.3467 164.922 84.24C165.456 84.1067 166.029 83.8933 166.642 83.6L167.642 86.28ZM175.438 62.36H171.758V58.68H175.438V62.36ZM175.238 87H171.958V67.2H175.238V87ZM197.989 75.88V78.28C197.989 81.1067 197.256 83.3333 195.789 84.96C194.349 86.5867 192.282 87.4 189.589 87.4C186.922 87.4 184.856 86.5867 183.389 84.96C181.922 83.3333 181.189 81.1067 181.189 78.28V75.88C181.189 73.1067 181.909 70.9067 183.349 69.28C184.816 67.6267 186.896 66.8 189.589 66.8C192.282 66.8 194.349 67.6267 195.789 69.28C197.256 70.9067 197.989 73.1067 197.989 75.88ZM194.589 75.88C194.589 73.9867 194.162 72.5067 193.309 71.44C192.456 70.3467 191.216 69.8 189.589 69.8C187.989 69.8 186.749 70.3467 185.869 71.44C185.016 72.5067 184.589 73.9867 184.589 75.88V78.28C184.589 80.2533 185.016 81.7733 185.869 82.84C186.749 83.9067 187.989 84.44 189.589 84.44C191.216 84.44 192.456 83.9067 193.309 82.84C194.162 81.7733 194.589 80.2533 194.589 78.28V75.88ZM213.47 69.88C212.723 69.88 211.843 70.0667 210.83 70.44C209.843 70.8133 208.643 71.5733 207.23 72.72V87H203.95V67.2H207.07V69.96C208.483 68.76 209.763 67.9333 210.91 67.48C212.083 67.0267 213.203 66.8 214.27 66.8C216.11 66.8 217.51 67.3867 218.47 68.56C219.456 69.7067 219.95 71.3467 219.95 73.48V87H216.67V73.96C216.67 71.24 215.603 69.88 213.47 69.88ZM231.641 84.48C234.308 84.48 235.641 83.5733 235.641 81.76C235.641 80.9867 235.401 80.3733 234.921 79.92C234.441 79.4667 233.561 79.08 232.281 78.76L230.081 78.2C228.455 77.8 227.241 77.1067 226.441 76.12C225.641 75.1067 225.241 73.9067 225.241 72.52C225.241 71.5067 225.468 70.5733 225.921 69.72C226.375 68.84 227.095 68.1333 228.081 67.6C229.068 67.0667 230.348 66.8 231.921 66.8C232.935 66.8 233.961 66.92 235.001 67.16C236.068 67.3733 237.148 67.7467 238.241 68.28L237.201 71.04C235.255 70.16 233.495 69.72 231.921 69.72C229.601 69.72 228.441 70.5867 228.441 72.32C228.441 72.9867 228.655 73.56 229.081 74.04C229.508 74.52 230.308 74.9067 231.481 75.2L233.681 75.76C235.441 76.1867 236.735 76.88 237.561 77.84C238.388 78.8 238.801 80.04 238.801 81.56C238.801 82.6533 238.561 83.6533 238.081 84.56C237.628 85.44 236.881 86.1333 235.841 86.64C234.828 87.1467 233.455 87.4 231.721 87.4C230.575 87.4 229.428 87.28 228.281 87.04C227.161 86.8 226.001 86.4133 224.801 85.88L225.681 83.16C226.828 83.6133 227.868 83.9467 228.801 84.16C229.735 84.3733 230.681 84.48 231.641 84.48ZM263.619 86.28C262.125 87.0267 260.539 87.4 258.859 87.4C257.419 87.4 256.285 87.1067 255.459 86.52C254.659 85.9333 254.085 85.1467 253.739 84.16C253.419 83.1733 253.259 82.08 253.259 80.88V70.08H249.819V67.2H253.259V61.68H256.539V67.2H263.019V70.08H256.539V80.76C256.539 82.1467 256.765 83.1067 257.219 83.64C257.699 84.1467 258.432 84.4 259.419 84.4C259.899 84.4 260.392 84.3467 260.899 84.24C261.432 84.1067 262.005 83.8933 262.619 83.6L263.619 86.28ZM283.614 75.88V78.28C283.614 81.1067 282.881 83.3333 281.414 84.96C279.974 86.5867 277.907 87.4 275.214 87.4C272.547 87.4 270.481 86.5867 269.014 84.96C267.547 83.3333 266.814 81.1067 266.814 78.28V75.88C266.814 73.1067 267.534 70.9067 268.974 69.28C270.441 67.6267 272.521 66.8 275.214 66.8C277.907 66.8 279.974 67.6267 281.414 69.28C282.881 70.9067 283.614 73.1067 283.614 75.88ZM280.214 75.88C280.214 73.9867 279.787 72.5067 278.934 71.44C278.081 70.3467 276.841 69.8 275.214 69.8C273.614 69.8 272.374 70.3467 271.494 71.44C270.641 72.5067 270.214 73.9867 270.214 75.88V78.28C270.214 80.2533 270.641 81.7733 271.494 82.84C272.374 83.9067 273.614 84.44 275.214 84.44C276.841 84.44 278.081 83.9067 278.934 82.84C279.787 81.7733 280.214 80.2533 280.214 78.28V75.88ZM307.806 69.88C307.059 69.88 306.179 70.0667 305.166 70.44C304.179 70.8133 302.979 71.5733 301.566 72.72V87H298.286V57.4H301.566V69.84C302.952 68.6667 304.206 67.8667 305.326 67.44C306.446 67.0133 307.539 66.8 308.606 66.8C310.446 66.8 311.846 67.3867 312.806 68.56C313.792 69.7067 314.286 71.3467 314.286 73.48V87H311.006V73.96C311.006 71.24 309.939 69.88 307.806 69.88ZM335.497 85.84C334.297 86.4267 333.097 86.8267 331.897 87.04C330.697 87.28 329.591 87.4 328.577 87.4C325.724 87.4 323.591 86.5867 322.177 84.96C320.791 83.3333 320.097 81.1067 320.097 78.28V75.88C320.097 73.1333 320.791 70.9333 322.177 69.28C323.591 67.6267 325.577 66.8 328.137 66.8C329.497 66.8 330.737 67.08 331.857 67.64C333.004 68.1733 333.911 69 334.577 70.12C335.271 71.2133 335.617 72.6267 335.617 74.36C335.617 75.48 335.457 76.76 335.137 78.2H323.337V78.28C323.337 80.3067 323.751 81.84 324.577 82.88C325.431 83.92 326.791 84.44 328.657 84.44C329.511 84.44 330.444 84.3333 331.457 84.12C332.497 83.9067 333.511 83.5733 334.497 83.12L335.497 85.84ZM328.137 69.68C326.591 69.68 325.417 70.1867 324.617 71.2C323.844 72.1867 323.417 73.5867 323.337 75.4H332.297C332.377 74.92 332.417 74.4667 332.417 74.04C332.417 72.5467 331.991 71.4533 331.137 70.76C330.311 70.04 329.311 69.68 328.137 69.68ZM341.253 82.2V57.4H344.533V82.04C344.533 82.76 344.64 83.3067 344.853 83.68C345.093 84.0267 345.56 84.2 346.253 84.2H346.893V87.2H345.973C344.213 87.2 342.987 86.7333 342.293 85.8C341.6 84.8667 341.253 83.6667 341.253 82.2ZM359.76 87.4C358.267 87.4 356.72 87.0933 355.12 86.48V95.52H351.84V67.2H354.96V70C356.187 68.8267 357.307 68 358.32 67.52C359.334 67.04 360.374 66.8 361.44 66.8C363.547 66.8 365.16 67.6 366.28 69.2C367.427 70.8 368 73.0533 368 75.96V78.28C368 81.0533 367.294 83.2667 365.88 84.92C364.494 86.5733 362.454 87.4 359.76 87.4ZM360.64 69.88C359.867 69.88 359.067 70.08 358.24 70.48C357.414 70.88 356.374 71.6933 355.12 72.92V83.48C355.894 83.8267 356.64 84.08 357.36 84.24C358.08 84.3733 358.787 84.44 359.48 84.44C361.294 84.44 362.6 83.8933 363.4 82.8C364.2 81.68 364.6 80.1733 364.6 78.28V75.96C364.6 73.88 364.267 72.3467 363.6 71.36C362.96 70.3733 361.974 69.88 360.64 69.88ZM398.778 78.28C398.778 81.0533 398.084 83.2667 396.698 84.92C395.311 86.5733 393.271 87.4 390.578 87.4C387.911 87.4 385.271 86.6933 382.658 85.28V57.4H385.938V69.88C387.138 68.76 388.231 67.9733 389.218 67.52C390.231 67.04 391.258 66.8 392.298 66.8C394.378 66.8 395.978 67.6 397.098 69.2C398.218 70.8 398.778 73.0533 398.778 75.96V78.28ZM391.498 69.88C390.751 69.88 389.951 70.08 389.098 70.48C388.271 70.88 387.218 71.7067 385.938 72.96V83.44C387.511 84.1067 388.991 84.44 390.378 84.44C392.164 84.44 393.444 83.8933 394.218 82.8C394.991 81.68 395.378 80.1733 395.378 78.28V75.96C395.378 73.88 395.058 72.3467 394.418 71.36C393.778 70.3733 392.804 69.88 391.498 69.88ZM419.208 85.84C418.008 86.4267 416.808 86.8267 415.608 87.04C414.408 87.28 413.301 87.4 412.288 87.4C409.435 87.4 407.301 86.5867 405.888 84.96C404.501 83.3333 403.808 81.1067 403.808 78.28V75.88C403.808 73.1333 404.501 70.9333 405.888 69.28C407.301 67.6267 409.288 66.8 411.848 66.8C413.208 66.8 414.448 67.08 415.568 67.64C416.715 68.1733 417.621 69 418.288 70.12C418.981 71.2133 419.328 72.6267 419.328 74.36C419.328 75.48 419.168 76.76 418.848 78.2H407.048V78.28C407.048 80.3067 407.461 81.84 408.288 82.88C409.141 83.92 410.501 84.44 412.368 84.44C413.221 84.44 414.155 84.3333 415.168 84.12C416.208 83.9067 417.221 83.5733 418.208 83.12L419.208 85.84ZM411.848 69.68C410.301 69.68 409.128 70.1867 408.328 71.2C407.555 72.1867 407.128 73.5867 407.048 75.4H416.008C416.088 74.92 416.128 74.4667 416.128 74.04C416.128 72.5467 415.701 71.4533 414.848 70.76C414.021 70.04 413.021 69.68 411.848 69.68ZM435.884 86.28C434.391 87.0267 432.804 87.4 431.124 87.4C429.684 87.4 428.551 87.1067 427.724 86.52C426.924 85.9333 426.351 85.1467 426.004 84.16C425.684 83.1733 425.524 82.08 425.524 80.88V70.08H422.084V67.2H425.524V61.68H428.804V67.2H435.284V70.08H428.804V80.76C428.804 82.1467 429.031 83.1067 429.484 83.64C429.964 84.1467 430.698 84.4 431.684 84.4C432.164 84.4 432.658 84.3467 433.164 84.24C433.698 84.1067 434.271 83.8933 434.884 83.6L435.884 86.28ZM451.08 86.28C449.586 87.0267 448 87.4 446.32 87.4C444.88 87.4 443.746 87.1067 442.92 86.52C442.12 85.9333 441.546 85.1467 441.2 84.16C440.88 83.1733 440.72 82.08 440.72 80.88V70.08H437.28V67.2H440.72V61.68H444V67.2H450.48V70.08H444V80.76C444 82.1467 444.226 83.1067 444.68 83.64C445.16 84.1467 445.893 84.4 446.88 84.4C447.36 84.4 447.853 84.3467 448.36 84.24C448.893 84.1067 449.466 83.8933 450.08 83.6L451.08 86.28ZM469.755 85.84C468.555 86.4267 467.355 86.8267 466.155 87.04C464.955 87.28 463.848 87.4 462.835 87.4C459.982 87.4 457.848 86.5867 456.435 84.96C455.048 83.3333 454.355 81.1067 454.355 78.28V75.88C454.355 73.1333 455.048 70.9333 456.435 69.28C457.848 67.6267 459.835 66.8 462.395 66.8C463.755 66.8 464.995 67.08 466.115 67.64C467.262 68.1733 468.168 69 468.835 70.12C469.528 71.2133 469.875 72.6267 469.875 74.36C469.875 75.48 469.715 76.76 469.395 78.2H457.595V78.28C457.595 80.3067 458.008 81.84 458.835 82.88C459.688 83.92 461.048 84.44 462.915 84.44C463.768 84.44 464.702 84.3333 465.715 84.12C466.755 83.9067 467.768 83.5733 468.755 83.12L469.755 85.84ZM462.395 69.68C460.848 69.68 459.675 70.1867 458.875 71.2C458.102 72.1867 457.675 73.5867 457.595 75.4H466.555C466.635 74.92 466.675 74.4667 466.675 74.04C466.675 72.5467 466.248 71.4533 465.395 70.76C464.568 70.04 463.568 69.68 462.395 69.68ZM485.951 70.08C484.751 70.08 483.578 70.2933 482.431 70.72C481.311 71.1467 480.111 71.96 478.831 73.16V87H475.551V67.2H478.671V70.4C480.031 69.0667 481.271 68.1333 482.391 67.6C483.538 67.0667 484.725 66.8 485.951 66.8V70.08ZM505.71 89C504.856 91.4 503.803 93.1467 502.55 94.24C501.323 95.36 499.603 95.92 497.39 95.92V92.68C498.296 92.6533 499.07 92.5333 499.71 92.32C500.376 92.1067 500.963 91.6667 501.47 91C502.003 90.36 502.51 89.4 502.99 88.12L503.39 87.12L496.27 67.2H499.63L502.95 76.84L504.99 83L506.95 76.84L510.19 67.2H513.43L505.71 89ZM533.106 75.88V78.28C533.106 81.1067 532.373 83.3333 530.906 84.96C529.466 86.5867 527.4 87.4 524.706 87.4C522.04 87.4 519.973 86.5867 518.506 84.96C517.04 83.3333 516.306 81.1067 516.306 78.28V75.88C516.306 73.1067 517.026 70.9067 518.466 69.28C519.933 67.6267 522.013 66.8 524.706 66.8C527.4 66.8 529.466 67.6267 530.906 69.28C532.373 70.9067 533.106 73.1067 533.106 75.88ZM529.706 75.88C529.706 73.9867 529.28 72.5067 528.426 71.44C527.573 70.3467 526.333 69.8 524.706 69.8C523.106 69.8 521.866 70.3467 520.986 71.44C520.133 72.5067 519.706 73.9867 519.706 75.88V78.28C519.706 80.2533 520.133 81.7733 520.986 82.84C521.866 83.9067 523.106 84.44 524.706 84.44C526.333 84.44 527.573 83.9067 528.426 82.84C529.28 81.7733 529.706 80.2533 529.706 78.28V75.88ZM551.267 87V84.2C549.88 85.4 548.64 86.24 547.547 86.72C546.454 87.1733 545.36 87.4 544.267 87.4C542.507 87.4 541.16 86.8267 540.227 85.68C539.294 84.5067 538.827 82.8667 538.827 80.76V67.2H542.107V80.28C542.107 81.6667 542.347 82.6933 542.827 83.36C543.334 84 544.08 84.32 545.067 84.32C545.814 84.32 546.654 84.1333 547.587 83.76C548.52 83.3867 549.68 82.64 551.067 81.52V67.2H554.347V87H551.267ZM571.811 70.08C570.611 70.08 569.437 70.2933 568.291 70.72C567.171 71.1467 565.971 71.96 564.691 73.16V87H561.411V67.2H564.531V70.4C565.891 69.0667 567.131 68.1333 568.251 67.6C569.397 67.0667 570.584 66.8 571.811 66.8V70.08ZM599.169 85.84C597.969 86.4267 596.769 86.8267 595.569 87.04C594.369 87.28 593.262 87.4 592.249 87.4C589.396 87.4 587.262 86.5867 585.849 84.96C584.462 83.3333 583.769 81.1067 583.769 78.28V75.88C583.769 73.1333 584.462 70.9333 585.849 69.28C587.262 67.6267 589.249 66.8 591.809 66.8C593.169 66.8 594.409 67.08 595.529 67.64C596.676 68.1733 597.582 69 598.249 70.12C598.942 71.2133 599.289 72.6267 599.289 74.36C599.289 75.48 599.129 76.76 598.809 78.2H587.009V78.28C587.009 80.3067 587.422 81.84 588.249 82.88C589.102 83.92 590.462 84.44 592.329 84.44C593.182 84.44 594.116 84.3333 595.129 84.12C596.169 83.9067 597.182 83.5733 598.169 83.12L599.169 85.84ZM591.809 69.68C590.262 69.68 589.089 70.1867 588.289 71.2C587.516 72.1867 587.089 73.5867 587.009 75.4H595.969C596.049 74.92 596.089 74.4667 596.089 74.04C596.089 72.5467 595.662 71.4533 594.809 70.76C593.982 70.04 592.982 69.68 591.809 69.68ZM615.445 87L610.525 79.28L605.805 87H602.325L608.885 76.76L602.805 67.2H606.445L610.805 74.12L615.085 67.2H618.525L612.485 76.68L619.045 87H615.445ZM631.401 87.4C629.908 87.4 628.361 87.0933 626.761 86.48V95.52H623.481V67.2H626.601V70C627.828 68.8267 628.948 68 629.961 67.52C630.974 67.04 632.014 66.8 633.081 66.8C635.188 66.8 636.801 67.6 637.921 69.2C639.068 70.8 639.641 73.0533 639.641 75.96V78.28C639.641 81.0533 638.934 83.2667 637.521 84.92C636.134 86.5733 634.094 87.4 631.401 87.4ZM632.281 69.88C631.508 69.88 630.708 70.08 629.881 70.48C629.054 70.88 628.014 71.6933 626.761 72.92V83.48C627.534 83.8267 628.281 84.08 629.001 84.24C629.721 84.3733 630.428 84.44 631.121 84.44C632.934 84.44 634.241 83.8933 635.041 82.8C635.841 81.68 636.241 80.1733 636.241 78.28V75.96C636.241 73.88 635.908 72.3467 635.241 71.36C634.601 70.3733 633.614 69.88 632.281 69.88ZM660.068 85.84C658.868 86.4267 657.668 86.8267 656.468 87.04C655.268 87.28 654.161 87.4 653.148 87.4C650.294 87.4 648.161 86.5867 646.748 84.96C645.361 83.3333 644.668 81.1067 644.668 78.28V75.88C644.668 73.1333 645.361 70.9333 646.748 69.28C648.161 67.6267 650.148 66.8 652.708 66.8C654.068 66.8 655.308 67.08 656.428 67.64C657.574 68.1733 658.481 69 659.148 70.12C659.841 71.2133 660.188 72.6267 660.188 74.36C660.188 75.48 660.028 76.76 659.708 78.2H647.908V78.28C647.908 80.3067 648.321 81.84 649.148 82.88C650.001 83.92 651.361 84.44 653.228 84.44C654.081 84.44 655.014 84.3333 656.028 84.12C657.068 83.9067 658.081 83.5733 659.068 83.12L660.068 85.84ZM652.708 69.68C651.161 69.68 649.988 70.1867 649.188 71.2C648.414 72.1867 647.988 73.5867 647.908 75.4H656.868C656.948 74.92 656.988 74.4667 656.988 74.04C656.988 72.5467 656.561 71.4533 655.708 70.76C654.881 70.04 653.881 69.68 652.708 69.68ZM676.264 70.08C675.064 70.08 673.89 70.2933 672.744 70.72C671.624 71.1467 670.424 71.96 669.144 73.16V87H665.864V67.2H668.984V70.4C670.344 69.0667 671.584 68.1333 672.704 67.6C673.85 67.0667 675.037 66.8 676.264 66.8V70.08ZM684.031 62.36H680.351V58.68H684.031V62.36ZM683.831 87H680.551V67.2H683.831V87ZM705.263 85.84C704.063 86.4267 702.863 86.8267 701.663 87.04C700.463 87.28 699.356 87.4 698.343 87.4C695.489 87.4 693.356 86.5867 691.943 84.96C690.556 83.3333 689.863 81.1067 689.863 78.28V75.88C689.863 73.1333 690.556 70.9333 691.943 69.28C693.356 67.6267 695.343 66.8 697.903 66.8C699.263 66.8 700.503 67.08 701.623 67.64C702.769 68.1733 703.676 69 704.343 70.12C705.036 71.2133 705.383 72.6267 705.383 74.36C705.383 75.48 705.223 76.76 704.903 78.2H693.103V78.28C693.103 80.3067 693.516 81.84 694.343 82.88C695.196 83.92 696.556 84.44 698.423 84.44C699.276 84.44 700.209 84.3333 701.223 84.12C702.263 83.9067 703.276 83.5733 704.263 83.12L705.263 85.84ZM697.903 69.68C696.356 69.68 695.183 70.1867 694.383 71.2C693.609 72.1867 693.183 73.5867 693.103 75.4H702.063C702.143 74.92 702.183 74.4667 702.183 74.04C702.183 72.5467 701.756 71.4533 700.903 70.76C700.076 70.04 699.076 69.68 697.903 69.68ZM720.579 69.88C719.832 69.88 718.952 70.0667 717.939 70.44C716.952 70.8133 715.752 71.5733 714.339 72.72V87H711.059V67.2H714.179V69.96C715.592 68.76 716.872 67.9333 718.019 67.48C719.192 67.0267 720.312 66.8 721.379 66.8C723.219 66.8 724.619 67.3867 725.579 68.56C726.566 69.7067 727.059 71.3467 727.059 73.48V87H723.779V73.96C723.779 71.24 722.712 69.88 720.579 69.88ZM736.231 75.92V78.28C736.231 80.3067 736.604 81.84 737.351 82.88C738.097 83.8933 739.284 84.4 740.911 84.4C742.511 84.4 744.231 83.9867 746.071 83.16L747.071 85.92C744.884 86.9067 742.764 87.4 740.711 87.4C738.151 87.4 736.204 86.5867 734.871 84.96C733.537 83.3333 732.871 81.1067 732.871 78.28V75.92C732.871 73.0933 733.537 70.8667 734.871 69.24C736.204 67.6133 738.151 66.8 740.711 66.8C741.671 66.8 742.657 66.9333 743.671 67.2C744.711 67.44 745.751 67.7867 746.791 68.24L745.791 71.04C744.911 70.6667 744.057 70.3733 743.231 70.16C742.431 69.9467 741.657 69.84 740.911 69.84C739.284 69.84 738.097 70.36 737.351 71.4C736.604 72.4133 736.231 73.92 736.231 75.92ZM766.161 85.84C764.961 86.4267 763.761 86.8267 762.561 87.04C761.361 87.28 760.255 87.4 759.241 87.4C756.388 87.4 754.255 86.5867 752.841 84.96C751.455 83.3333 750.761 81.1067 750.761 78.28V75.88C750.761 73.1333 751.455 70.9333 752.841 69.28C754.255 67.6267 756.241 66.8 758.801 66.8C760.161 66.8 761.401 67.08 762.521 67.64C763.668 68.1733 764.575 69 765.241 70.12C765.935 71.2133 766.281 72.6267 766.281 74.36C766.281 75.48 766.121 76.76 765.801 78.2H754.001V78.28C754.001 80.3067 754.415 81.84 755.241 82.88C756.095 83.92 757.455 84.44 759.321 84.44C760.175 84.44 761.108 84.3333 762.121 84.12C763.161 83.9067 764.175 83.5733 765.161 83.12L766.161 85.84ZM758.801 69.68C757.255 69.68 756.081 70.1867 755.281 71.2C754.508 72.1867 754.081 73.5867 754.001 75.4H762.961C763.041 74.92 763.081 74.4667 763.081 74.04C763.081 72.5467 762.655 71.4533 761.801 70.76C760.975 70.04 759.975 69.68 758.801 69.68ZM775.358 79.72H772.718L772.398 69.8V59.8H775.678V69.8L775.358 79.72ZM775.878 87H772.198V83.36H775.878V87Z" fill="white"/>
</svg>
