<svg width="287" height="44" viewBox="0 0 287 44" fill="none" xmlns="http://www.w3.org/2000/svg">
<path d="M17.208 32.084V35H3.816V10.52H6.948V32.084H17.208ZM35.1394 24.992V27.152C35.1394 29.696 34.4794 31.7 33.1594 33.164C31.8634 34.628 30.0034 35.36 27.5794 35.36C25.1794 35.36 23.3194 34.628 21.9994 33.164C20.6794 31.7 20.0194 29.696 20.0194 27.152V24.992C20.0194 22.496 20.6674 20.516 21.9634 19.052C23.2834 17.564 25.1554 16.82 27.5794 16.82C30.0034 16.82 31.8634 17.564 33.1594 19.052C34.4794 20.516 35.1394 22.496 35.1394 24.992ZM32.0794 24.992C32.0794 23.288 31.6954 21.956 30.9274 20.996C30.1594 20.012 29.0434 19.52 27.5794 19.52C26.1394 19.52 25.0234 20.012 24.2314 20.996C23.4634 21.956 23.0794 23.288 23.0794 24.992V27.152C23.0794 28.928 23.4634 30.296 24.2314 31.256C25.0234 32.216 26.1394 32.696 27.5794 32.696C29.0434 32.696 30.1594 32.216 30.9274 31.256C31.6954 30.296 32.0794 28.928 32.0794 27.152V24.992ZM54.7599 37.232C54.7599 38.984 54.0399 40.388 52.5999 41.444C51.1839 42.5 49.2279 43.028 46.7319 43.028C45.4839 43.028 44.1759 42.86 42.8079 42.524C41.4639 42.188 40.1919 41.648 38.9919 40.904L39.9999 38.6C41.1999 39.272 42.3519 39.74 43.4559 40.004C44.5839 40.292 45.6759 40.436 46.7319 40.436C48.3639 40.436 49.6239 40.172 50.5119 39.644C51.3999 39.116 51.8439 38.408 51.8439 37.52C51.8439 36.872 51.6279 36.368 51.1959 36.008C50.7639 35.672 50.0679 35.504 49.1079 35.504H44.9679C43.4079 35.504 42.2799 35.132 41.5839 34.388C40.8879 33.644 40.5399 32.828 40.5399 31.94C40.5399 31.316 40.6839 30.704 40.9719 30.104C41.2599 29.48 41.6679 28.868 42.1959 28.268C41.3559 27.764 40.6839 27.08 40.1799 26.216C39.6759 25.328 39.4239 24.26 39.4239 23.012C39.4239 21.644 39.7119 20.504 40.2879 19.592C40.8879 18.68 41.6799 17.996 42.6639 17.54C43.6479 17.06 44.7519 16.82 45.9759 16.82H46.5879C47.4279 16.82 48.1959 16.94 48.8919 17.18H55.2999V19.808L51.4119 19.268C51.9159 19.7 52.3239 20.24 52.6359 20.888C52.9479 21.512 53.1039 22.28 53.1039 23.192C53.1039 24.488 52.8039 25.58 52.2039 26.468C51.6279 27.356 50.8479 28.04 49.8639 28.52C48.8799 28.976 47.7879 29.204 46.5879 29.204H45.9759C45.6639 29.204 45.3639 29.192 45.0759 29.168C44.7879 29.12 44.4999 29.072 44.2119 29.024C43.5159 29.792 43.1679 30.548 43.1679 31.292C43.1679 32.252 43.8399 32.732 45.1839 32.732H49.2159C50.9439 32.732 52.2999 33.116 53.2839 33.884C54.2679 34.652 54.7599 35.768 54.7599 37.232ZM46.5879 26.648C47.5239 26.648 48.3519 26.348 49.0719 25.748C49.7919 25.148 50.1519 24.236 50.1519 23.012C50.1519 21.812 49.7919 20.912 49.0719 20.312C48.3519 19.688 47.5239 19.376 46.5879 19.376H45.9759C45.0159 19.376 44.1759 19.688 43.4559 20.312C42.7359 20.912 42.3759 21.812 42.3759 23.012C42.3759 24.236 42.7359 25.148 43.4559 25.748C44.1759 26.348 45.0159 26.648 45.9759 26.648H46.5879ZM82.3829 10.52L74.8949 25.208V35H71.7629V25.208L64.2389 10.52H67.6229L73.4909 22.112L79.1429 10.52H82.3829ZM98.2448 24.992V27.152C98.2448 29.696 97.5848 31.7 96.2648 33.164C94.9688 34.628 93.1088 35.36 90.6848 35.36C88.2848 35.36 86.4248 34.628 85.1048 33.164C83.7848 31.7 83.1248 29.696 83.1248 27.152V24.992C83.1248 22.496 83.7728 20.516 85.0688 19.052C86.3888 17.564 88.2608 16.82 90.6848 16.82C93.1088 16.82 94.9688 17.564 96.2648 19.052C97.5848 20.516 98.2448 22.496 98.2448 24.992ZM95.1848 24.992C95.1848 23.288 94.8008 21.956 94.0328 20.996C93.2648 20.012 92.1488 19.52 90.6848 19.52C89.2448 19.52 88.1288 20.012 87.3368 20.996C86.5688 21.956 86.1848 23.288 86.1848 24.992V27.152C86.1848 28.928 86.5688 30.296 87.3368 31.256C88.1288 32.216 89.2448 32.696 90.6848 32.696C92.1488 32.696 93.2648 32.216 94.0328 31.256C94.8008 30.296 95.1848 28.928 95.1848 27.152V24.992ZM114.589 35V32.48C113.341 33.56 112.225 34.316 111.241 34.748C110.257 35.156 109.273 35.36 108.289 35.36C106.705 35.36 105.493 34.844 104.653 33.812C103.813 32.756 103.393 31.28 103.393 29.384V17.18H106.345V28.952C106.345 30.2 106.561 31.124 106.993 31.724C107.449 32.3 108.121 32.588 109.009 32.588C109.681 32.588 110.437 32.42 111.277 32.084C112.117 31.748 113.161 31.076 114.409 30.068V17.18H117.361V35H114.589ZM133.079 19.772C131.999 19.772 130.943 19.964 129.911 20.348C128.903 20.732 127.823 21.464 126.671 22.544V35H123.719V17.18H126.527V20.06C127.751 18.86 128.867 18.02 129.875 17.54C130.907 17.06 131.975 16.82 133.079 16.82V19.772ZM153.345 19.592C152.673 19.592 151.881 19.76 150.969 20.096C150.081 20.432 149.001 21.116 147.729 22.148V35H144.777V17.18H147.585V19.664C148.857 18.584 150.009 17.84 151.041 17.432C152.097 17.024 153.105 16.82 154.065 16.82C155.721 16.82 156.981 17.348 157.845 18.404C158.733 19.436 159.177 20.912 159.177 22.832V35H156.225V23.264C156.225 20.816 155.265 19.592 153.345 19.592ZM178.268 33.956C177.188 34.484 176.108 34.844 175.028 35.036C173.948 35.252 172.952 35.36 172.04 35.36C169.472 35.36 167.552 34.628 166.28 33.164C165.032 31.7 164.408 29.696 164.408 27.152V24.992C164.408 22.52 165.032 20.54 166.28 19.052C167.552 17.564 169.34 16.82 171.644 16.82C172.868 16.82 173.984 17.072 174.992 17.576C176.024 18.056 176.84 18.8 177.44 19.808C178.064 20.792 178.376 22.064 178.376 23.624C178.376 24.632 178.232 25.784 177.944 27.08H167.324V27.152C167.324 28.976 167.696 30.356 168.44 31.292C169.208 32.228 170.432 32.696 172.112 32.696C172.88 32.696 173.72 32.6 174.632 32.408C175.568 32.216 176.48 31.916 177.368 31.508L178.268 33.956ZM171.644 19.412C170.252 19.412 169.196 19.868 168.476 20.78C167.78 21.668 167.396 22.928 167.324 24.56H175.388C175.46 24.128 175.496 23.72 175.496 23.336C175.496 21.992 175.112 21.008 174.344 20.384C173.6 19.736 172.7 19.412 171.644 19.412ZM192.916 35L188.488 28.052L184.24 35H181.108L187.012 25.784L181.54 17.18H184.816L188.74 23.408L192.592 17.18H195.688L190.252 25.712L196.156 35H192.916ZM209.94 34.352C208.596 35.024 207.168 35.36 205.656 35.36C204.36 35.36 203.34 35.096 202.596 34.568C201.876 34.04 201.36 33.332 201.048 32.444C200.76 31.556 200.616 30.572 200.616 29.492V19.772H197.52V17.18H200.616V12.212H203.568V17.18H209.4V19.772H203.568V29.384C203.568 30.632 203.772 31.496 204.18 31.976C204.612 32.432 205.272 32.66 206.16 32.66C206.592 32.66 207.036 32.612 207.492 32.516C207.972 32.396 208.488 32.204 209.04 31.94L209.94 34.352ZM224.436 25.46C224.436 27.716 224.88 29.456 225.768 30.68C226.68 31.88 228.072 32.48 229.944 32.48C230.76 32.48 231.564 32.384 232.356 32.192C233.148 32 234.096 31.664 235.2 31.184L236.244 33.848C235.068 34.376 233.952 34.76 232.896 35C231.84 35.24 230.82 35.36 229.836 35.36C227.004 35.36 224.856 34.472 223.392 32.696C221.928 30.92 221.196 28.508 221.196 25.46V20.06C221.196 17.012 221.928 14.6 223.392 12.824C224.856 11.048 227.004 10.16 229.836 10.16C230.82 10.16 231.84 10.28 232.896 10.52C233.976 10.76 235.068 11.144 236.172 11.672L235.164 14.372C233.22 13.508 231.48 13.076 229.944 13.076C228.072 13.076 226.68 13.676 225.768 14.876C224.88 16.076 224.436 17.804 224.436 20.06V25.46ZM250.855 35V32.48C249.607 33.56 248.491 34.316 247.507 34.748C246.523 35.156 245.539 35.36 244.555 35.36C242.971 35.36 241.759 34.844 240.919 33.812C240.079 32.756 239.659 31.28 239.659 29.384V17.18H242.611V28.952C242.611 30.2 242.827 31.124 243.259 31.724C243.715 32.3 244.387 32.588 245.275 32.588C245.947 32.588 246.703 32.42 247.543 32.084C248.383 31.748 249.427 31.076 250.675 30.068V17.18H253.627V35H250.855ZM267.112 35.36C265.768 35.36 264.376 35.084 262.936 34.532V42.668H259.984V17.18H262.792V19.7C263.896 18.644 264.904 17.9 265.816 17.468C266.728 17.036 267.664 16.82 268.624 16.82C270.52 16.82 271.972 17.54 272.98 18.98C274.012 20.42 274.528 22.448 274.528 25.064V27.152C274.528 29.648 273.892 31.64 272.62 33.128C271.372 34.616 269.536 35.36 267.112 35.36ZM267.904 19.592C267.208 19.592 266.488 19.772 265.744 20.132C265 20.492 264.064 21.224 262.936 22.328V31.832C263.632 32.144 264.304 32.372 264.952 32.516C265.6 32.636 266.236 32.696 266.86 32.696C268.492 32.696 269.668 32.204 270.388 31.22C271.108 30.212 271.468 28.856 271.468 27.152V25.064C271.468 23.192 271.168 21.812 270.568 20.924C269.992 20.036 269.104 19.592 267.904 19.592ZM283.048 28.448H280.672L280.384 19.52V10.52H283.336V19.52L283.048 28.448ZM283.516 35H280.204V31.724H283.516V35Z" fill="white"/>
</svg>
