<svg width="287" height="36" viewBox="0 0 287 36" fill="none" xmlns="http://www.w3.org/2000/svg">
<path d="M18.504 10.52L11.016 25.208V35H7.884V25.208L0.36 10.52H3.744L9.612 22.112L15.264 10.52H18.504ZM34.3659 24.992V27.152C34.3659 29.696 33.7059 31.7 32.3859 33.164C31.0899 34.628 29.2299 35.36 26.8059 35.36C24.4059 35.36 22.5459 34.628 21.2259 33.164C19.9059 31.7 19.2459 29.696 19.2459 27.152V24.992C19.2459 22.496 19.8939 20.516 21.1899 19.052C22.5099 17.564 24.3819 16.82 26.8059 16.82C29.2299 16.82 31.0899 17.564 32.3859 19.052C33.7059 20.516 34.3659 22.496 34.3659 24.992ZM31.3059 24.992C31.3059 23.288 30.9219 21.956 30.1539 20.996C29.3859 20.012 28.2699 19.52 26.8059 19.52C25.3659 19.52 24.2499 20.012 23.4579 20.996C22.6899 21.956 22.3059 23.288 22.3059 24.992V27.152C22.3059 28.928 22.6899 30.296 23.4579 31.256C24.2499 32.216 25.3659 32.696 26.8059 32.696C28.2699 32.696 29.3859 32.216 30.1539 31.256C30.9219 30.296 31.3059 28.928 31.3059 27.152V24.992ZM50.7105 35V32.48C49.4625 33.56 48.3465 34.316 47.3625 34.748C46.3785 35.156 45.3945 35.36 44.4105 35.36C42.8265 35.36 41.6145 34.844 40.7745 33.812C39.9345 32.756 39.5145 31.28 39.5145 29.384V17.18H42.4665V28.952C42.4665 30.2 42.6825 31.124 43.1145 31.724C43.5705 32.3 44.2425 32.588 45.1305 32.588C45.8025 32.588 46.5585 32.42 47.3985 32.084C48.2385 31.748 49.2825 31.076 50.5305 30.068V17.18H53.4825V35H50.7105ZM69.1999 19.772C68.1199 19.772 67.0639 19.964 66.0319 20.348C65.0239 20.732 63.9439 21.464 62.7919 22.544V35H59.8399V17.18H62.6479V20.06C63.8719 18.86 64.9879 18.02 65.9959 17.54C67.0279 17.06 68.0959 16.82 69.1999 16.82V19.772ZM85.2185 10.52L92.6705 28.664L100.158 10.52H103.722V35H100.662V24.524L101.058 15.092L94.0385 32.12H91.0865L84.2105 15.02L84.6065 24.524V35H81.5465V10.52H85.2185ZM123.778 35.18C122.674 35.18 121.786 34.928 121.114 34.424C120.466 33.92 120.01 33.296 119.746 32.552C118.57 33.584 117.502 34.316 116.542 34.748C115.582 35.156 114.622 35.36 113.662 35.36C112.102 35.36 110.95 34.856 110.206 33.848C109.462 32.84 109.09 31.604 109.09 30.14C109.09 29.156 109.27 28.28 109.63 27.512C109.99 26.744 110.602 26.144 111.466 25.712C112.33 25.256 113.494 25.028 114.958 25.028C115.606 25.028 116.314 25.076 117.082 25.172C117.85 25.244 118.63 25.34 119.422 25.46V23.048C119.422 21.704 119.122 20.792 118.522 20.312C117.946 19.808 117.094 19.556 115.966 19.556C114.43 19.556 112.714 19.976 110.818 20.816L109.882 18.368C110.986 17.864 112.042 17.48 113.05 17.216C114.058 16.952 115.078 16.82 116.11 16.82C117.79 16.82 119.074 17.096 119.962 17.648C120.85 18.2 121.462 18.932 121.798 19.844C122.134 20.756 122.302 21.752 122.302 22.832V30.536C122.302 31.088 122.41 31.556 122.626 31.94C122.842 32.3 123.274 32.48 123.922 32.48H124.318V35.18H123.778ZM112.006 30.104C112.006 30.92 112.198 31.58 112.582 32.084C112.966 32.588 113.518 32.84 114.238 32.84C114.862 32.84 115.582 32.66 116.398 32.3C117.214 31.916 118.222 31.16 119.422 30.032V27.764C117.79 27.5 116.35 27.368 115.102 27.368C113.998 27.368 113.206 27.596 112.726 28.052C112.246 28.508 112.006 29.192 112.006 30.104ZM130.588 25.028V27.152C130.588 28.976 130.924 30.356 131.596 31.292C132.268 32.204 133.336 32.66 134.8 32.66C136.24 32.66 137.788 32.288 139.444 31.544L140.344 34.028C138.376 34.916 136.468 35.36 134.62 35.36C132.316 35.36 130.564 34.628 129.364 33.164C128.164 31.7 127.564 29.696 127.564 27.152V25.028C127.564 22.484 128.164 20.48 129.364 19.016C130.564 17.552 132.316 16.82 134.62 16.82C135.484 16.82 136.372 16.94 137.284 17.18C138.22 17.396 139.156 17.708 140.092 18.116L139.192 20.636C138.4 20.3 137.632 20.036 136.888 19.844C136.168 19.652 135.472 19.556 134.8 19.556C133.336 19.556 132.268 20.024 131.596 20.96C130.924 21.872 130.588 23.228 130.588 25.028ZM153.24 19.592C152.568 19.592 151.776 19.76 150.864 20.096C149.976 20.432 148.896 21.116 147.624 22.148V35H144.672V8.36H147.624V19.556C148.872 18.5 150 17.78 151.008 17.396C152.016 17.012 153 16.82 153.96 16.82C155.616 16.82 156.876 17.348 157.74 18.404C158.628 19.436 159.072 20.912 159.072 22.832V35H156.12V23.264C156.12 20.816 155.16 19.592 153.24 19.592ZM168.37 12.824H165.058V9.512H168.37V12.824ZM168.19 35H165.238V17.18H168.19V35ZM183.123 19.592C182.451 19.592 181.659 19.76 180.747 20.096C179.859 20.432 178.779 21.116 177.507 22.148V35H174.555V17.18H177.363V19.664C178.635 18.584 179.787 17.84 180.819 17.432C181.875 17.024 182.883 16.82 183.843 16.82C185.499 16.82 186.759 17.348 187.623 18.404C188.511 19.436 188.955 20.912 188.955 22.832V35H186.003V23.264C186.003 20.816 185.043 19.592 183.123 19.592ZM208.045 33.956C206.965 34.484 205.885 34.844 204.805 35.036C203.725 35.252 202.729 35.36 201.817 35.36C199.249 35.36 197.329 34.628 196.057 33.164C194.809 31.7 194.185 29.696 194.185 27.152V24.992C194.185 22.52 194.809 20.54 196.057 19.052C197.329 17.564 199.117 16.82 201.421 16.82C202.645 16.82 203.761 17.072 204.769 17.576C205.801 18.056 206.617 18.8 207.217 19.808C207.841 20.792 208.153 22.064 208.153 23.624C208.153 24.632 208.009 25.784 207.721 27.08H197.101V27.152C197.101 28.976 197.473 30.356 198.217 31.292C198.985 32.228 200.209 32.696 201.889 32.696C202.657 32.696 203.497 32.6 204.409 32.408C205.345 32.216 206.257 31.916 207.145 31.508L208.045 33.956ZM201.421 19.412C200.029 19.412 198.973 19.868 198.253 20.78C197.557 21.668 197.173 22.928 197.101 24.56H205.165C205.237 24.128 205.273 23.72 205.273 23.336C205.273 21.992 204.889 21.008 204.121 20.384C203.377 19.736 202.477 19.412 201.421 19.412ZM217.618 32.732C220.018 32.732 221.218 31.916 221.218 30.284C221.218 29.588 221.002 29.036 220.57 28.628C220.138 28.22 219.346 27.872 218.194 27.584L216.214 27.08C214.75 26.72 213.658 26.096 212.938 25.208C212.218 24.296 211.858 23.216 211.858 21.968C211.858 21.056 212.062 20.216 212.47 19.448C212.878 18.656 213.526 18.02 214.414 17.54C215.302 17.06 216.454 16.82 217.87 16.82C218.782 16.82 219.706 16.928 220.642 17.144C221.602 17.336 222.574 17.672 223.558 18.152L222.622 20.636C220.87 19.844 219.286 19.448 217.87 19.448C215.782 19.448 214.738 20.228 214.738 21.788C214.738 22.388 214.93 22.904 215.314 23.336C215.698 23.768 216.418 24.116 217.474 24.38L219.454 24.884C221.038 25.268 222.202 25.892 222.946 26.756C223.69 27.62 224.062 28.736 224.062 30.104C224.062 31.088 223.846 31.988 223.414 32.804C223.006 33.596 222.334 34.22 221.398 34.676C220.486 35.132 219.25 35.36 217.69 35.36C216.658 35.36 215.626 35.252 214.594 35.036C213.586 34.82 212.542 34.472 211.462 33.992L212.254 31.544C213.286 31.952 214.222 32.252 215.062 32.444C215.902 32.636 216.754 32.732 217.618 32.732Z" fill="white"/>
</svg>
