<svg width="201" height="45" viewBox="0 0 201 45" fill="none" xmlns="http://www.w3.org/2000/svg">
<path d="M19.2573 17.9948C19.3198 18.1868 19.5128 18.3181 19.7325 18.3186L26.4797 18.332L33.227 18.3455C33.4467 18.3458 33.6402 18.2153 33.7034 18.0236C34.1725 16.5996 36.0211 10.7416 36.2943 6.06892V6.06853C36.2985 3.9681 33.9932 2.26081 31.1453 2.25514L21.8779 2.23674C19.0301 2.23106 16.718 3.92925 16.7139 6.02967V6.02997C16.9685 10.7037 18.7939 16.5691 19.2573 17.9948Z" fill="#BF6C0D"/>
<path d="M31.1453 2.25514L21.8779 2.23674C19.03 2.23106 16.718 3.92925 16.7139 6.02967V6.02997C16.7245 6.22629 16.7382 6.42486 16.7543 6.625C16.7551 6.63469 16.7558 6.64428 16.7565 6.65397C16.7725 6.8497 16.7909 7.0471 16.8114 7.24567C16.8127 7.2581 16.814 7.27063 16.8154 7.28315C16.8362 7.48202 16.8592 7.68196 16.8844 7.88278C16.8855 7.89238 16.8868 7.90187 16.888 7.91146C17.4228 12.1614 18.8546 16.7554 19.2574 17.9948C19.3199 18.1868 19.5129 18.3182 19.7326 18.3186L26.4798 18.332L33.2271 18.3455C33.2634 18.3455 33.2986 18.3408 33.333 18.334L32.3518 18.332L25.6046 18.3186C25.3849 18.3182 25.1919 18.1868 25.1294 17.9948C24.8121 17.0182 23.8556 13.9585 23.2026 10.6256C22.9899 9.53948 23.8259 8.53008 24.9326 8.53008H36.0324C36.1556 7.6938 36.2478 6.86419 36.2944 6.06882V6.06853C36.2984 3.9681 33.9932 2.26072 31.1453 2.25514Z" fill="#A56021"/>
<path d="M32.4176 17.2502C32.3424 17.2502 32.2659 17.2356 32.1922 17.2049C31.8928 17.0802 31.7512 16.7364 31.8759 16.437C33.4517 12.6534 33.6673 9.76486 33.6693 9.73608C33.6917 9.41254 33.9732 9.16836 34.2957 9.19097C34.6193 9.21338 34.8633 9.49386 34.8409 9.81741C34.8322 9.94258 34.6093 12.9288 32.96 16.8886C32.866 17.1142 32.6476 17.2502 32.4176 17.2502Z" fill="#E58D23"/>
<path d="M14.4072 44.6818H1.76161C0.78871 44.6818 0 43.8931 0 42.9202V1.76161C0 0.78871 0.78871 0 1.76161 0H14.4072V44.6818Z" fill="#8C4C17"/>
<path d="M35.243 6.57265C35.8375 6.57265 36.3195 6.09065 36.3195 5.49611V1.76161C36.3195 0.78871 35.5308 0 34.5579 0H3.52332C2.55043 0 1.76172 0.78871 1.76172 1.76161V2.92035V6.57265V35.8233V42.9202C1.76172 43.8931 2.55043 44.6818 3.52332 44.6818H16.1689H34.5579C35.5308 44.6818 36.3195 43.8931 36.3195 42.9202V37.5849C36.3195 36.612 35.5308 35.8233 34.5579 35.8233H17.0497C16.5632 35.8233 16.1689 35.429 16.1689 34.9425V7.45345C16.1689 6.96696 16.5632 6.57265 17.0497 6.57265H35.243Z" fill="#E58D23"/>
<path d="M38.4035 22.925H36.3356L38.3671 28.598C38.3906 28.6636 38.3955 28.7339 38.3808 28.8038C38.3436 28.9819 38.1721 29.1002 37.9901 29.1002H31.6397V22.925H29.6929V31.047H38.0136C39.2963 31.047 40.336 30.0072 40.336 28.7247C40.336 28.4578 40.29 28.1929 40.2001 27.9417L38.4035 22.925Z" fill="#BF6C0D"/>
<path d="M41.4725 29.1161L39.1096 22.5175C38.779 21.5942 37.9039 20.9781 36.9232 20.9781H30.9653V32.2215H39.2861C40.5687 32.2215 41.6085 31.1817 41.6085 29.8992C41.6085 29.6322 41.5625 29.3673 41.4725 29.1161ZM39.6533 29.9782C39.6161 30.1563 39.4445 30.2746 39.2626 30.2746H32.9122V22.925H36.9231C37.0812 22.925 37.2232 23.0249 37.2766 23.1738L39.6395 29.7724C39.663 29.838 39.6679 29.9083 39.6533 29.9782Z" fill="#DB9C2E"/>
<path d="M41.4725 29.1161L39.1096 22.5175C38.779 21.5942 37.9039 20.9781 36.9232 20.9781H30.9653V32.2215H39.2861C40.5687 32.2215 41.6085 31.1817 41.6085 29.8992C41.6085 29.6322 41.5625 29.3673 41.4725 29.1161ZM39.6533 29.9782C39.6161 30.1563 39.4445 30.2746 39.2626 30.2746H32.9122V22.925H36.9231C37.0812 22.925 37.2232 23.0249 37.2766 23.1738L39.6395 29.7724C39.663 29.838 39.6679 29.9083 39.6533 29.9782Z" fill="#DB9C2E"/>
<path d="M41.4725 29.1161L39.1096 22.5175C38.779 21.5942 37.9039 20.9781 36.9232 20.9781H30.9653V32.2215H39.2861C40.5687 32.2215 41.6085 31.1817 41.6085 29.8992C41.6085 29.6322 41.5625 29.3673 41.4725 29.1161ZM39.6533 29.9782C39.6161 30.1563 39.4445 30.2746 39.2626 30.2746H32.9122V22.925H36.9231C37.0812 22.925 37.2232 23.0249 37.2766 23.1738L39.6395 29.7724C39.663 29.838 39.6679 29.9083 39.6533 29.9782Z" fill="#F9BB32"/>
<path d="M38.167 30.2746H32.9123V22.925H36.9232C36.9367 22.925 36.9499 22.9267 36.9631 22.9281C36.3952 21.7315 35.8692 20.9783 35.8691 20.978H30.9653V32.2214H37.4604C37.7983 31.5841 38.0258 30.9305 38.167 30.2746Z" fill="#DB9C2E"/>
<path d="M33.6178 20.978H33.6097H26.4019H19.1941H19.1861C19.1861 20.978 12.9348 29.9195 20.2624 35.1833C20.7653 35.5934 21.407 35.8395 22.1064 35.8395H30.6974C31.3969 35.8395 32.0386 35.5934 32.5414 35.1833C39.869 29.9195 33.6178 20.978 33.6178 20.978Z" fill="#FFEACF"/>
<path d="M24.6666 20.9781H19.1941H19.1861C19.1861 20.9781 12.9348 29.9196 20.2624 35.1834C20.7653 35.5934 21.407 35.8396 22.1064 35.8396H27.587C26.8875 35.8396 26.2458 35.5934 25.743 35.1834C18.4154 29.9195 24.6666 20.9781 24.6666 20.9781Z" fill="#FFD59A"/>
<path d="M22.1068 34.3793C21.6774 34.3793 21.3688 34.2012 21.1856 34.0518L21.151 34.0235L21.1147 33.9973C18.5799 32.1765 17.6872 29.7235 18.3857 26.4984C18.7632 24.7549 19.5312 23.2455 19.9977 22.4383H32.8069C33.2728 23.2447 34.0412 24.7545 34.4188 26.4984C35.1173 29.7236 34.2247 32.1765 31.6898 33.9973L31.6535 34.0235L31.6188 34.0518C31.4356 34.2012 31.1271 34.3793 30.6976 34.3793H22.1068Z" fill="#A56021"/>
<path d="M33.3567 20.978H19.4479C18.9465 20.978 18.54 20.5715 18.54 20.0701V20.0199C18.54 19.5186 18.9465 19.1121 19.4479 19.1121H33.3567C33.8581 19.1121 34.2645 19.5186 34.2645 20.0199V20.0701C34.2645 20.5716 33.8581 20.978 33.3567 20.978Z" fill="#F9BB32"/>
<path d="M25.0657 34.0235L25.0294 33.9973C22.4946 32.1765 21.6019 29.7236 22.3004 26.4983C22.6779 24.7549 23.4459 23.2455 23.9124 22.4382H19.9977C19.5313 23.2455 18.7632 24.7549 18.3857 26.4983C17.6872 29.7235 18.5798 32.1764 21.1147 33.9973L21.151 34.0235L21.1857 34.0518C21.3689 34.2012 21.6774 34.3793 22.1068 34.3793H26.0215C25.5921 34.3793 25.2835 34.2012 25.1003 34.0518L25.0657 34.0235Z" fill="#8C4C17"/>
<path d="M23.4334 20.8532V20.803C23.4334 20.3016 23.8398 19.8952 24.3412 19.8952H34.2549C34.194 19.453 33.8156 19.1122 33.3567 19.1122H19.4479C18.9465 19.1122 18.54 19.5187 18.54 20.0201V20.0703C18.54 20.5716 18.9465 20.9781 19.4479 20.9781H23.443C23.4373 20.9371 23.4334 20.8956 23.4334 20.8532Z" fill="#DB9C2E"/>
<path d="M29.4163 33.8567C29.1698 33.8567 28.9404 33.7003 28.8589 33.4535C28.7572 33.1456 28.9244 32.8135 29.2322 32.7118C30.6387 32.2473 31.6054 31.46 32.1056 30.3716C33.0848 28.2415 32.0307 25.6258 32.02 25.5997C31.8967 25.2997 32.0398 24.9566 32.3398 24.8333C32.6399 24.71 32.9829 24.8532 33.1062 25.1531C33.1581 25.2793 34.3629 28.2728 33.1728 30.8621C32.5308 32.2586 31.329 33.2561 29.6006 33.827C29.5394 33.8471 29.4774 33.8567 29.4163 33.8567Z" fill="#BF6C0D"/>
<path d="M25.0359 31.6042C25.8466 31.6042 26.5039 30.9469 26.5039 30.1362C26.5039 29.3254 25.8466 28.6682 25.0359 28.6682C24.2251 28.6682 23.5679 29.3254 23.5679 30.1362C23.5679 30.9469 24.2251 31.6042 25.0359 31.6042Z" fill="#8C4C17"/>
<path d="M8.03294 43.3116C7.81832 43.3116 7.63677 43.1421 7.63413 42.9281C7.63413 42.9254 7.63374 42.9229 7.63374 42.9202V35.8233V6.57265V2.92035V1.76161C7.63374 0.78871 8.42245 0 9.39535 0H3.52333C2.55043 0 1.76172 0.78871 1.76172 1.76161V2.92035V6.57265V35.8233V42.9202C1.76172 43.8323 2.45491 44.5824 3.34325 44.6727C3.40246 44.6786 3.46255 44.6818 3.52333 44.6818H9.39535H34.5579C35.3961 44.6818 36.0961 44.0958 36.2744 43.3116H8.03294Z" fill="#BF6C0D"/>
<path d="M35.0154 5.24448C34.9609 5.24448 34.9054 5.23685 34.8504 5.2208C34.5391 5.12979 34.3606 4.80369 34.4516 4.49238C34.6476 3.82169 34.6113 3.30828 34.3436 2.96653C33.8887 2.3854 32.7918 2.29663 32.4431 2.31131C32.1182 2.32511 31.8453 2.0734 31.8316 1.74946C31.8179 1.42542 32.0695 1.15169 32.3934 1.13799C32.4729 1.13456 34.3496 1.06918 35.2683 2.24241C35.7826 2.8993 35.8871 3.76708 35.5787 4.8219C35.5039 5.07821 35.2696 5.24448 35.0154 5.24448Z" fill="#FFA730"/>
<path d="M34.8699 40.9376C34.8659 40.9376 34.8621 40.9376 34.8581 40.9375C34.5338 40.9311 34.2762 40.6631 34.2825 40.3388C34.3041 39.2465 34.0834 38.4793 33.6443 38.1204C33.2462 37.7949 32.7519 37.8866 32.747 37.8876C32.4302 37.9581 32.1165 37.759 32.046 37.4424C31.9753 37.1259 32.1746 36.8121 32.4912 36.7414C32.8769 36.6554 33.7104 36.6574 34.3877 37.2112C35.1263 37.8152 35.486 38.8752 35.4567 40.3619C35.4505 40.6822 35.1889 40.9376 34.8699 40.9376Z" fill="#FFA730"/>
<path d="M30.526 37.7774H21.6853C21.3611 37.7774 21.0981 37.5146 21.0981 37.1902C21.0981 36.8659 21.3611 36.603 21.6853 36.603H30.526C30.8502 36.603 31.1132 36.8659 31.1132 37.1902C31.1132 37.5146 30.8503 37.7774 30.526 37.7774Z" fill="#FFA730"/>
<path d="M9.79613 4.38837C10.6069 4.38837 11.2641 3.73112 11.2641 2.92037C11.2641 2.10961 10.6069 1.45236 9.79613 1.45236C8.98537 1.45236 8.32812 2.10961 8.32812 2.92037C8.32812 3.73112 8.98537 4.38837 9.79613 4.38837Z" fill="#BF6C0D"/>
<path d="M13.989 6.90812C14.7998 6.90812 15.457 6.25087 15.457 5.44011C15.457 4.62936 14.7998 3.97211 13.989 3.97211C13.1782 3.97211 12.521 4.62936 12.521 5.44011C12.521 6.25087 13.1782 6.90812 13.989 6.90812Z" fill="#BF6C0D"/>
<path d="M8.83943 31.3005H8.69987C7.30536 31.3005 6.1748 30.17 6.1748 28.7754V10.7222C6.1748 9.3277 7.30527 8.19714 8.69987 8.19714H8.83943C10.2339 8.19714 11.3645 9.32761 11.3645 10.7222V28.7755C11.3645 30.17 10.234 31.3005 8.83943 31.3005Z" fill="#FF9079"/>
<path d="M7.63381 31.0646V8.4332C6.77218 8.83514 6.1748 9.7087 6.1748 10.7222V28.7755C6.1748 29.789 6.77218 30.6625 7.63381 31.0646Z" fill="#FF624B"/>
<path d="M9.97343 26.7775C9.6492 26.7775 9.38623 26.5146 9.38623 26.1903V12.9867C9.38623 12.6624 9.6492 12.3995 9.97343 12.3995C10.2977 12.3995 10.5606 12.6624 10.5606 12.9867V26.1904C10.5606 26.5146 10.2977 26.7775 9.97343 26.7775Z" fill="#FFEACF"/>
<path d="M9.77774 41.9479H8.15305C7.72068 41.9479 7.37012 41.5974 7.37012 41.165V38.4563C7.37012 38.024 7.72068 37.6734 8.15305 37.6734H9.77774C10.2101 37.6734 10.5607 38.024 10.5607 38.4563V41.165C10.5607 41.5974 10.2101 41.9479 9.77774 41.9479Z" fill="#FFDF74"/>
<path d="M7.63387 41.7499V37.8714C7.47239 38.0148 7.37012 38.2233 7.37012 38.4563V41.165C7.37012 41.3979 7.47249 41.6065 7.63387 41.7499Z" fill="#FFD551"/>
<path d="M72.336 14.68L67.344 24.472V31H65.256V24.472L60.24 14.68H62.496L66.408 22.408L70.176 14.68H72.336ZM82.9106 24.328V25.768C82.9106 27.464 82.4706 28.8 81.5906 29.776C80.7266 30.752 79.4866 31.24 77.8706 31.24C76.2706 31.24 75.0306 30.752 74.1506 29.776C73.2706 28.8 72.8306 27.464 72.8306 25.768V24.328C72.8306 22.664 73.2626 21.344 74.1266 20.368C75.0066 19.376 76.2546 18.88 77.8706 18.88C79.4866 18.88 80.7266 19.376 81.5906 20.368C82.4706 21.344 82.9106 22.664 82.9106 24.328ZM80.8706 24.328C80.8706 23.192 80.6146 22.304 80.1026 21.664C79.5906 21.008 78.8466 20.68 77.8706 20.68C76.9106 20.68 76.1666 21.008 75.6386 21.664C75.1266 22.304 74.8706 23.192 74.8706 24.328V25.768C74.8706 26.952 75.1266 27.864 75.6386 28.504C76.1666 29.144 76.9106 29.464 77.8706 29.464C78.8466 29.464 79.5906 29.144 80.1026 28.504C80.6146 27.864 80.8706 26.952 80.8706 25.768V24.328ZM93.807 31V29.32C92.975 30.04 92.231 30.544 91.575 30.832C90.919 31.104 90.263 31.24 89.607 31.24C88.551 31.24 87.743 30.896 87.183 30.208C86.623 29.504 86.343 28.52 86.343 27.256V19.12H88.311V26.968C88.311 27.8 88.455 28.416 88.743 28.816C89.047 29.2 89.495 29.392 90.087 29.392C90.535 29.392 91.039 29.28 91.599 29.056C92.159 28.832 92.855 28.384 93.687 27.712V19.12H95.655V31H93.807ZM106.133 20.848C105.413 20.848 104.709 20.976 104.021 21.232C103.349 21.488 102.629 21.976 101.861 22.696V31H99.8933V19.12H101.765V21.04C102.581 20.24 103.325 19.68 103.997 19.36C104.685 19.04 105.397 18.88 106.133 18.88V20.848ZM116.812 14.68L121.78 26.776L126.772 14.68H129.148V31H127.108V24.016L127.372 17.728L122.692 29.08H120.724L116.14 17.68L116.404 24.016V31H114.364V14.68H116.812ZM142.519 31.12C141.783 31.12 141.191 30.952 140.743 30.616C140.311 30.28 140.007 29.864 139.831 29.368C139.047 30.056 138.335 30.544 137.695 30.832C137.055 31.104 136.415 31.24 135.775 31.24C134.735 31.24 133.967 30.904 133.471 30.232C132.975 29.56 132.727 28.736 132.727 27.76C132.727 27.104 132.847 26.52 133.087 26.008C133.327 25.496 133.735 25.096 134.311 24.808C134.887 24.504 135.663 24.352 136.639 24.352C137.071 24.352 137.543 24.384 138.055 24.448C138.567 24.496 139.087 24.56 139.615 24.64V23.032C139.615 22.136 139.415 21.528 139.015 21.208C138.631 20.872 138.063 20.704 137.311 20.704C136.287 20.704 135.143 20.984 133.879 21.544L133.255 19.912C133.991 19.576 134.695 19.32 135.367 19.144C136.039 18.968 136.719 18.88 137.407 18.88C138.527 18.88 139.383 19.064 139.975 19.432C140.567 19.8 140.975 20.288 141.199 20.896C141.423 21.504 141.535 22.168 141.535 22.888V28.024C141.535 28.392 141.607 28.704 141.751 28.96C141.895 29.2 142.183 29.32 142.615 29.32H142.879V31.12H142.519ZM134.671 27.736C134.671 28.28 134.799 28.72 135.055 29.056C135.311 29.392 135.679 29.56 136.159 29.56C136.575 29.56 137.055 29.44 137.599 29.2C138.143 28.944 138.815 28.44 139.615 27.688V26.176C138.527 26 137.567 25.912 136.735 25.912C135.999 25.912 135.471 26.064 135.151 26.368C134.831 26.672 134.671 27.128 134.671 27.736ZM147.059 24.352V25.768C147.059 26.984 147.283 27.904 147.731 28.528C148.179 29.136 148.891 29.44 149.867 29.44C150.827 29.44 151.859 29.192 152.963 28.696L153.563 30.352C152.251 30.944 150.979 31.24 149.747 31.24C148.211 31.24 147.043 30.752 146.243 29.776C145.443 28.8 145.043 27.464 145.043 25.768V24.352C145.043 22.656 145.443 21.32 146.243 20.344C147.043 19.368 148.211 18.88 149.747 18.88C150.323 18.88 150.915 18.96 151.523 19.12C152.147 19.264 152.771 19.472 153.395 19.744L152.795 21.424C152.267 21.2 151.755 21.024 151.259 20.896C150.779 20.768 150.315 20.704 149.867 20.704C148.891 20.704 148.179 21.016 147.731 21.64C147.283 22.248 147.059 23.152 147.059 24.352ZM162.16 20.728C161.712 20.728 161.184 20.84 160.576 21.064C159.984 21.288 159.264 21.744 158.416 22.432V31H156.448V13.24H158.416V20.704C159.248 20 160 19.52 160.672 19.264C161.344 19.008 162 18.88 162.64 18.88C163.744 18.88 164.584 19.232 165.16 19.936C165.752 20.624 166.048 21.608 166.048 22.888V31H164.08V23.176C164.08 21.544 163.44 20.728 162.16 20.728ZM172.247 16.216H170.039V14.008H172.247V16.216ZM172.127 31H170.159V19.12H172.127V31ZM182.082 20.728C181.634 20.728 181.106 20.84 180.498 21.064C179.906 21.288 179.186 21.744 178.338 22.432V31H176.37V19.12H178.242V20.776C179.09 20.056 179.858 19.56 180.546 19.288C181.25 19.016 181.922 18.88 182.562 18.88C183.666 18.88 184.506 19.232 185.082 19.936C185.674 20.624 185.97 21.608 185.97 22.888V31H184.002V23.176C184.002 21.544 183.362 20.728 182.082 20.728ZM198.697 30.304C197.977 30.656 197.257 30.896 196.537 31.024C195.817 31.168 195.153 31.24 194.545 31.24C192.833 31.24 191.553 30.752 190.705 29.776C189.873 28.8 189.457 27.464 189.457 25.768V24.328C189.457 22.68 189.873 21.36 190.705 20.368C191.553 19.376 192.745 18.88 194.281 18.88C195.097 18.88 195.841 19.048 196.513 19.384C197.201 19.704 197.745 20.2 198.145 20.872C198.561 21.528 198.769 22.376 198.769 23.416C198.769 24.088 198.673 24.856 198.481 25.72H191.401V25.768C191.401 26.984 191.649 27.904 192.145 28.528C192.657 29.152 193.473 29.464 194.593 29.464C195.105 29.464 195.665 29.4 196.273 29.272C196.897 29.144 197.505 28.944 198.097 28.672L198.697 30.304ZM194.281 20.608C193.353 20.608 192.649 20.912 192.169 21.52C191.705 22.112 191.449 22.952 191.401 24.04H196.777C196.825 23.752 196.849 23.48 196.849 23.224C196.849 22.328 196.593 21.672 196.081 21.256C195.585 20.824 194.985 20.608 194.281 20.608Z" fill="black"/>
</svg>
