<svg width="196" height="44" viewBox="0 0 196 44" fill="none" xmlns="http://www.w3.org/2000/svg">
<rect width="196" height="44" rx="10" fill="#EFB667"/>
<path d="M75.544 31V14.68H77.728C79.184 16.76 80.52 18.856 81.736 20.968C82.968 23.064 84.12 25.256 85.192 27.544L84.952 21.304V14.68H86.992V31H84.808C83.688 28.664 82.528 26.392 81.328 24.184C80.144 21.96 78.848 19.792 77.44 17.68L77.584 24.328V31H75.544ZM100.298 30.304C99.5783 30.656 98.8583 30.896 98.1383 31.024C97.4183 31.168 96.7543 31.24 96.1463 31.24C94.4343 31.24 93.1543 30.752 92.3063 29.776C91.4743 28.8 91.0583 27.464 91.0583 25.768V24.328C91.0583 22.68 91.4743 21.36 92.3063 20.368C93.1543 19.376 94.3463 18.88 95.8823 18.88C96.6983 18.88 97.4423 19.048 98.1143 19.384C98.8023 19.704 99.3463 20.2 99.7463 20.872C100.162 21.528 100.37 22.376 100.37 23.416C100.37 24.088 100.274 24.856 100.082 25.72H93.0023V25.768C93.0023 26.984 93.2503 27.904 93.7463 28.528C94.2583 29.152 95.0743 29.464 96.1943 29.464C96.7063 29.464 97.2663 29.4 97.8743 29.272C98.4983 29.144 99.1063 28.944 99.6983 28.672L100.298 30.304ZM95.8823 20.608C94.9543 20.608 94.2503 20.912 93.7703 21.52C93.3063 22.112 93.0503 22.952 93.0023 24.04H98.3783C98.4263 23.752 98.4503 23.48 98.4503 23.224C98.4503 22.328 98.1943 21.672 97.6823 21.256C97.1863 20.824 96.5863 20.608 95.8823 20.608ZM110.064 31L107.112 26.368L104.28 31H102.192L106.128 24.856L102.48 19.12H104.664L107.28 23.272L109.848 19.12H111.912L108.288 24.808L112.224 31H110.064ZM121.413 30.568C120.517 31.016 119.565 31.24 118.557 31.24C117.693 31.24 117.013 31.064 116.517 30.712C116.037 30.36 115.693 29.888 115.485 29.296C115.293 28.704 115.197 28.048 115.197 27.328V20.848H113.133V19.12H115.197V15.808H117.165V19.12H121.053V20.848H117.165V27.256C117.165 28.088 117.301 28.664 117.573 28.984C117.861 29.288 118.301 29.44 118.893 29.44C119.181 29.44 119.477 29.408 119.781 29.344C120.101 29.264 120.445 29.136 120.813 28.96L121.413 30.568Z" fill="black"/>
</svg>
