<svg width="658" height="154" viewBox="0 0 658 154" fill="none" xmlns="http://www.w3.org/2000/svg">
<path d="M106.44 81.32L108.36 92.32L114.64 69.8H117.88L124.16 92.2L126.16 81.32L128.52 69.8H131.96L125.96 97H122.44L116.2 74.76L109.96 97H106.4L100.44 69.8H104.08L106.44 81.32ZM146.454 79.88C145.707 79.88 144.827 80.0667 143.814 80.44C142.827 80.8133 141.627 81.5733 140.214 82.72V97H136.934V67.4H140.214V79.84C141.601 78.6667 142.854 77.8667 143.974 77.44C145.094 77.0133 146.187 76.8 147.254 76.8C149.094 76.8 150.494 77.3867 151.454 78.56C152.441 79.7067 152.934 81.3467 152.934 83.48V97H149.654V83.96C149.654 81.24 148.587 79.88 146.454 79.88ZM174.266 97.2C173.039 97.2 172.052 96.92 171.306 96.36C170.586 95.8 170.079 95.1067 169.786 94.28C168.479 95.4267 167.292 96.24 166.226 96.72C165.159 97.1733 164.092 97.4 163.026 97.4C161.292 97.4 160.012 96.84 159.186 95.72C158.359 94.6 157.946 93.2267 157.946 91.6C157.946 90.5067 158.146 89.5333 158.546 88.68C158.946 87.8267 159.626 87.16 160.586 86.68C161.546 86.1733 162.839 85.92 164.466 85.92C165.186 85.92 165.972 85.9733 166.826 86.08C167.679 86.16 168.546 86.2667 169.426 86.4V83.72C169.426 82.2267 169.092 81.2133 168.426 80.68C167.786 80.12 166.839 79.84 165.586 79.84C163.879 79.84 161.972 80.3067 159.866 81.24L158.826 78.52C160.052 77.96 161.226 77.5333 162.346 77.24C163.466 76.9467 164.599 76.8 165.746 76.8C167.612 76.8 169.039 77.1067 170.026 77.72C171.012 78.3333 171.692 79.1467 172.066 80.16C172.439 81.1733 172.626 82.28 172.626 83.48V92.04C172.626 92.6533 172.746 93.1733 172.986 93.6C173.226 94 173.706 94.2 174.426 94.2H174.866V97.2H174.266ZM161.186 91.56C161.186 92.4667 161.399 93.2 161.826 93.76C162.252 94.32 162.866 94.6 163.666 94.6C164.359 94.6 165.159 94.4 166.066 94C166.972 93.5733 168.092 92.7333 169.426 91.48V88.96C167.612 88.6667 166.012 88.52 164.626 88.52C163.399 88.52 162.519 88.7733 161.986 89.28C161.452 89.7867 161.186 90.5467 161.186 91.56ZM190.392 96.28C188.899 97.0267 187.312 97.4 185.632 97.4C184.192 97.4 183.059 97.1067 182.232 96.52C181.432 95.9333 180.859 95.1467 180.512 94.16C180.192 93.1733 180.032 92.08 180.032 90.88V80.08H176.592V77.2H180.032V71.68H183.312V77.2H189.792V80.08H183.312V90.76C183.312 92.1467 183.539 93.1067 183.992 93.64C184.472 94.1467 185.206 94.4 186.192 94.4C186.672 94.4 187.166 94.3467 187.672 94.24C188.206 94.1067 188.779 93.8933 189.392 93.6L190.392 96.28ZM214.298 96.28C212.805 97.0267 211.218 97.4 209.538 97.4C208.098 97.4 206.965 97.1067 206.138 96.52C205.338 95.9333 204.765 95.1467 204.418 94.16C204.098 93.1733 203.938 92.08 203.938 90.88V80.08H200.498V77.2H203.938V71.68H207.218V77.2H213.698V80.08H207.218V90.76C207.218 92.1467 207.445 93.1067 207.898 93.64C208.378 94.1467 209.112 94.4 210.098 94.4C210.578 94.4 211.072 94.3467 211.578 94.24C212.112 94.1067 212.685 93.8933 213.298 93.6L214.298 96.28ZM225.374 99C224.52 101.4 223.467 103.147 222.214 104.24C220.987 105.36 219.267 105.92 217.054 105.92V102.68C217.96 102.653 218.734 102.533 219.374 102.32C220.04 102.107 220.627 101.667 221.134 101C221.667 100.36 222.174 99.4 222.654 98.12L223.054 97.12L215.934 77.2H219.294L222.614 86.84L224.654 93L226.614 86.84L229.854 77.2H233.094L225.374 99ZM245.401 97.4C243.908 97.4 242.361 97.0933 240.761 96.48V105.52H237.481V77.2H240.601V80C241.828 78.8267 242.948 78 243.961 77.52C244.974 77.04 246.014 76.8 247.081 76.8C249.188 76.8 250.801 77.6 251.921 79.2C253.068 80.8 253.641 83.0533 253.641 85.96V88.28C253.641 91.0533 252.934 93.2667 251.521 94.92C250.134 96.5733 248.094 97.4 245.401 97.4ZM246.281 79.88C245.508 79.88 244.708 80.08 243.881 80.48C243.054 80.88 242.014 81.6933 240.761 82.92V93.48C241.534 93.8267 242.281 94.08 243.001 94.24C243.721 94.3733 244.428 94.44 245.121 94.44C246.934 94.44 248.241 93.8933 249.041 92.8C249.841 91.68 250.241 90.1733 250.241 88.28V85.96C250.241 83.88 249.908 82.3467 249.241 81.36C248.601 80.3733 247.614 79.88 246.281 79.88ZM274.068 95.84C272.868 96.4267 271.668 96.8267 270.468 97.04C269.268 97.28 268.161 97.4 267.148 97.4C264.294 97.4 262.161 96.5867 260.748 94.96C259.361 93.3333 258.668 91.1067 258.668 88.28V85.88C258.668 83.1333 259.361 80.9333 260.748 79.28C262.161 77.6267 264.148 76.8 266.708 76.8C268.068 76.8 269.308 77.08 270.428 77.64C271.574 78.1733 272.481 79 273.148 80.12C273.841 81.2133 274.188 82.6267 274.188 84.36C274.188 85.48 274.028 86.76 273.708 88.2H261.908V88.28C261.908 90.3067 262.321 91.84 263.148 92.88C264.001 93.92 265.361 94.44 267.228 94.44C268.081 94.44 269.014 94.3333 270.028 94.12C271.068 93.9067 272.081 93.5733 273.068 93.12L274.068 95.84ZM266.708 79.68C265.161 79.68 263.988 80.1867 263.188 81.2C262.414 82.1867 261.988 83.5867 261.908 85.4H270.868C270.948 84.92 270.988 84.4667 270.988 84.04C270.988 82.5467 270.561 81.4533 269.708 80.76C268.881 80.04 267.881 79.68 266.708 79.68ZM304.255 85.88V88.28C304.255 91.1067 303.521 93.3333 302.055 94.96C300.615 96.5867 298.548 97.4 295.855 97.4C293.188 97.4 291.121 96.5867 289.655 94.96C288.188 93.3333 287.455 91.1067 287.455 88.28V85.88C287.455 83.1067 288.175 80.9067 289.615 79.28C291.081 77.6267 293.161 76.8 295.855 76.8C298.548 76.8 300.615 77.6267 302.055 79.28C303.521 80.9067 304.255 83.1067 304.255 85.88ZM300.855 85.88C300.855 83.9867 300.428 82.5067 299.575 81.44C298.721 80.3467 297.481 79.8 295.855 79.8C294.255 79.8 293.015 80.3467 292.135 81.44C291.281 82.5067 290.855 83.9867 290.855 85.88V88.28C290.855 90.2533 291.281 91.7733 292.135 92.84C293.015 93.9067 294.255 94.44 295.855 94.44C297.481 94.44 298.721 93.9067 299.575 92.84C300.428 91.7733 300.855 90.2533 300.855 88.28V85.88ZM320.615 80.08H314.135V97H310.855V80.08H307.415V77.2H310.855V73.92C310.855 72.6933 311.055 71.56 311.455 70.52C311.882 69.4533 312.562 68.6 313.495 67.96C314.429 67.32 315.669 67 317.215 67C317.989 67 318.802 67.0933 319.655 67.28C320.535 67.44 321.349 67.6933 322.095 68.04L321.175 70.8C319.815 70.2667 318.629 70 317.615 70C316.495 70 315.629 70.3067 315.015 70.92C314.429 71.5333 314.135 72.52 314.135 73.88V77.2H320.615V80.08ZM335.991 86.4C335.991 88.9067 336.484 90.84 337.471 92.2C338.484 93.5333 340.031 94.2 342.111 94.2C343.017 94.2 343.911 94.0933 344.791 93.88C345.671 93.6667 346.724 93.2933 347.951 92.76L349.111 95.72C347.804 96.3067 346.564 96.7333 345.391 97C344.217 97.2667 343.084 97.4 341.991 97.4C338.844 97.4 336.457 96.4133 334.831 94.44C333.204 92.4667 332.391 89.7867 332.391 86.4V80.4C332.391 77.0133 333.204 74.3333 334.831 72.36C336.457 70.3867 338.844 69.4 341.991 69.4C343.084 69.4 344.217 69.5333 345.391 69.8C346.591 70.0667 347.804 70.4933 349.031 71.08L347.911 74.08C345.751 73.12 343.817 72.64 342.111 72.64C340.031 72.64 338.484 73.3067 337.471 74.64C336.484 75.9733 335.991 77.8933 335.991 80.4V86.4ZM368.825 85.88V88.28C368.825 91.1067 368.092 93.3333 366.625 94.96C365.185 96.5867 363.118 97.4 360.425 97.4C357.758 97.4 355.692 96.5867 354.225 94.96C352.758 93.3333 352.025 91.1067 352.025 88.28V85.88C352.025 83.1067 352.745 80.9067 354.185 79.28C355.652 77.6267 357.732 76.8 360.425 76.8C363.118 76.8 365.185 77.6267 366.625 79.28C368.092 80.9067 368.825 83.1067 368.825 85.88ZM365.425 85.88C365.425 83.9867 364.998 82.5067 364.145 81.44C363.292 80.3467 362.052 79.8 360.425 79.8C358.825 79.8 357.585 80.3467 356.705 81.44C355.852 82.5067 355.425 83.9867 355.425 85.88V88.28C355.425 90.2533 355.852 91.7733 356.705 92.84C357.585 93.9067 358.825 94.44 360.425 94.44C362.052 94.44 363.292 93.9067 364.145 92.84C364.998 91.7733 365.425 90.2533 365.425 88.28V85.88ZM387.706 97V80.08H378.706V97H375.426V80.08H371.986V77.2H375.426V74.2C375.426 73 375.626 71.88 376.026 70.84C376.426 69.8 377.092 68.9733 378.026 68.36C378.959 67.72 380.199 67.4 381.746 67.4C383.186 67.4 384.639 67.6933 386.106 68.28L385.146 71.08C383.946 70.6267 382.879 70.4 381.946 70.4C380.932 70.4 380.132 70.7067 379.546 71.32C378.986 71.9067 378.706 72.8667 378.706 74.2V77.2H387.706V73.92C387.706 72.6933 387.906 71.56 388.306 70.52C388.732 69.4533 389.412 68.6 390.346 67.96C391.279 67.32 392.519 67 394.066 67C395.719 67 397.346 67.3467 398.946 68.04L398.026 70.8C396.666 70.2667 395.479 70 394.466 70C393.346 70 392.479 70.3067 391.866 70.92C391.279 71.5333 390.986 72.52 390.986 73.88V77.2H397.466V80.08H390.986V97H387.706ZM415.435 95.84C414.235 96.4267 413.035 96.8267 411.835 97.04C410.635 97.28 409.528 97.4 408.515 97.4C405.661 97.4 403.528 96.5867 402.115 94.96C400.728 93.3333 400.035 91.1067 400.035 88.28V85.88C400.035 83.1333 400.728 80.9333 402.115 79.28C403.528 77.6267 405.515 76.8 408.075 76.8C409.435 76.8 410.675 77.08 411.795 77.64C412.941 78.1733 413.848 79 414.515 80.12C415.208 81.2133 415.555 82.6267 415.555 84.36C415.555 85.48 415.395 86.76 415.075 88.2H403.275V88.28C403.275 90.3067 403.688 91.84 404.515 92.88C405.368 93.92 406.728 94.44 408.595 94.44C409.448 94.44 410.381 94.3333 411.395 94.12C412.435 93.9067 413.448 93.5733 414.435 93.12L415.435 95.84ZM408.075 79.68C406.528 79.68 405.355 80.1867 404.555 81.2C403.781 82.1867 403.355 83.5867 403.275 85.4H412.235C412.315 84.92 412.355 84.4667 412.355 84.04C412.355 82.5467 411.928 81.4533 411.075 80.76C410.248 80.04 409.248 79.68 408.075 79.68ZM435.591 95.84C434.391 96.4267 433.191 96.8267 431.991 97.04C430.791 97.28 429.684 97.4 428.671 97.4C425.818 97.4 423.684 96.5867 422.271 94.96C420.884 93.3333 420.191 91.1067 420.191 88.28V85.88C420.191 83.1333 420.884 80.9333 422.271 79.28C423.684 77.6267 425.671 76.8 428.231 76.8C429.591 76.8 430.831 77.08 431.951 77.64C433.098 78.1733 434.004 79 434.671 80.12C435.364 81.2133 435.711 82.6267 435.711 84.36C435.711 85.48 435.551 86.76 435.231 88.2H423.431V88.28C423.431 90.3067 423.844 91.84 424.671 92.88C425.524 93.92 426.884 94.44 428.751 94.44C429.604 94.44 430.538 94.3333 431.551 94.12C432.591 93.9067 433.604 93.5733 434.591 93.12L435.591 95.84ZM428.231 79.68C426.684 79.68 425.511 80.1867 424.711 81.2C423.938 82.1867 423.511 83.5867 423.431 85.4H432.391C432.471 84.92 432.511 84.4667 432.511 84.04C432.511 82.5467 432.084 81.4533 431.231 80.76C430.404 80.04 429.404 79.68 428.231 79.68ZM462.138 97V94.24C460.911 95.4133 459.791 96.24 458.778 96.72C457.791 97.1733 456.765 97.4 455.698 97.4C453.591 97.4 451.965 96.6 450.818 95C449.698 93.4 449.138 91.16 449.138 88.28V85.96C449.138 83.16 449.831 80.9333 451.218 79.28C452.631 77.6267 454.671 76.8 457.338 76.8C458.111 76.8 458.885 76.88 459.658 77.04C460.431 77.2 461.205 77.4267 461.978 77.72V67.4H465.258V97H462.138ZM452.538 88.28C452.538 90.36 452.858 91.8933 453.498 92.88C454.165 93.84 455.151 94.32 456.458 94.32C457.231 94.32 458.031 94.1333 458.858 93.76C459.685 93.36 460.725 92.5467 461.978 91.32V80.76C461.205 80.4133 460.458 80.1733 459.738 80.04C459.018 79.88 458.311 79.8 457.618 79.8C455.805 79.8 454.498 80.3467 453.698 81.44C452.925 82.5333 452.538 84.04 452.538 85.96V88.28ZM488.005 85.88V88.28C488.005 91.1067 487.271 93.3333 485.805 94.96C484.365 96.5867 482.298 97.4 479.605 97.4C476.938 97.4 474.871 96.5867 473.405 94.96C471.938 93.3333 471.205 91.1067 471.205 88.28V85.88C471.205 83.1067 471.925 80.9067 473.365 79.28C474.831 77.6267 476.911 76.8 479.605 76.8C482.298 76.8 484.365 77.6267 485.805 79.28C487.271 80.9067 488.005 83.1067 488.005 85.88ZM484.605 85.88C484.605 83.9867 484.178 82.5067 483.325 81.44C482.471 80.3467 481.231 79.8 479.605 79.8C478.005 79.8 476.765 80.3467 475.885 81.44C475.031 82.5067 474.605 83.9867 474.605 85.88V88.28C474.605 90.2533 475.031 91.7733 475.885 92.84C476.765 93.9067 478.005 94.44 479.605 94.44C481.231 94.44 482.471 93.9067 483.325 92.84C484.178 91.7733 484.605 90.2533 484.605 88.28V85.88ZM509.436 99C508.583 101.4 507.53 103.147 506.276 104.24C505.05 105.36 503.33 105.92 501.116 105.92V102.68C502.023 102.653 502.796 102.533 503.436 102.32C504.103 102.107 504.69 101.667 505.196 101C505.73 100.36 506.236 99.4 506.716 98.12L507.116 97.12L499.996 77.2H503.356L506.676 86.84L508.716 93L510.676 86.84L513.916 77.2H517.156L509.436 99ZM536.833 85.88V88.28C536.833 91.1067 536.099 93.3333 534.633 94.96C533.193 96.5867 531.126 97.4 528.433 97.4C525.766 97.4 523.699 96.5867 522.233 94.96C520.766 93.3333 520.033 91.1067 520.033 88.28V85.88C520.033 83.1067 520.753 80.9067 522.193 79.28C523.659 77.6267 525.739 76.8 528.433 76.8C531.126 76.8 533.193 77.6267 534.633 79.28C536.099 80.9067 536.833 83.1067 536.833 85.88ZM533.433 85.88C533.433 83.9867 533.006 82.5067 532.153 81.44C531.299 80.3467 530.059 79.8 528.433 79.8C526.833 79.8 525.593 80.3467 524.713 81.44C523.859 82.5067 523.433 83.9867 523.433 85.88V88.28C523.433 90.2533 523.859 91.7733 524.713 92.84C525.593 93.9067 526.833 94.44 528.433 94.44C530.059 94.44 531.299 93.9067 532.153 92.84C533.006 91.7733 533.433 90.2533 533.433 88.28V85.88ZM554.993 97V94.2C553.607 95.4 552.367 96.24 551.273 96.72C550.18 97.1733 549.087 97.4 547.993 97.4C546.233 97.4 544.887 96.8267 543.953 95.68C543.02 94.5067 542.553 92.8667 542.553 90.76V77.2H545.833V90.28C545.833 91.6667 546.073 92.6933 546.553 93.36C547.06 94 547.807 94.32 548.793 94.32C549.54 94.32 550.38 94.1333 551.313 93.76C552.247 93.3867 553.407 92.64 554.793 91.52V77.2H558.073V97H554.993ZM116.88 143.84C115.68 144.427 114.48 144.827 113.28 145.04C112.08 145.28 110.973 145.4 109.96 145.4C107.107 145.4 104.973 144.587 103.56 142.96C102.173 141.333 101.48 139.107 101.48 136.28V133.88C101.48 131.133 102.173 128.933 103.56 127.28C104.973 125.627 106.96 124.8 109.52 124.8C110.88 124.8 112.12 125.08 113.24 125.64C114.387 126.173 115.293 127 115.96 128.12C116.653 129.213 117 130.627 117 132.36C117 133.48 116.84 134.76 116.52 136.2H104.72V136.28C104.72 138.307 105.133 139.84 105.96 140.88C106.813 141.92 108.173 142.44 110.04 142.44C110.893 142.44 111.827 142.333 112.84 142.12C113.88 141.907 114.893 141.573 115.88 141.12L116.88 143.84ZM109.52 127.68C107.973 127.68 106.8 128.187 106 129.2C105.227 130.187 104.8 131.587 104.72 133.4H113.68C113.76 132.92 113.8 132.467 113.8 132.04C113.8 130.547 113.373 129.453 112.52 128.76C111.693 128.04 110.693 127.68 109.52 127.68ZM132.196 127.88C131.45 127.88 130.57 128.067 129.556 128.44C128.57 128.813 127.37 129.573 125.956 130.72V145H122.676V125.2H125.796V127.96C127.21 126.76 128.49 125.933 129.636 125.48C130.81 125.027 131.93 124.8 132.996 124.8C134.836 124.8 136.236 125.387 137.196 126.56C138.183 127.707 138.676 129.347 138.676 131.48V145H135.396V131.96C135.396 129.24 134.33 127.88 132.196 127.88ZM149.008 120.36H145.328V116.68H149.008V120.36ZM141.208 153.92V150.8C142.621 150.8 143.688 150.467 144.408 149.8C145.154 149.133 145.528 147.84 145.528 145.92V125.2H148.808V145.92C148.808 147.467 148.581 148.84 148.128 150.04C147.674 151.24 146.888 152.187 145.768 152.88C144.674 153.573 143.154 153.92 141.208 153.92ZM171.559 133.88V136.28C171.559 139.107 170.826 141.333 169.359 142.96C167.919 144.587 165.853 145.4 163.159 145.4C160.493 145.4 158.426 144.587 156.959 142.96C155.493 141.333 154.759 139.107 154.759 136.28V133.88C154.759 131.107 155.479 128.907 156.919 127.28C158.386 125.627 160.466 124.8 163.159 124.8C165.853 124.8 167.919 125.627 169.359 127.28C170.826 128.907 171.559 131.107 171.559 133.88ZM168.159 133.88C168.159 131.987 167.733 130.507 166.879 129.44C166.026 128.347 164.786 127.8 163.159 127.8C161.559 127.8 160.319 128.347 159.439 129.44C158.586 130.507 158.159 131.987 158.159 133.88V136.28C158.159 138.253 158.586 139.773 159.439 140.84C160.319 141.907 161.559 142.44 163.159 142.44C164.786 142.44 166.026 141.907 166.879 140.84C167.733 139.773 168.159 138.253 168.159 136.28V133.88ZM183.889 147C183.036 149.4 181.983 151.147 180.729 152.24C179.503 153.36 177.783 153.92 175.569 153.92V150.68C176.476 150.653 177.249 150.533 177.889 150.32C178.556 150.107 179.143 149.667 179.649 149C180.183 148.36 180.689 147.4 181.169 146.12L181.569 145.12L174.449 125.2H177.809L181.129 134.84L183.169 141L185.129 134.84L188.369 125.2H191.609L183.889 147ZM215.588 144.28C214.094 145.027 212.508 145.4 210.828 145.4C209.388 145.4 208.254 145.107 207.428 144.52C206.628 143.933 206.054 143.147 205.708 142.16C205.388 141.173 205.228 140.08 205.228 138.88V128.08H201.788V125.2H205.228V119.68H208.508V125.2H214.988V128.08H208.508V138.76C208.508 140.147 208.734 141.107 209.188 141.64C209.668 142.147 210.401 142.4 211.388 142.4C211.868 142.4 212.361 142.347 212.868 142.24C213.401 142.107 213.974 141.893 214.588 141.6L215.588 144.28ZM229.423 127.88C228.676 127.88 227.796 128.067 226.783 128.44C225.796 128.813 224.596 129.573 223.183 130.72V145H219.903V115.4H223.183V127.84C224.569 126.667 225.823 125.867 226.943 125.44C228.063 125.013 229.156 124.8 230.223 124.8C232.063 124.8 233.463 125.387 234.423 126.56C235.409 127.707 235.903 129.347 235.903 131.48V145H232.623V131.96C232.623 129.24 231.556 127.88 229.423 127.88ZM257.114 143.84C255.914 144.427 254.714 144.827 253.514 145.04C252.314 145.28 251.208 145.4 250.194 145.4C247.341 145.4 245.208 144.587 243.794 142.96C242.408 141.333 241.714 139.107 241.714 136.28V133.88C241.714 131.133 242.408 128.933 243.794 127.28C245.208 125.627 247.194 124.8 249.754 124.8C251.114 124.8 252.354 125.08 253.474 125.64C254.621 126.173 255.528 127 256.194 128.12C256.888 129.213 257.234 130.627 257.234 132.36C257.234 133.48 257.074 134.76 256.754 136.2H244.954V136.28C244.954 138.307 245.368 139.84 246.194 140.88C247.048 141.92 248.408 142.44 250.274 142.44C251.128 142.44 252.061 142.333 253.074 142.12C254.114 141.907 255.128 141.573 256.114 141.12L257.114 143.84ZM249.754 127.68C248.208 127.68 247.034 128.187 246.234 129.2C245.461 130.187 245.034 131.587 244.954 133.4H253.914C253.994 132.92 254.034 132.467 254.034 132.04C254.034 130.547 253.608 129.453 252.754 128.76C251.928 128.04 250.928 127.68 249.754 127.68ZM280.942 127.88C280.195 127.88 279.355 128.08 278.422 128.48C277.488 128.853 276.315 129.6 274.902 130.72V145H271.622V125.2H274.742V127.96C276.155 126.787 277.408 125.973 278.502 125.52C279.595 125.04 280.675 124.8 281.742 124.8C282.995 124.8 284.035 125.093 284.862 125.68C285.688 126.24 286.302 127.053 286.702 128.12C288.168 126.867 289.475 126 290.622 125.52C291.795 125.04 292.942 124.8 294.062 124.8C295.822 124.8 297.168 125.387 298.102 126.56C299.035 127.707 299.502 129.347 299.502 131.48V145H296.222V131.96C296.222 129.24 295.235 127.88 293.262 127.88C292.515 127.88 291.662 128.08 290.702 128.48C289.768 128.853 288.595 129.6 287.182 130.72C287.208 130.827 287.222 130.947 287.222 131.08C287.222 131.213 287.222 131.347 287.222 131.48V145H283.942V131.96C283.942 129.24 282.942 127.88 280.942 127.88ZM322.067 133.88V136.28C322.067 139.107 321.334 141.333 319.867 142.96C318.427 144.587 316.361 145.4 313.667 145.4C311.001 145.4 308.934 144.587 307.467 142.96C306.001 141.333 305.267 139.107 305.267 136.28V133.88C305.267 131.107 305.987 128.907 307.427 127.28C308.894 125.627 310.974 124.8 313.667 124.8C316.361 124.8 318.427 125.627 319.867 127.28C321.334 128.907 322.067 131.107 322.067 133.88ZM318.667 133.88C318.667 131.987 318.241 130.507 317.387 129.44C316.534 128.347 315.294 127.8 313.667 127.8C312.067 127.8 310.827 128.347 309.947 129.44C309.094 130.507 308.667 131.987 308.667 133.88V136.28C308.667 138.253 309.094 139.773 309.947 140.84C310.827 141.907 312.067 142.44 313.667 142.44C315.294 142.44 316.534 141.907 317.387 140.84C318.241 139.773 318.667 138.253 318.667 136.28V133.88ZM332.868 142.48C335.534 142.48 336.868 141.573 336.868 139.76C336.868 138.987 336.628 138.373 336.148 137.92C335.668 137.467 334.788 137.08 333.508 136.76L331.308 136.2C329.681 135.8 328.468 135.107 327.668 134.12C326.868 133.107 326.468 131.907 326.468 130.52C326.468 129.507 326.694 128.573 327.148 127.72C327.601 126.84 328.321 126.133 329.308 125.6C330.294 125.067 331.574 124.8 333.148 124.8C334.161 124.8 335.188 124.92 336.228 125.16C337.294 125.373 338.374 125.747 339.468 126.28L338.428 129.04C336.481 128.16 334.721 127.72 333.148 127.72C330.828 127.72 329.668 128.587 329.668 130.32C329.668 130.987 329.881 131.56 330.308 132.04C330.734 132.52 331.534 132.907 332.708 133.2L334.908 133.76C336.668 134.187 337.961 134.88 338.788 135.84C339.614 136.8 340.028 138.04 340.028 139.56C340.028 140.653 339.788 141.653 339.308 142.56C338.854 143.44 338.108 144.133 337.068 144.64C336.054 145.147 334.681 145.4 332.948 145.4C331.801 145.4 330.654 145.28 329.508 145.04C328.388 144.8 327.228 144.413 326.028 143.88L326.908 141.16C328.054 141.613 329.094 141.947 330.028 142.16C330.961 142.373 331.908 142.48 332.868 142.48ZM356.134 144.28C354.641 145.027 353.054 145.4 351.374 145.4C349.934 145.4 348.801 145.107 347.974 144.52C347.174 143.933 346.601 143.147 346.254 142.16C345.934 141.173 345.774 140.08 345.774 138.88V128.08H342.334V125.2H345.774V119.68H349.054V125.2H355.534V128.08H349.054V138.76C349.054 140.147 349.281 141.107 349.734 141.64C350.214 142.147 350.948 142.4 351.934 142.4C352.414 142.4 352.908 142.347 353.414 142.24C353.948 142.107 354.521 141.893 355.134 141.6L356.134 144.28ZM364.81 120.44C363.903 120.44 362.93 120.56 361.89 120.8C360.85 121.04 359.703 121.44 358.45 122L357.33 119.12C358.663 118.507 359.97 118.067 361.25 117.8C362.556 117.533 363.783 117.4 364.93 117.4C367.703 117.4 369.73 118.053 371.01 119.36C372.29 120.64 372.93 122.24 372.93 124.16V124.88C372.93 126.347 372.69 127.6 372.21 128.64C371.73 129.68 370.996 130.64 370.01 131.52L368.65 132.76C367.77 133.56 367.21 134.253 366.97 134.84C366.73 135.4 366.61 136.093 366.61 136.92V137.72H363.25V136.8C363.25 135.893 363.343 135.12 363.53 134.48C363.716 133.813 364.036 133.187 364.49 132.6C364.943 131.987 365.556 131.32 366.33 130.6L367.69 129.36C368.33 128.773 368.796 128.16 369.09 127.52C369.383 126.853 369.53 126.027 369.53 125.04V124.32C369.53 123.147 369.13 122.213 368.33 121.52C367.556 120.8 366.383 120.44 364.81 120.44ZM366.81 145H363.13V141.36H366.81V145Z" fill="white"/>
<path d="M58.5309 22.3836L50.2035 1.8878C49.4438 0.0179186 46.7654 -0.609135 45.0288 0.675777L15.6912 22.3836H58.5309Z" fill="#FFF4C1"/>
<path d="M45.6594 22.3836L33.3864 9.28987L16.0147 22.1442L15.9473 22.3836H45.6594Z" fill="#FCE575"/>
<path d="M4.44409 30.7051L12.5647 1.8878C13.0917 0.0179208 14.9494 -0.609438 16.1538 0.675474L44.3017 30.7051H4.44409Z" fill="#FFF4C1"/>
<path d="M16.1538 0.675488C14.9494 -0.609424 13.0917 0.0179351 12.5647 1.88751L4.44409 30.7052H14.2128L21.1678 6.02436L16.1538 0.675488Z" fill="#FCE575"/>
<path d="M53.3216 85.6514H12.6673L0.652975 125.163C0.219893 126.587 0 128.066 0 129.555V129.824V133.326C0 140.019 5.42664 145.446 12.1205 145.446H53.8687C60.5626 145.446 65.9892 140.019 65.9892 133.326V129.824V129.555C65.9892 128.066 65.769 126.587 65.3362 125.163L53.3216 85.6514Z" fill="#FFEACF"/>
<path d="M12.2111 133.326V129.824V129.555C12.2111 128.066 12.431 126.586 12.8641 125.163L24.8787 85.6517H12.668L0.65298 125.163C0.219898 126.586 0 128.067 0 129.555V129.824V133.326C0 140.019 5.42665 145.446 12.1205 145.446H24.3313C17.6374 145.446 12.2111 140.019 12.2111 133.326Z" fill="#FFD59A"/>
<path d="M0 24.8076V26.4216C0 28.7444 0.343419 31.0547 1.01927 33.2768L12.6677 71.5835H53.3219L64.9703 33.2768C65.6461 31.0544 65.9895 28.7444 65.9895 26.4216V24.8076C65.9895 23.4687 64.9041 22.3836 63.5655 22.3836H2.42435C1.08545 22.3836 0 23.4687 0 24.8076Z" fill="#FFEACF"/>
<path d="M12.2108 26.4216V24.8073C12.2108 23.4687 13.2959 22.3833 14.6348 22.3833H2.42404C1.08514 22.3833 0 23.4687 0 24.8073V26.4216C0 28.7444 0.343414 31.0547 1.01927 33.2768L12.6677 71.5839H24.8784L13.23 33.2768C12.5542 31.0547 12.2108 28.7447 12.2108 26.4216Z" fill="#FFD59A"/>
<path d="M53.4682 71.3145H12.5212V85.745H53.4682V71.3145Z" fill="#FFD59A"/>
<path d="M4.44409 30.7055L12.8059 58.8332H53.4681L61.912 30.7052L4.44409 30.7055Z" fill="#FFD59A"/>
<path d="M4.44409 30.7055H14.2128L22.3103 58.8332H12.8059L4.44409 30.7055Z" fill="#FFC34C"/>
<path d="M44.3017 31.3588L39.7104 58.8332H47.1897L53.4599 30.7055L44.3017 30.7052V31.3588Z" fill="#FFC34C"/>
<path d="M4.26725 99.3895L8.48095 85.5327V71.7025L4.17179 57.5319C3.7509 56.1478 4.78664 54.7504 6.2332 54.7504H59.7558C61.2026 54.7504 62.2383 56.1478 61.8172 57.5319L57.508 71.7025V85.5327L61.7217 99.3895C62.1426 100.774 61.1068 102.171 59.6603 102.171H6.32896C4.8821 102.171 3.84636 100.774 4.26725 99.3895Z" fill="#FF9079"/>
<path d="M57.5083 78.6486H8.48096V84.3945H57.5083V78.6486Z" fill="#BF6C0D"/>
<path d="M32.2358 80.283L26.0778 97.1961C25.5355 98.6857 23.8883 99.4536 22.3987 98.9114L22.3938 98.9095C20.9043 98.3673 20.1363 96.72 20.6786 95.2305L26.8366 78.3174C27.3789 76.8278 29.0261 76.0599 30.5156 76.6021L30.5205 76.604C32.0104 77.1462 32.778 78.7935 32.2358 80.283Z" fill="#BF6C0D"/>
<path d="M32.3129 77.8611L41.6431 104.689C42.1637 106.186 41.3723 107.822 39.8748 108.343L39.8696 108.345C38.3724 108.865 36.7365 108.074 36.2155 106.576L26.8854 79.7487C26.3648 78.2515 27.1562 76.6155 28.6537 76.0946L28.6589 76.0928C30.1564 75.5722 31.7923 76.3639 32.3129 77.8611Z" fill="#BF6C0D"/>
<path d="M16.4781 99.3895L20.6919 85.5331V71.7028L16.3827 57.5319C15.9618 56.1478 16.9975 54.7504 18.4441 54.7504H6.23331C4.78645 54.7504 3.75072 56.1475 4.1719 57.5319L8.48107 71.7028V85.5331L4.26737 99.3895C3.84648 100.774 4.88222 102.171 6.32908 102.171H18.5399C17.093 102.171 16.0573 100.774 16.4781 99.3895Z" fill="#FF624B"/>
<path d="M58.4749 81.3419H7.51452C5.9292 81.3419 4.64429 80.0567 4.64429 78.4717V78.4665C4.64429 76.8812 5.9295 75.5963 7.51452 75.5963H58.4746C60.0599 75.5963 61.3448 76.8815 61.3448 78.4665V78.4717C61.3451 80.0567 60.0599 81.3419 58.4749 81.3419Z" fill="#FFC34C"/>
<path d="M35.2883 80.283L29.1303 97.1961C28.588 98.6857 26.9408 99.4536 25.4512 98.9114L25.4463 98.9095C23.9568 98.3673 23.1888 96.72 23.7311 95.2305L29.8891 78.3174C30.4313 76.8278 32.0786 76.0599 33.5681 76.6021L33.573 76.604C35.0629 77.1462 35.8308 78.7935 35.2883 80.283Z" fill="#FFC34C"/>
<path d="M35.3657 77.8611L44.6958 104.689C45.2164 106.186 44.425 107.822 42.9275 108.343L42.9223 108.345C41.4251 108.865 39.7892 108.074 39.2683 106.576L29.9381 79.7487C29.4175 78.2515 30.2089 76.6155 31.7064 76.0946L31.7116 76.0928C33.2091 75.5722 34.845 76.3639 35.3657 77.8611Z" fill="#FFC34C"/>
<path d="M32.9946 86.0152C37.1288 86.0152 40.4803 82.6638 40.4803 78.5296C40.4803 74.3954 37.1288 71.044 32.9946 71.044C28.8605 71.044 25.509 74.3954 25.509 78.5296C25.509 82.6638 28.8605 86.0152 32.9946 86.0152Z" fill="#A56021"/>
<path d="M30.7732 78.5293C30.7732 75.323 32.7932 72.5955 35.6265 71.5292C34.8067 71.2209 33.9219 71.044 32.9942 71.044C28.86 71.044 25.5085 74.3952 25.5085 78.5296C25.5085 82.664 28.86 86.0155 32.9942 86.0155C33.9219 86.0155 34.8064 85.8386 35.6265 85.5303C32.7932 84.4638 30.7732 81.7356 30.7732 78.5293Z" fill="#8C4C17"/>
<path d="M37.3192 82.2429C37.1954 82.2429 37.07 82.2304 36.9441 82.2041C35.9547 81.998 35.3197 81.0287 35.5262 80.0393C35.9837 77.845 34.6347 76.894 34.3596 76.7256L34.3865 76.7412L36.1822 73.5522C37.6562 74.3824 39.9314 76.84 39.1089 80.7859C38.9286 81.6494 38.1674 82.2429 37.3192 82.2429Z" fill="#BF6C0D"/>
<path d="M4.44409 30.7055H14.2128L16.5579 22.3836H6.78914L4.44409 30.7055Z" fill="#FFC34C"/>
<path d="M6.78914 22.3836L4.44409 30.7055L6.78914 22.3836Z" fill="#FFD59A"/>
<path d="M36.5014 22.3835H16.5579L14.2129 30.7054H44.3017L36.5014 22.3835Z" fill="#FFD59A"/>
<path d="M36.5012 22.3836L44.3016 30.7055H53.4597L45.6594 22.3836H36.5012Z" fill="#FFC34C"/>
<path d="M61.9119 30.7055L58.5308 22.3836H45.6594L53.4598 30.7055H61.9119Z" fill="#FFD59A"/>
<path d="M53.2964 50.903C53.1564 50.903 53.0143 50.8868 52.8718 50.853C51.8886 50.6193 51.2807 49.633 51.5143 48.6497L56.338 28.3412C56.5713 27.3579 57.5573 26.7501 58.5412 26.9837C59.5245 27.2173 60.1324 28.2037 59.8987 29.1869L55.0751 49.4955C54.8756 50.3366 54.125 50.903 53.2964 50.903Z" fill="#FCF9DE"/>
<path d="M58.2032 117.445H7.78574L5.03414 126.494C4.73221 127.487 4.5791 128.517 4.5791 129.555V133.326C4.5791 137.484 7.96202 140.867 12.1205 140.867H53.869C58.0275 140.867 61.4105 137.484 61.4105 133.326V129.555C61.4105 128.517 61.2574 127.487 60.9554 126.495L58.2032 117.445Z" fill="#A56021"/>
<path d="M58.3314 129.655C57.5482 129.655 56.8232 129.148 56.5823 128.36L50.3243 107.907C50.0284 106.94 50.5722 105.917 51.5387 105.621C52.5055 105.325 53.5282 105.869 53.824 106.836L60.082 127.289C60.3779 128.255 59.8341 129.278 58.8676 129.574C58.6892 129.629 58.5086 129.655 58.3314 129.655Z" fill="#FCF9DE"/>
<path d="M23.8031 135.465C27.2875 135.465 30.1121 132.64 30.1121 129.156C30.1121 125.672 27.2875 122.847 23.8031 122.847C20.3188 122.847 17.4941 125.672 17.4941 129.156C17.4941 132.64 20.3188 135.465 23.8031 135.465Z" fill="#8C4C17"/>
<path d="M12.2108 129.555C12.2108 128.066 12.4307 126.586 12.8638 125.163L15.2104 117.445H7.78574L5.03414 126.494C4.73221 127.487 4.5791 128.517 4.5791 129.555V133.326C4.5791 137.484 7.96202 140.867 12.1205 140.867H14.8465C13.1984 138.797 12.2111 136.177 12.2111 133.326V129.824V129.555H12.2108Z" fill="#8C4C17"/>
</svg>
