<svg width="719" height="93" viewBox="0 0 719 93" fill="none" xmlns="http://www.w3.org/2000/svg">
<path d="M179.6 61V48.88H167.72V61H164.24V33.8H167.72V45.6H179.6V33.8H183.08V61H179.6ZM206.505 49.88V52.28C206.505 55.1067 205.771 57.3333 204.305 58.96C202.865 60.5867 200.798 61.4 198.105 61.4C195.438 61.4 193.371 60.5867 191.905 58.96C190.438 57.3333 189.705 55.1067 189.705 52.28V49.88C189.705 47.1067 190.425 44.9067 191.865 43.28C193.331 41.6267 195.411 40.8 198.105 40.8C200.798 40.8 202.865 41.6267 204.305 43.28C205.771 44.9067 206.505 47.1067 206.505 49.88ZM203.105 49.88C203.105 47.9867 202.678 46.5067 201.825 45.44C200.971 44.3467 199.731 43.8 198.105 43.8C196.505 43.8 195.265 44.3467 194.385 45.44C193.531 46.5067 193.105 47.9867 193.105 49.88V52.28C193.105 54.2533 193.531 55.7733 194.385 56.84C195.265 57.9067 196.505 58.44 198.105 58.44C199.731 58.44 200.971 57.9067 201.825 56.84C202.678 55.7733 203.105 54.2533 203.105 52.28V49.88ZM236.189 41.2L231.109 61H227.309L223.149 44.76L218.869 61H215.069L210.029 41.2H213.389L215.389 49.48L217.189 57.68L221.469 41.2H224.949L229.229 57.76L230.989 49.52L232.949 41.2H236.189ZM265.333 49.88V52.28C265.333 55.1067 264.599 57.3333 263.133 58.96C261.693 60.5867 259.626 61.4 256.933 61.4C254.266 61.4 252.199 60.5867 250.733 58.96C249.266 57.3333 248.533 55.1067 248.533 52.28V49.88C248.533 47.1067 249.253 44.9067 250.693 43.28C252.159 41.6267 254.239 40.8 256.933 40.8C259.626 40.8 261.693 41.6267 263.133 43.28C264.599 44.9067 265.333 47.1067 265.333 49.88ZM261.933 49.88C261.933 47.9867 261.506 46.5067 260.653 45.44C259.799 44.3467 258.559 43.8 256.933 43.8C255.333 43.8 254.093 44.3467 253.213 45.44C252.359 46.5067 251.933 47.9867 251.933 49.88V52.28C251.933 54.2533 252.359 55.7733 253.213 56.84C254.093 57.9067 255.333 58.44 256.933 58.44C258.559 58.44 259.799 57.9067 260.653 56.84C261.506 55.7733 261.933 54.2533 261.933 52.28V49.88ZM284.413 55.04V44.08H275.213V61H271.933V44.08H268.493V41.2H271.933V38.32C271.933 37.0133 272.173 35.8133 272.653 34.72C273.133 33.6 273.933 32.7067 275.053 32.04C276.173 31.3467 277.68 31 279.573 31C280.747 31 282.027 31.1467 283.413 31.44C284.8 31.7333 286.227 32.2133 287.693 32.88V41.2H294.173V44.08H287.693V54.92C287.693 56.2533 287.907 57.1733 288.333 57.68C288.787 58.16 289.48 58.4 290.413 58.4C290.893 58.4 291.4 58.3333 291.933 58.2C292.493 58.0667 293.12 57.8267 293.813 57.48L294.773 60.2C293.227 61 291.587 61.4 289.853 61.4C288.467 61.4 287.373 61.12 286.573 60.56C285.773 60 285.213 59.24 284.893 58.28C284.573 57.2933 284.413 56.2133 284.413 55.04ZM275.213 38.28V41.2H284.413V34.76C282.627 34.2533 281.04 34 279.653 34C278.187 34 277.08 34.3333 276.333 35C275.587 35.6667 275.213 36.76 275.213 38.28ZM313.466 59.84C312.266 60.4267 311.066 60.8267 309.866 61.04C308.666 61.28 307.559 61.4 306.546 61.4C303.693 61.4 301.559 60.5867 300.146 58.96C298.759 57.3333 298.066 55.1067 298.066 52.28V49.88C298.066 47.1333 298.759 44.9333 300.146 43.28C301.559 41.6267 303.546 40.8 306.106 40.8C307.466 40.8 308.706 41.08 309.826 41.64C310.973 42.1733 311.879 43 312.546 44.12C313.239 45.2133 313.586 46.6267 313.586 48.36C313.586 49.48 313.426 50.76 313.106 52.2H301.306V52.28C301.306 54.3067 301.719 55.84 302.546 56.88C303.399 57.92 304.759 58.44 306.626 58.44C307.479 58.44 308.413 58.3333 309.426 58.12C310.466 57.9067 311.479 57.5733 312.466 57.12L313.466 59.84ZM306.106 43.68C304.559 43.68 303.386 44.1867 302.586 45.2C301.813 46.1867 301.386 47.5867 301.306 49.4H310.266C310.346 48.92 310.386 48.4667 310.386 48.04C310.386 46.5467 309.959 45.4533 309.106 44.76C308.279 44.04 307.279 43.68 306.106 43.68ZM328.782 43.88C328.036 43.88 327.156 44.0667 326.142 44.44C325.156 44.8133 323.956 45.5733 322.542 46.72V61H319.262V41.2H322.382V43.96C323.796 42.76 325.076 41.9333 326.222 41.48C327.396 41.0267 328.516 40.8 329.582 40.8C331.422 40.8 332.822 41.3867 333.782 42.56C334.769 43.7067 335.262 45.3467 335.262 47.48V61H331.982V47.96C331.982 45.24 330.916 43.88 328.782 43.88ZM362.865 61V58.24C361.638 59.4133 360.518 60.24 359.505 60.72C358.518 61.1733 357.491 61.4 356.425 61.4C354.318 61.4 352.691 60.6 351.545 59C350.425 57.4 349.865 55.16 349.865 52.28V49.96C349.865 47.16 350.558 44.9333 351.945 43.28C353.358 41.6267 355.398 40.8 358.065 40.8C358.838 40.8 359.611 40.88 360.385 41.04C361.158 41.2 361.931 41.4267 362.705 41.72V31.4H365.985V61H362.865ZM353.265 52.28C353.265 54.36 353.585 55.8933 354.225 56.88C354.891 57.84 355.878 58.32 357.185 58.32C357.958 58.32 358.758 58.1333 359.585 57.76C360.411 57.36 361.451 56.5467 362.705 55.32V44.76C361.931 44.4133 361.185 44.1733 360.465 44.04C359.745 43.88 359.038 43.8 358.345 43.8C356.531 43.8 355.225 44.3467 354.425 45.44C353.651 46.5333 353.265 48.04 353.265 49.96V52.28ZM388.731 49.88V52.28C388.731 55.1067 387.998 57.3333 386.531 58.96C385.091 60.5867 383.025 61.4 380.331 61.4C377.665 61.4 375.598 60.5867 374.131 58.96C372.665 57.3333 371.931 55.1067 371.931 52.28V49.88C371.931 47.1067 372.651 44.9067 374.091 43.28C375.558 41.6267 377.638 40.8 380.331 40.8C383.025 40.8 385.091 41.6267 386.531 43.28C387.998 44.9067 388.731 47.1067 388.731 49.88ZM385.331 49.88C385.331 47.9867 384.905 46.5067 384.051 45.44C383.198 44.3467 381.958 43.8 380.331 43.8C378.731 43.8 377.491 44.3467 376.611 45.44C375.758 46.5067 375.331 47.9867 375.331 49.88V52.28C375.331 54.2533 375.758 55.7733 376.611 56.84C377.491 57.9067 378.731 58.44 380.331 58.44C381.958 58.44 383.198 57.9067 384.051 56.84C384.905 55.7733 385.331 54.2533 385.331 52.28V49.88ZM410.163 63C409.309 65.4 408.256 67.1467 407.003 68.24C405.776 69.36 404.056 69.92 401.843 69.92V66.68C402.749 66.6533 403.523 66.5333 404.163 66.32C404.829 66.1067 405.416 65.6667 405.923 65C406.456 64.36 406.963 63.4 407.443 62.12L407.843 61.12L400.723 41.2H404.083L407.403 50.84L409.443 57L411.403 50.84L414.643 41.2H417.883L410.163 63ZM437.559 49.88V52.28C437.559 55.1067 436.826 57.3333 435.359 58.96C433.919 60.5867 431.853 61.4 429.159 61.4C426.493 61.4 424.426 60.5867 422.959 58.96C421.493 57.3333 420.759 55.1067 420.759 52.28V49.88C420.759 47.1067 421.479 44.9067 422.919 43.28C424.386 41.6267 426.466 40.8 429.159 40.8C431.853 40.8 433.919 41.6267 435.359 43.28C436.826 44.9067 437.559 47.1067 437.559 49.88ZM434.159 49.88C434.159 47.9867 433.733 46.5067 432.879 45.44C432.026 44.3467 430.786 43.8 429.159 43.8C427.559 43.8 426.319 44.3467 425.439 45.44C424.586 46.5067 424.159 47.9867 424.159 49.88V52.28C424.159 54.2533 424.586 55.7733 425.439 56.84C426.319 57.9067 427.559 58.44 429.159 58.44C430.786 58.44 432.026 57.9067 432.879 56.84C433.733 55.7733 434.159 54.2533 434.159 52.28V49.88ZM455.72 61V58.2C454.333 59.4 453.093 60.24 452 60.72C450.907 61.1733 449.813 61.4 448.72 61.4C446.96 61.4 445.613 60.8267 444.68 59.68C443.747 58.5067 443.28 56.8667 443.28 54.76V41.2H446.56V54.28C446.56 55.6667 446.8 56.6933 447.28 57.36C447.787 58 448.533 58.32 449.52 58.32C450.267 58.32 451.107 58.1333 452.04 57.76C452.973 57.3867 454.133 56.64 455.52 55.52V41.2H458.8V61H455.72ZM483.895 43.88C483.148 43.88 482.308 44.08 481.375 44.48C480.441 44.8533 479.268 45.6 477.855 46.72V61H474.575V41.2H477.695V43.96C479.108 42.7867 480.361 41.9733 481.455 41.52C482.548 41.04 483.628 40.8 484.695 40.8C485.948 40.8 486.988 41.0933 487.815 41.68C488.641 42.24 489.255 43.0533 489.655 44.12C491.121 42.8667 492.428 42 493.575 41.52C494.748 41.04 495.895 40.8 497.015 40.8C498.775 40.8 500.121 41.3867 501.055 42.56C501.988 43.7067 502.455 45.3467 502.455 47.48V61H499.175V47.96C499.175 45.24 498.188 43.88 496.215 43.88C495.468 43.88 494.615 44.08 493.655 44.48C492.721 44.8533 491.548 45.6 490.135 46.72C490.161 46.8267 490.175 46.9467 490.175 47.08C490.175 47.2133 490.175 47.3467 490.175 47.48V61H486.895V47.96C486.895 45.24 485.895 43.88 483.895 43.88ZM523.82 61.2C522.594 61.2 521.607 60.92 520.86 60.36C520.14 59.8 519.634 59.1067 519.34 58.28C518.034 59.4267 516.847 60.24 515.78 60.72C514.714 61.1733 513.647 61.4 512.58 61.4C510.847 61.4 509.567 60.84 508.74 59.72C507.914 58.6 507.5 57.2267 507.5 55.6C507.5 54.5067 507.7 53.5333 508.1 52.68C508.5 51.8267 509.18 51.16 510.14 50.68C511.1 50.1733 512.394 49.92 514.02 49.92C514.74 49.92 515.527 49.9733 516.38 50.08C517.234 50.16 518.1 50.2667 518.98 50.4V47.72C518.98 46.2267 518.647 45.2133 517.98 44.68C517.34 44.12 516.394 43.84 515.14 43.84C513.434 43.84 511.527 44.3067 509.42 45.24L508.38 42.52C509.607 41.96 510.78 41.5333 511.9 41.24C513.02 40.9467 514.154 40.8 515.3 40.8C517.167 40.8 518.594 41.1067 519.58 41.72C520.567 42.3333 521.247 43.1467 521.62 44.16C521.994 45.1733 522.18 46.28 522.18 47.48V56.04C522.18 56.6533 522.3 57.1733 522.54 57.6C522.78 58 523.26 58.2 523.98 58.2H524.42V61.2H523.82ZM510.74 55.56C510.74 56.4667 510.954 57.2 511.38 57.76C511.807 58.32 512.42 58.6 513.22 58.6C513.914 58.6 514.714 58.4 515.62 58C516.527 57.5733 517.647 56.7333 518.98 55.48V52.96C517.167 52.6667 515.567 52.52 514.18 52.52C512.954 52.52 512.074 52.7733 511.54 53.28C511.007 53.7867 510.74 54.5467 510.74 55.56ZM541.267 61L535.707 51.84C535.2 52.3467 534.667 52.8667 534.107 53.4C533.547 53.9333 532.96 54.4667 532.347 55V61H529.067V31.4H532.347V51.32C534.08 49.64 535.614 48 536.947 46.4C538.307 44.8 539.547 43.0667 540.667 41.2H544.427C543.467 42.8 542.48 44.28 541.467 45.64C540.48 46.9733 539.36 48.3333 538.107 49.72L545.227 61H541.267ZM563.271 59.84C562.071 60.4267 560.871 60.8267 559.671 61.04C558.471 61.28 557.364 61.4 556.351 61.4C553.497 61.4 551.364 60.5867 549.951 58.96C548.564 57.3333 547.871 55.1067 547.871 52.28V49.88C547.871 47.1333 548.564 44.9333 549.951 43.28C551.364 41.6267 553.351 40.8 555.911 40.8C557.271 40.8 558.511 41.08 559.631 41.64C560.777 42.1733 561.684 43 562.351 44.12C563.044 45.2133 563.391 46.6267 563.391 48.36C563.391 49.48 563.231 50.76 562.911 52.2H551.111V52.28C551.111 54.3067 551.524 55.84 552.351 56.88C553.204 57.92 554.564 58.44 556.431 58.44C557.284 58.44 558.217 58.3333 559.231 58.12C560.271 57.9067 561.284 57.5733 562.271 57.12L563.271 59.84ZM555.911 43.68C554.364 43.68 553.191 44.1867 552.391 45.2C551.617 46.1867 551.191 47.5867 551.111 49.4H560.071C560.151 48.92 560.191 48.4667 560.191 48.04C560.191 46.5467 559.764 45.4533 558.911 44.76C558.084 44.04 557.084 43.68 555.911 43.68ZM580.858 50.4C580.858 52.9067 581.351 54.84 582.338 56.2C583.351 57.5333 584.898 58.2 586.978 58.2C587.884 58.2 588.778 58.0933 589.658 57.88C590.538 57.6667 591.591 57.2933 592.818 56.76L593.978 59.72C592.671 60.3067 591.431 60.7333 590.258 61C589.084 61.2667 587.951 61.4 586.858 61.4C583.711 61.4 581.324 60.4133 579.698 58.44C578.071 56.4667 577.258 53.7867 577.258 50.4V44.4C577.258 41.0133 578.071 38.3333 579.698 36.36C581.324 34.3867 583.711 33.4 586.858 33.4C587.951 33.4 589.084 33.5333 590.258 33.8C591.458 34.0667 592.671 34.4933 593.898 35.08L592.778 38.08C590.618 37.12 588.684 36.64 586.978 36.64C584.898 36.64 583.351 37.3067 582.338 38.64C581.351 39.9733 580.858 41.8933 580.858 44.4V50.4ZM613.692 49.88V52.28C613.692 55.1067 612.959 57.3333 611.492 58.96C610.052 60.5867 607.986 61.4 605.292 61.4C602.626 61.4 600.559 60.5867 599.092 58.96C597.626 57.3333 596.892 55.1067 596.892 52.28V49.88C596.892 47.1067 597.612 44.9067 599.052 43.28C600.519 41.6267 602.599 40.8 605.292 40.8C607.986 40.8 610.052 41.6267 611.492 43.28C612.959 44.9067 613.692 47.1067 613.692 49.88ZM610.292 49.88C610.292 47.9867 609.866 46.5067 609.012 45.44C608.159 44.3467 606.919 43.8 605.292 43.8C603.692 43.8 602.452 44.3467 601.572 45.44C600.719 46.5067 600.292 47.9867 600.292 49.88V52.28C600.292 54.2533 600.719 55.7733 601.572 56.84C602.452 57.9067 603.692 58.44 605.292 58.44C606.919 58.44 608.159 57.9067 609.012 56.84C609.866 55.7733 610.292 54.2533 610.292 52.28V49.88ZM632.573 61V44.08H623.573V61H620.293V44.08H616.853V41.2H620.293V38.2C620.293 37 620.493 35.88 620.893 34.84C621.293 33.8 621.959 32.9733 622.893 32.36C623.826 31.72 625.066 31.4 626.613 31.4C628.053 31.4 629.506 31.6933 630.973 32.28L630.013 35.08C628.813 34.6267 627.746 34.4 626.813 34.4C625.799 34.4 624.999 34.7067 624.413 35.32C623.853 35.9067 623.573 36.8667 623.573 38.2V41.2H632.573V37.92C632.573 36.6933 632.773 35.56 633.173 34.52C633.599 33.4533 634.279 32.6 635.213 31.96C636.146 31.32 637.386 31 638.933 31C640.586 31 642.213 31.3467 643.813 32.04L642.893 34.8C641.533 34.2667 640.346 34 639.333 34C638.213 34 637.346 34.3067 636.733 34.92C636.146 35.5333 635.853 36.52 635.853 37.88V41.2H642.333V44.08H635.853V61H632.573ZM660.302 59.84C659.102 60.4267 657.902 60.8267 656.702 61.04C655.502 61.28 654.395 61.4 653.382 61.4C650.529 61.4 648.395 60.5867 646.982 58.96C645.595 57.3333 644.902 55.1067 644.902 52.28V49.88C644.902 47.1333 645.595 44.9333 646.982 43.28C648.395 41.6267 650.382 40.8 652.942 40.8C654.302 40.8 655.542 41.08 656.662 41.64C657.809 42.1733 658.715 43 659.382 44.12C660.075 45.2133 660.422 46.6267 660.422 48.36C660.422 49.48 660.262 50.76 659.942 52.2H648.142V52.28C648.142 54.3067 648.555 55.84 649.382 56.88C650.235 57.92 651.595 58.44 653.462 58.44C654.315 58.44 655.249 58.3333 656.262 58.12C657.302 57.9067 658.315 57.5733 659.302 57.12L660.302 59.84ZM652.942 43.68C651.395 43.68 650.222 44.1867 649.422 45.2C648.649 46.1867 648.222 47.5867 648.142 49.4H657.102C657.182 48.92 657.222 48.4667 657.222 48.04C657.222 46.5467 656.795 45.4533 655.942 44.76C655.115 44.04 654.115 43.68 652.942 43.68ZM680.458 59.84C679.258 60.4267 678.058 60.8267 676.858 61.04C675.658 61.28 674.551 61.4 673.538 61.4C670.685 61.4 668.551 60.5867 667.138 58.96C665.751 57.3333 665.058 55.1067 665.058 52.28V49.88C665.058 47.1333 665.751 44.9333 667.138 43.28C668.551 41.6267 670.538 40.8 673.098 40.8C674.458 40.8 675.698 41.08 676.818 41.64C677.965 42.1733 678.871 43 679.538 44.12C680.231 45.2133 680.578 46.6267 680.578 48.36C680.578 49.48 680.418 50.76 680.098 52.2H668.298V52.28C668.298 54.3067 668.711 55.84 669.538 56.88C670.391 57.92 671.751 58.44 673.618 58.44C674.471 58.44 675.405 58.3333 676.418 58.12C677.458 57.9067 678.471 57.5733 679.458 57.12L680.458 59.84ZM673.098 43.68C671.551 43.68 670.378 44.1867 669.578 45.2C668.805 46.1867 668.378 47.5867 668.298 49.4H677.258C677.338 48.92 677.378 48.4667 677.378 48.04C677.378 46.5467 676.951 45.4533 676.098 44.76C675.271 44.04 674.271 43.68 673.098 43.68ZM689.13 36.44C688.223 36.44 687.25 36.56 686.21 36.8C685.17 37.04 684.023 37.44 682.77 38L681.65 35.12C682.983 34.5067 684.29 34.0667 685.57 33.8C686.877 33.5333 688.103 33.4 689.25 33.4C692.023 33.4 694.05 34.0533 695.33 35.36C696.61 36.64 697.25 38.24 697.25 40.16V40.88C697.25 42.3467 697.01 43.6 696.53 44.64C696.05 45.68 695.317 46.64 694.33 47.52L692.97 48.76C692.09 49.56 691.53 50.2533 691.29 50.84C691.05 51.4 690.93 52.0933 690.93 52.92V53.72H687.57V52.8C687.57 51.8933 687.663 51.12 687.85 50.48C688.037 49.8133 688.357 49.1867 688.81 48.6C689.263 47.9867 689.877 47.32 690.65 46.6L692.01 45.36C692.65 44.7733 693.117 44.16 693.41 43.52C693.703 42.8533 693.85 42.0267 693.85 41.04V40.32C693.85 39.1467 693.45 38.2133 692.65 37.52C691.877 36.8 690.703 36.44 689.13 36.44ZM691.13 61H687.45V57.36H691.13V61Z" fill="white"/>
<path d="M134.514 28.7659C127.297 20.3367 112.36 21.2833 101.152 30.8802C89.9425 40.4771 86.7063 55.09 93.9232 63.5192C101.14 71.9484 116.077 71.0018 127.286 61.4049C138.495 51.808 141.731 37.1951 134.514 28.7659ZM122.857 56.2314C117.853 60.515 111.686 62.826 106.36 62.4132C104.201 62.2458 101.189 61.5335 99.0964 59.0898C96.3109 55.8364 96.7609 51.441 97.2768 49.1103C98.3096 44.4466 101.336 39.6878 105.581 36.0537C110.584 31.7701 116.75 29.4591 122.077 29.8719C124.236 30.0393 127.248 30.7516 129.34 33.1953C134.023 38.6639 131.054 49.2131 122.857 56.2314Z" fill="#FFF4C1"/>
<path d="M112.848 61.6948C110.637 62.3161 108.435 62.5739 106.36 62.4129C104.201 62.2455 101.189 61.5332 99.0964 59.0895C96.3109 55.8361 96.7609 51.4407 97.2769 49.11C98.3097 44.4463 101.336 39.6875 105.581 36.0534C110.584 31.7698 116.75 29.4588 122.077 29.8716C123.446 29.9776 125.158 30.3051 126.762 31.1523C126.977 29.1965 127.091 27.2105 127.091 25.1974V23.9434C119.402 21.5064 109.294 23.9081 101.151 30.8799C89.9419 40.4768 86.7057 55.0897 93.9226 63.5189C96.5916 66.6364 100.318 68.4677 104.52 69.0568C107.545 66.8935 110.335 64.4237 112.848 61.6948Z" fill="#FCE575"/>
<path d="M63.6496 79.0911H63.6474C33.883 79.0911 9.75403 54.9621 9.75403 25.1977V22.226C9.75403 20.4682 11.1789 19.0433 12.9368 19.0433H114.36C116.118 19.0433 117.543 20.4682 117.543 22.226V25.1977C117.543 54.9624 93.4143 79.0911 63.6496 79.0911Z" fill="#FFF4C1"/>
<path d="M79.5633 75.9083H79.5611C49.7967 75.9083 25.6677 51.7793 25.6677 22.015V19.0433H12.9368C11.1789 19.0433 9.75403 20.4682 9.75403 22.226V25.1977C9.75403 54.9621 33.883 79.0911 63.6474 79.0911H63.6496C70.1328 79.0911 76.3484 77.9456 82.1057 75.8469C81.2629 75.8864 80.416 75.9083 79.5633 75.9083Z" fill="#FCE575"/>
<path d="M63.6477 72.7256C37.511 72.7256 16.2344 51.5193 16.1201 25.4088H111.177C111.063 51.519 89.7862 72.7256 63.6496 72.7256H63.6477Z" fill="#A56021"/>
<path d="M81.684 63.3161C80.8905 63.3161 80.1493 62.8177 79.8778 62.0249C79.5357 61.0274 80.0675 59.9412 81.065 59.5993C96.5748 54.2826 101.249 33.561 101.294 33.3525C101.519 32.322 102.537 31.6698 103.566 31.8923C104.597 32.1167 105.251 33.1336 105.026 34.1645C104.822 35.1024 99.8275 57.205 82.3034 63.2124C82.0984 63.2824 81.8893 63.3161 81.684 63.3161Z" fill="#BF6C0D"/>
<path d="M45.93 54.1066C48.5667 54.1066 50.7041 51.9691 50.7041 49.3325C50.7041 46.6958 48.5667 44.5583 45.93 44.5583C43.2933 44.5583 41.1559 46.6958 41.1559 49.3325C41.1559 51.9691 43.2933 54.1066 45.93 54.1066Z" fill="#8C4C17"/>
<path d="M58.3144 63.8429C60.9511 63.8429 63.0885 61.7054 63.0885 59.0688C63.0885 56.4321 60.9511 54.2946 58.3144 54.2946C55.6777 54.2946 53.5403 56.4321 53.5403 59.0688C53.5403 61.7054 55.6777 63.8429 58.3144 63.8429Z" fill="#8C4C17"/>
<path d="M108.971 92.5649H18.3267C15.6901 92.5649 13.5526 90.4274 13.5526 87.7908V81.107H113.745V87.7908C113.745 90.4274 111.607 92.5649 108.971 92.5649Z" fill="#FFD551"/>
<path d="M26.2836 88.7456H113.649C113.711 88.4372 113.744 88.118 113.744 87.7908V81.107H13.5526V87.7908C13.5526 90.4274 15.6901 92.5649 18.3267 92.5649H26.2836V88.7456Z" fill="#FFC34C"/>
<path d="M117.212 85.2446H8.80241C6.93509 85.2446 5.1849 84.3346 4.11264 82.806L0.233197 77.2763C-0.358793 76.4325 0.244654 75.2721 1.27523 75.2721H125.683C126.774 75.2721 127.359 76.5544 126.645 77.3791L121.541 83.2678C120.453 84.523 118.873 85.2446 117.212 85.2446Z" fill="#FFD551"/>
<path d="M114.228 81.319H92.4642C91.4098 81.319 90.5546 80.4638 90.5546 79.4093C90.5546 78.3549 91.4098 77.4997 92.4642 77.4997H114.228C115.283 77.4997 116.138 78.3549 116.138 79.4093C116.138 80.4638 115.283 81.319 114.228 81.319Z" fill="#FFDF74"/>
<path d="M24.1919 15.9137C20.2586 15.9137 16.8942 18.7839 16.3229 22.6754C16.1892 23.5847 16.1201 24.515 16.1201 25.4619H111.177C111.177 24.5153 111.108 23.585 110.974 22.6754C110.403 18.7839 107.039 15.9137 103.105 15.9137H24.1919Z" fill="#FFD59A"/>
<path d="M61.0808 72.6556C41.4312 65.4829 27.1321 47.1994 25.7775 25.4091H16.1201C16.2306 50.6587 36.1322 71.3214 61.0808 72.6556Z" fill="#8C4C17"/>
<path d="M25.668 19.0436L25.7807 15.914C25.7807 15.914 21.4496 15.1979 17.8636 19.0436C17.0724 20.0773 16.5234 21.3113 16.3229 22.6761C16.1895 23.5854 16.1201 24.5157 16.1201 25.4622H25.7807C25.7088 24.3222 25.668 23.1735 25.668 22.0153V19.0436Z" fill="#FFC34C"/>
<path d="M20.6313 15.9137C20.6313 7.12485 27.7562 -3.05176e-05 36.5451 -3.05176e-05H89.6319C98.4207 -3.05176e-05 105.546 7.12485 105.546 15.9137C105.546 18.4185 103.515 20.4491 101.01 20.4491H25.1668C22.6619 20.4491 20.6313 18.4185 20.6313 15.9137Z" fill="#FFEACF"/>
<path d="M33.3623 15.9137C33.3623 7.12485 40.4872 -3.05176e-05 49.276 -3.05176e-05H36.5451C27.7562 -3.05176e-05 20.6313 7.12485 20.6313 15.9137C20.6313 18.4185 22.6619 20.4491 25.1668 20.4491H37.8977C35.3929 20.4491 33.3623 18.4185 33.3623 15.9137Z" fill="#FFD59A"/>
</svg>
