<svg width="200" height="49" viewBox="0 0 200 49" fill="none" xmlns="http://www.w3.org/2000/svg">
<path d="M47.1419 7.14009V48.1253H35.8599V7.14009C35.8599 4.02471 38.3855 1.49911 41.5008 1.49911C44.6163 1.49911 47.1419 4.02471 47.1419 7.14009Z" fill="#BF6C0D"/>
<path d="M44.008 2.08681C43.2525 1.71131 42.4017 1.49911 41.5008 1.49911C38.3855 1.49911 35.8599 4.02471 35.8599 7.14009V48.1253H40.8742V7.14009C40.8742 4.92554 42.1509 3.01013 44.008 2.08681Z" fill="#A56021"/>
<path d="M45.8356 48.3208V46.6811C45.8356 43.5422 43.8152 40.9975 41.3228 40.9975C38.8305 40.9975 36.8101 43.5422 36.8101 46.6811V48.3208H45.8356Z" fill="#8C4C17"/>
<path d="M37.4905 49.0023C37.8184 49.0023 38.0565 48.6933 37.9751 48.3757C37.8746 47.9834 37.8205 47.5676 37.8205 47.1373C37.8205 44.7591 39.4714 42.8243 41.5007 42.8243C43.5299 42.8243 45.1809 44.7591 45.1809 47.1373C45.1809 47.5676 45.1267 47.9834 45.0262 48.3757C44.9447 48.6933 45.1829 49.0023 45.5109 49.0023H46.5954C46.8345 49.0023 47.0428 48.8341 47.0876 48.5993C47.1775 48.1286 47.2254 47.6396 47.2254 47.1373C47.2254 43.4319 44.6623 40.4282 41.5007 40.4282C38.339 40.4282 35.7759 43.4319 35.7759 47.1373C35.7759 47.6396 35.824 48.1288 35.9137 48.5993C35.9585 48.8341 36.1668 49.0023 36.4059 49.0023H37.4905Z" fill="#E58D23"/>
<path d="M45.5018 16.6461C45.0686 16.6461 44.7173 16.295 44.7173 15.8617V12.301C44.7173 11.8677 45.0686 11.5165 45.5018 11.5165C45.9349 11.5165 46.2862 11.8677 46.2862 12.301V15.8617C46.2862 16.295 45.9349 16.6461 45.5018 16.6461Z" fill="#E58D23"/>
<path d="M45.5018 38.0539C45.0686 38.0539 44.7173 37.7025 44.7173 37.2694V19.2605C44.7173 18.8272 45.0686 18.476 45.5018 18.476C45.9349 18.476 46.2862 18.8272 46.2862 19.2605V37.2694C46.2862 37.7025 45.9349 38.0539 45.5018 38.0539Z" fill="#E58D23"/>
<path d="M44.0076 8.44022C45.0907 8.44022 45.9687 7.56217 45.9687 6.47905C45.9687 5.39593 45.0907 4.51788 44.0076 4.51788C42.9244 4.51788 42.0464 5.39593 42.0464 6.47905C42.0464 7.56217 42.9244 8.44022 44.0076 8.44022Z" fill="#A56021"/>
<path d="M23.6934 22.7354C29.9716 22.7354 35.0611 17.6459 35.0611 11.3677C35.0611 5.0895 29.9716 0 23.6934 0C17.4152 0 12.3257 5.0895 12.3257 11.3677C12.3257 17.6459 17.4152 22.7354 23.6934 22.7354Z" fill="#FFA730"/>
<path d="M23.6935 21.6042C18.0492 21.6042 13.457 17.0121 13.457 11.3677C13.457 5.72333 18.0492 1.1312 23.6935 1.1312C29.338 1.1312 33.9302 5.72333 33.9302 11.3677C33.9302 17.0121 29.338 21.6042 23.6935 21.6042Z" fill="#FFB74B"/>
<path d="M23.8168 15.645C26.1667 15.645 28.0716 13.7401 28.0716 11.3902C28.0716 9.04032 26.1667 7.13538 23.8168 7.13538C21.467 7.13538 19.562 9.04032 19.562 11.3902C19.562 13.7401 21.467 15.645 23.8168 15.645Z" fill="#FFD551"/>
<path d="M33.155 12.1747H14.4783C14.0452 12.1747 13.6938 11.8235 13.6938 11.3902C13.6938 10.9569 14.0452 10.6057 14.4783 10.6057H33.155C33.5882 10.6057 33.9395 10.9569 33.9395 11.3902C33.9395 11.8235 33.5883 12.1747 33.155 12.1747Z" fill="#FFD551"/>
<path d="M30.4197 18.7779C30.2189 18.7779 30.0182 18.7013 29.865 18.5482L16.6585 5.34171C16.3521 5.03538 16.3521 4.53868 16.6585 4.23234C16.9648 3.92601 17.4616 3.92601 17.7678 4.23234L30.9743 17.4388C31.2807 17.7452 31.2807 18.2419 30.9743 18.5482C30.8214 18.7013 30.6205 18.7779 30.4197 18.7779Z" fill="#FFD551"/>
<path d="M23.8167 21.5131C23.3835 21.5131 23.0322 21.1619 23.0322 20.7286V2.05177C23.0322 1.61848 23.3835 1.2673 23.8167 1.2673C24.2498 1.2673 24.6012 1.61848 24.6012 2.05177V20.7285C24.6012 21.1618 24.2498 21.5131 23.8167 21.5131Z" fill="#FFD551"/>
<path d="M17.2132 18.7779C17.0124 18.7779 16.8117 18.7013 16.6585 18.5482C16.3521 18.2419 16.3521 17.7452 16.6585 17.4388L29.865 4.23234C30.1713 3.92601 30.6681 3.92601 30.9743 4.23234C31.2807 4.53868 31.2807 5.03538 30.9743 5.34171L17.7678 18.5482C17.6147 18.7013 17.4139 18.7779 17.2132 18.7779Z" fill="#FFD551"/>
<path d="M58.3477 14.6078L29.3668 43.5888L21.3892 35.6111L50.3701 6.63018C52.573 4.42727 56.1447 4.42727 58.3477 6.63018C60.5507 8.8331 60.5507 12.4048 58.3477 14.6078Z" fill="#BF6C0D"/>
<path d="M59.7049 8.81858C59.4362 8.01895 58.9846 7.26717 58.3476 6.63018C56.1447 4.42727 52.573 4.42727 50.3701 6.63018L21.3892 35.6111L24.9348 39.1568L53.9158 10.1758C55.4817 8.60978 57.739 8.15832 59.7049 8.81858Z" fill="#A56021"/>
<path d="M28.3049 42.8035L29.4643 41.6441C31.6838 39.4246 32.0545 36.1965 30.2922 34.4342C28.5298 32.6717 25.3018 33.0424 23.0823 35.2621L21.9229 36.4215L28.3049 42.8035Z" fill="#8C4C17"/>
<path d="M21.9225 37.3844C22.1543 37.6162 22.5411 37.5663 22.7081 37.2842C22.9144 36.9356 23.1702 36.6034 23.4745 36.2991C25.1562 34.6175 27.6917 34.4168 29.1266 35.8517C30.5615 37.2866 30.3608 39.8222 28.6792 41.5038C28.375 41.808 28.0427 42.0638 27.6942 42.2702C27.412 42.4372 27.3619 42.8241 27.5939 43.0559L28.3607 43.8227C28.5298 43.9917 28.796 44.0202 28.9938 43.8858C29.3901 43.6165 29.7699 43.3047 30.125 42.9494C32.7451 40.3293 33.0567 36.393 30.8211 34.1574C28.5855 31.9218 24.6491 32.2334 22.029 34.8535C21.6738 35.2087 21.362 35.5885 21.0926 35.9847C20.9582 36.1824 20.9867 36.4487 21.1558 36.6178L21.9225 37.3844Z" fill="#E58D23"/>
<path d="M35.491 34.7525C35.2902 34.7525 35.0895 34.6759 34.9363 34.5228C34.63 34.2165 34.63 33.7198 34.9363 33.4135L47.6705 20.6792C47.9769 20.3729 48.4736 20.3729 48.7799 20.6792C49.0862 20.9855 49.0862 21.4822 48.7799 21.7886L36.0457 34.5228C35.8926 34.6759 35.6919 34.7525 35.491 34.7525Z" fill="#E58D23"/>
<path d="M56.4035 13.7835C57.4867 13.7835 58.3647 12.9054 58.3647 11.8223C58.3647 10.7392 57.4867 9.86115 56.4035 9.86115C55.3204 9.86115 54.4424 10.7392 54.4424 11.8223C54.4424 12.9054 55.3204 13.7835 56.4035 13.7835Z" fill="#A56021"/>
<path d="M17.7368 25.9979C19.7509 23.7382 20.71 21.3664 19.8966 20.4394C19.0219 19.4425 16.417 20.48 13.9754 22.7582C13.8779 19.5283 12.842 16.9463 11.5522 16.8621C10.276 16.7787 9.20012 19.1708 9.02126 22.3342C6.76161 20.3201 4.38977 19.3611 3.46266 20.1744C2.46508 21.0496 3.50437 23.6572 5.7856 26.1C2.60864 26.2179 0.0854005 27.2442 0.00211629 28.5187C-0.0812987 29.7949 2.3108 30.8708 5.47403 31.0496C3.45992 33.3093 2.5009 35.6811 3.31427 36.6081C4.18895 37.605 6.7939 36.5675 9.23542 34.2893C9.33296 37.5192 10.3688 40.101 11.6586 40.1854C12.9348 40.2688 14.0107 37.8767 14.1896 34.7133C16.4493 36.7275 18.8211 37.6865 19.7482 36.8731C20.7458 35.9979 19.7065 33.3903 17.4253 30.9475C20.6022 30.8296 23.1255 29.8034 23.2087 28.5287C23.2922 27.2527 20.9001 26.1766 17.7368 25.9979Z" fill="#8C4C17"/>
<path d="M11.7208 38.8906C11.3324 38.5481 10.5709 36.983 10.4886 34.2515L10.405 31.4835L8.38032 33.3729C6.64207 34.9949 5.04895 35.7336 4.30449 35.7336C4.29416 35.7336 4.28448 35.7335 4.27559 35.7333C4.25703 35.2775 4.67632 33.829 6.41013 31.8837L8.13857 29.9447L5.54512 29.7981C2.92945 29.6501 1.60265 28.9161 1.29736 28.5811C1.63534 28.2005 3.16492 27.4518 5.83237 27.3527L8.57565 27.2508L6.70195 25.2444C4.86773 23.2802 4.30579 21.6566 4.33273 21.1393C4.3424 21.1389 4.35286 21.1388 4.36424 21.1388C5.05404 21.1388 6.54453 21.8057 8.18734 23.27L10.1264 24.9985L10.273 22.405C10.421 19.7886 11.1554 18.4619 11.4902 18.157C11.8786 18.4996 12.6401 20.0647 12.7225 22.7961L12.8061 25.5641L14.8307 23.6747C16.569 22.0527 18.1621 21.314 18.9066 21.314C18.9169 21.314 18.9266 21.3141 18.9354 21.3144C18.954 21.7701 18.5347 23.2187 16.8009 25.1639L15.0725 27.1029L17.6659 27.2495C20.2816 27.3974 21.6084 28.1315 21.9137 28.4665C21.5757 28.8471 20.0461 29.5958 17.3787 29.695L14.6354 29.7968L16.5091 31.8032C18.3433 33.7674 18.9052 35.391 18.8783 35.9083C18.8686 35.9087 18.8471 35.9088 18.8469 35.9088C18.1571 35.9088 16.6664 35.2418 15.0237 33.7776L13.0846 32.0491L12.9381 34.6426C12.7902 37.259 12.0557 38.5857 11.7208 38.8906Z" fill="#A56021"/>
<path d="M14.3423 27.3962C15.2413 26.3876 15.6694 25.3289 15.3064 24.915C14.916 24.47 13.7532 24.9331 12.6634 25.95C12.6199 24.5083 12.1574 23.3558 11.5818 23.3183C11.0121 23.281 10.5319 24.3488 10.452 25.7608C9.44343 24.8618 8.38466 24.4336 7.97085 24.7967C7.52554 25.1874 7.98955 26.3513 9.00779 27.4417C7.58973 27.4944 6.46337 27.9524 6.42624 28.5214C6.38898 29.091 7.45677 29.5713 8.86881 29.6511C7.96981 30.6597 7.54175 31.7185 7.9047 32.1323C8.2951 32.5773 9.45794 32.1142 10.5477 31.0973C10.5912 32.539 11.0537 33.6915 11.6293 33.7291C12.199 33.7663 12.6792 32.6985 12.7591 31.2865C13.7677 32.1855 14.8264 32.6137 15.2402 32.2506C15.6856 31.8599 15.2216 30.696 14.2034 29.6056C15.6215 29.5529 16.7479 29.095 16.785 28.5259C16.822 27.9563 15.7543 27.4761 14.3423 27.3962Z" fill="#8C4C17"/>
<path d="M80.336 17.68L75.344 27.472V34H73.256V27.472L68.24 17.68H70.496L74.408 25.408L78.176 17.68H80.336ZM90.9106 27.328V28.768C90.9106 30.464 90.4706 31.8 89.5906 32.776C88.7266 33.752 87.4866 34.24 85.8706 34.24C84.2706 34.24 83.0306 33.752 82.1506 32.776C81.2706 31.8 80.8306 30.464 80.8306 28.768V27.328C80.8306 25.664 81.2626 24.344 82.1266 23.368C83.0066 22.376 84.2546 21.88 85.8706 21.88C87.4866 21.88 88.7266 22.376 89.5906 23.368C90.4706 24.344 90.9106 25.664 90.9106 27.328ZM88.8706 27.328C88.8706 26.192 88.6146 25.304 88.1026 24.664C87.5906 24.008 86.8466 23.68 85.8706 23.68C84.9106 23.68 84.1666 24.008 83.6386 24.664C83.1266 25.304 82.8706 26.192 82.8706 27.328V28.768C82.8706 29.952 83.1266 30.864 83.6386 31.504C84.1666 32.144 84.9106 32.464 85.8706 32.464C86.8466 32.464 87.5906 32.144 88.1026 31.504C88.6146 30.864 88.8706 29.952 88.8706 28.768V27.328ZM101.807 34V32.32C100.975 33.04 100.231 33.544 99.575 33.832C98.919 34.104 98.263 34.24 97.607 34.24C96.551 34.24 95.743 33.896 95.183 33.208C94.623 32.504 94.343 31.52 94.343 30.256V22.12H96.311V29.968C96.311 30.8 96.455 31.416 96.743 31.816C97.047 32.2 97.495 32.392 98.087 32.392C98.535 32.392 99.039 32.28 99.599 32.056C100.159 31.832 100.855 31.384 101.687 30.712V22.12H103.655V34H101.807ZM114.133 23.848C113.413 23.848 112.709 23.976 112.021 24.232C111.349 24.488 110.629 24.976 109.861 25.696V34H107.893V22.12H109.765V24.04C110.581 23.24 111.325 22.68 111.997 22.36C112.685 22.04 113.397 21.88 114.133 21.88V23.848ZM124.452 27.616V34H122.364V17.68H127.476C129.012 17.68 130.196 18.088 131.028 18.904C131.876 19.704 132.3 20.776 132.3 22.12V23.152C132.3 24.112 132.076 24.944 131.628 25.648C131.196 26.352 130.572 26.872 129.756 27.208C130.444 28.312 131.084 29.432 131.676 30.568C132.268 31.704 132.812 32.848 133.308 34H130.908C129.996 31.824 128.932 29.696 127.716 27.616H124.452ZM127.476 19.6H124.452V25.696H127.476C128.292 25.696 128.94 25.472 129.42 25.024C129.9 24.56 130.14 23.936 130.14 23.152V22.12C130.14 21.32 129.9 20.704 129.42 20.272C128.94 19.824 128.292 19.6 127.476 19.6ZM144.962 33.304C144.242 33.656 143.522 33.896 142.802 34.024C142.082 34.168 141.418 34.24 140.81 34.24C139.098 34.24 137.818 33.752 136.97 32.776C136.138 31.8 135.722 30.464 135.722 28.768V27.328C135.722 25.68 136.138 24.36 136.97 23.368C137.818 22.376 139.01 21.88 140.546 21.88C141.362 21.88 142.106 22.048 142.778 22.384C143.466 22.704 144.01 23.2 144.41 23.872C144.826 24.528 145.034 25.376 145.034 26.416C145.034 27.088 144.938 27.856 144.746 28.72H137.666V28.768C137.666 29.984 137.914 30.904 138.41 31.528C138.922 32.152 139.738 32.464 140.858 32.464C141.37 32.464 141.93 32.4 142.538 32.272C143.162 32.144 143.77 31.944 144.362 31.672L144.962 33.304ZM140.546 23.608C139.618 23.608 138.914 23.912 138.434 24.52C137.97 25.112 137.714 25.952 137.666 27.04H143.042C143.09 26.752 143.114 26.48 143.114 26.224C143.114 25.328 142.858 24.672 142.346 24.256C141.85 23.824 141.25 23.608 140.546 23.608ZM149.832 27.352V28.768C149.832 29.984 150.056 30.904 150.504 31.528C150.952 32.136 151.664 32.44 152.64 32.44C153.6 32.44 154.632 32.192 155.736 31.696L156.336 33.352C155.024 33.944 153.752 34.24 152.52 34.24C150.984 34.24 149.816 33.752 149.016 32.776C148.216 31.8 147.816 30.464 147.816 28.768V27.352C147.816 25.656 148.216 24.32 149.016 23.344C149.816 22.368 150.984 21.88 152.52 21.88C153.096 21.88 153.688 21.96 154.296 22.12C154.92 22.264 155.544 22.472 156.168 22.744L155.568 24.424C155.04 24.2 154.528 24.024 154.032 23.896C153.552 23.768 153.088 23.704 152.64 23.704C151.664 23.704 150.952 24.016 150.504 24.64C150.056 25.248 149.832 26.152 149.832 27.352ZM161.309 19.216H159.101V17.008H161.309V19.216ZM161.189 34H159.221V22.12H161.189V34ZM170.184 34.24C169.288 34.24 168.36 34.056 167.4 33.688V39.112H165.432V22.12H167.304V23.8C168.04 23.096 168.712 22.6 169.32 22.312C169.928 22.024 170.552 21.88 171.192 21.88C172.456 21.88 173.424 22.36 174.096 23.32C174.784 24.28 175.128 25.632 175.128 27.376V28.768C175.128 30.432 174.704 31.76 173.856 32.752C173.024 33.744 171.8 34.24 170.184 34.24ZM170.712 23.728C170.248 23.728 169.768 23.848 169.272 24.088C168.776 24.328 168.152 24.816 167.4 25.552V31.888C167.864 32.096 168.312 32.248 168.744 32.344C169.176 32.424 169.6 32.464 170.016 32.464C171.104 32.464 171.888 32.136 172.368 31.48C172.848 30.808 173.088 29.904 173.088 28.768V27.376C173.088 26.128 172.888 25.208 172.488 24.616C172.104 24.024 171.512 23.728 170.712 23.728ZM187.384 33.304C186.664 33.656 185.944 33.896 185.224 34.024C184.504 34.168 183.84 34.24 183.232 34.24C181.52 34.24 180.24 33.752 179.392 32.776C178.56 31.8 178.144 30.464 178.144 28.768V27.328C178.144 25.68 178.56 24.36 179.392 23.368C180.24 22.376 181.432 21.88 182.968 21.88C183.784 21.88 184.528 22.048 185.2 22.384C185.888 22.704 186.432 23.2 186.832 23.872C187.248 24.528 187.456 25.376 187.456 26.416C187.456 27.088 187.36 27.856 187.168 28.72H180.088V28.768C180.088 29.984 180.336 30.904 180.832 31.528C181.344 32.152 182.16 32.464 183.28 32.464C183.792 32.464 184.352 32.4 184.96 32.272C185.584 32.144 186.192 31.944 186.784 31.672L187.384 33.304ZM182.968 23.608C182.04 23.608 181.336 23.912 180.856 24.52C180.392 25.112 180.136 25.952 180.088 27.04H185.464C185.512 26.752 185.536 26.48 185.536 26.224C185.536 25.328 185.28 24.672 184.768 24.256C184.272 23.824 183.672 23.608 182.968 23.608ZM193.766 32.488C195.366 32.488 196.166 31.944 196.166 30.856C196.166 30.392 196.022 30.024 195.734 29.752C195.446 29.48 194.918 29.248 194.15 29.056L192.83 28.72C191.854 28.48 191.126 28.064 190.646 27.472C190.166 26.864 189.926 26.144 189.926 25.312C189.926 24.704 190.062 24.144 190.334 23.632C190.606 23.104 191.038 22.68 191.63 22.36C192.222 22.04 192.99 21.88 193.934 21.88C194.542 21.88 195.158 21.952 195.782 22.096C196.422 22.224 197.07 22.448 197.726 22.768L197.102 24.424C195.934 23.896 194.878 23.632 193.934 23.632C192.542 23.632 191.846 24.152 191.846 25.192C191.846 25.592 191.974 25.936 192.23 26.224C192.486 26.512 192.966 26.744 193.67 26.92L194.99 27.256C196.046 27.512 196.822 27.928 197.318 28.504C197.814 29.08 198.062 29.824 198.062 30.736C198.062 31.392 197.918 31.992 197.63 32.536C197.358 33.064 196.91 33.48 196.286 33.784C195.678 34.088 194.854 34.24 193.814 34.24C193.126 34.24 192.438 34.168 191.75 34.024C191.078 33.88 190.382 33.648 189.662 33.328L190.19 31.696C190.878 31.968 191.502 32.168 192.062 32.296C192.622 32.424 193.19 32.488 193.766 32.488Z" fill="black"/>
</svg>
