<svg width="472" height="1024" viewBox="0 0 472 1024" fill="none" xmlns="http://www.w3.org/2000/svg">
<rect width="472" height="1024" fill="white"/>
<rect width="472" height="1024" fill="#FFD59A"/>
<path d="M70.9287 26.0002H59.0718C55.0157 26.0002 51.7275 29.2883 51.7275 33.3444V33.5148V52.8956C51.7275 53.9739 51.9062 55.0432 52.2572 56.0626C53.2687 58.9999 55.4003 66.0405 55.6802 73.9154C55.721 75.0637 56.6539 75.9774 57.8028 75.9774H65.0001H72.1975C73.3463 75.9774 74.2792 75.0635 74.3201 73.9154C74.5999 66.0407 76.7316 58.9999 77.7431 56.0626C78.0942 55.0432 78.2727 53.9739 78.2727 52.8956V33.5147V33.3442C78.2727 29.2881 74.9847 26.0002 70.9287 26.0002Z" fill="#A56021"/>
<path d="M86.3963 104.92H43.6039C42.1877 104.92 41.0396 103.772 41.0396 102.356V96.7864H88.9606V102.356C88.9606 103.772 87.8125 104.92 86.3963 104.92Z" fill="#E58D23"/>
<path d="M73.9764 77.05C73.6934 76.4064 73.0583 75.9903 72.3554 75.9903H65.0081H64.9922H57.6449C56.9419 75.9903 56.3066 76.4065 56.0239 77.05C54.5504 80.4028 49.598 90.6466 43.4985 92.1616H64.9922H65.0081H86.5017C80.402 90.6466 75.4498 80.4028 73.9764 77.05Z" fill="#FFD551"/>
<path d="M86.8475 92.1616H43.1525C43.1525 92.1616 40.6591 93.1994 41.0395 96.745H43.1525H86.8475H88.9605C89.3409 93.1994 86.8475 92.1616 86.8475 92.1616Z" fill="#FFC34C"/>
<path d="M62.7589 73.9154C62.4791 66.0407 60.3474 58.9999 59.3359 56.0626C58.9847 55.0432 58.8063 53.9739 58.8063 52.8956V33.5147V33.3442C58.8063 29.2881 62.0944 26 66.1505 26H59.0718C55.0157 26 51.7275 29.2881 51.7275 33.3442V33.5147V52.8955C51.7275 53.9737 51.9062 55.043 52.2572 56.0624C53.2687 58.9998 55.4003 66.0404 55.6802 73.9152C55.721 75.0635 56.6539 75.9773 57.8028 75.9773H64.8815C63.7325 75.9775 62.7996 75.0635 62.7589 73.9154Z" fill="#8C4C17"/>
<path d="M63.1024 77.05C63.3854 76.4064 64.0205 75.9903 64.7234 75.9903H57.6447C56.9417 75.9903 56.3065 76.4064 56.0237 77.05C54.5503 80.4028 49.5979 90.6466 43.4985 92.1617H50.5773C56.6768 90.6466 61.629 80.4026 63.1024 77.05Z" fill="#FFC34C"/>
<path d="M50.2312 94.2852H88.707C88.1184 92.6915 86.8475 92.1616 86.8475 92.1616H43.1525C43.1525 92.1616 40.6591 93.1994 41.0395 96.745H43.1525H48.2639C48.7846 94.8895 50.2312 94.2852 50.2312 94.2852Z" fill="#F9BB32"/>
<path d="M48.1183 102.749V96.7862H41.0396V102.749C41.0396 103.948 42.228 104.92 43.6941 104.92H50.7729C49.3068 104.92 48.1183 103.948 48.1183 102.749Z" fill="#BF6C0D"/>
<path d="M75.7949 50.1522C75.2286 50.1522 74.7692 49.6928 74.7692 49.1264V34.3079C74.6157 32.666 74.1309 31.4661 73.366 30.8358C72.7065 30.2923 72.0131 30.3257 72.0074 30.3264C71.4426 30.3848 70.94 29.975 70.8815 29.4116C70.8231 28.8481 71.2327 28.344 71.7961 28.2857C71.9505 28.2694 73.3455 28.1609 74.6706 29.2526C75.8927 30.2599 76.6148 31.9142 76.8167 34.1698C76.8195 34.2002 76.8207 34.2306 76.8207 34.2612V49.1266C76.8207 49.693 76.3613 50.1522 75.7949 50.1522Z" fill="#E58D23"/>
<path d="M77.5641 90.1474C77.375 90.1474 77.1834 90.0951 77.0121 89.9855C73.8079 87.9347 71.62 82.0277 71.5286 81.7773C71.3338 81.2452 71.6075 80.6561 72.1395 80.4618C72.6716 80.2669 73.2608 80.5409 73.455 81.0729C74.0148 82.5997 75.9431 86.8657 78.1178 88.2576C78.595 88.5631 78.7341 89.1974 78.4288 89.6745C78.2332 89.9804 77.9023 90.1474 77.5641 90.1474Z" fill="#FFDF74"/>
<path d="M85.1156 103.951C84.5492 103.951 84.0898 103.491 84.0898 102.925V98.556C84.0898 97.9896 84.5492 97.5302 85.1156 97.5302C85.6819 97.5302 86.1413 97.9896 86.1413 98.556V102.925C86.1413 103.491 85.6821 103.951 85.1156 103.951Z" fill="#FFA730"/>
<path d="M62.3455 36.1692C63.8116 36.1692 65.0001 34.9808 65.0001 33.5147C65.0001 32.0486 63.8116 30.8601 62.3455 30.8601C60.8794 30.8601 59.6909 32.0486 59.6909 33.5147C59.6909 34.9808 60.8794 36.1692 62.3455 36.1692Z" fill="#8C4C17"/>
<path d="M52.3655 103.279C53.8316 103.279 55.0201 102.091 55.0201 100.625C55.0201 99.1584 53.8316 97.9699 52.3655 97.9699C50.8994 97.9699 49.7109 99.1584 49.7109 100.625C49.7109 102.091 50.8994 103.279 52.3655 103.279Z" fill="#BF6C0D"/>
<path d="M67.3782 44.523C68.8443 44.523 70.0328 43.3345 70.0328 41.8684C70.0328 40.4023 68.8443 39.2138 67.3782 39.2138C65.9121 39.2138 64.7236 40.4023 64.7236 41.8684C64.7236 43.3345 65.9121 44.523 67.3782 44.523Z" fill="#8C4C17"/>
<path d="M158.12 74.76V78H143.24V50.8H146.72V74.76H158.12ZM178.044 66.88V69.28C178.044 72.1067 177.31 74.3333 175.844 75.96C174.404 77.5867 172.337 78.4 169.644 78.4C166.977 78.4 164.91 77.5867 163.444 75.96C161.977 74.3333 161.244 72.1067 161.244 69.28V66.88C161.244 64.1067 161.964 61.9067 163.404 60.28C164.87 58.6267 166.95 57.8 169.644 57.8C172.337 57.8 174.404 58.6267 175.844 60.28C177.31 61.9067 178.044 64.1067 178.044 66.88ZM174.644 66.88C174.644 64.9867 174.217 63.5067 173.364 62.44C172.51 61.3467 171.27 60.8 169.644 60.8C168.044 60.8 166.804 61.3467 165.924 62.44C165.07 63.5067 164.644 64.9867 164.644 66.88V69.28C164.644 71.2533 165.07 72.7733 165.924 73.84C166.804 74.9067 168.044 75.44 169.644 75.44C171.27 75.44 172.51 74.9067 173.364 73.84C174.217 72.7733 174.644 71.2533 174.644 69.28V66.88ZM199.844 80.48C199.844 82.4267 199.044 83.9867 197.444 85.16C195.871 86.3333 193.698 86.92 190.924 86.92C189.538 86.92 188.084 86.7333 186.564 86.36C185.071 85.9867 183.658 85.3867 182.324 84.56L183.444 82C184.778 82.7467 186.058 83.2667 187.284 83.56C188.538 83.88 189.751 84.04 190.924 84.04C192.738 84.04 194.138 83.7467 195.124 83.16C196.111 82.5733 196.604 81.7867 196.604 80.8C196.604 80.08 196.364 79.52 195.884 79.12C195.404 78.7467 194.631 78.56 193.564 78.56H188.964C187.231 78.56 185.978 78.1467 185.204 77.32C184.431 76.4933 184.044 75.5867 184.044 74.6C184.044 73.9067 184.204 73.2267 184.524 72.56C184.844 71.8667 185.298 71.1867 185.884 70.52C184.951 69.96 184.204 69.2 183.644 68.24C183.084 67.2533 182.804 66.0667 182.804 64.68C182.804 63.16 183.124 61.8933 183.764 60.88C184.431 59.8667 185.311 59.1067 186.404 58.6C187.498 58.0667 188.724 57.8 190.084 57.8H190.764C191.698 57.8 192.551 57.9333 193.324 58.2H200.444V61.12L196.124 60.52C196.684 61 197.138 61.6 197.484 62.32C197.831 63.0133 198.004 63.8667 198.004 64.88C198.004 66.32 197.671 67.5333 197.004 68.52C196.364 69.5067 195.498 70.2667 194.404 70.8C193.311 71.3067 192.098 71.56 190.764 71.56H190.084C189.738 71.56 189.404 71.5467 189.084 71.52C188.764 71.4667 188.444 71.4133 188.124 71.36C187.351 72.2133 186.964 73.0533 186.964 73.88C186.964 74.9467 187.711 75.48 189.204 75.48H193.684C195.604 75.48 197.111 75.9067 198.204 76.76C199.298 77.6133 199.844 78.8533 199.844 80.48ZM190.764 68.72C191.804 68.72 192.724 68.3867 193.524 67.72C194.324 67.0533 194.724 66.04 194.724 64.68C194.724 63.3467 194.324 62.3467 193.524 61.68C192.724 60.9867 191.804 60.64 190.764 60.64H190.084C189.018 60.64 188.084 60.9867 187.284 61.68C186.484 62.3467 186.084 63.3467 186.084 64.68C186.084 66.04 186.484 67.0533 187.284 67.72C188.084 68.3867 189.018 68.72 190.084 68.72H190.764ZM220.626 80.48C220.626 82.4267 219.826 83.9867 218.226 85.16C216.652 86.3333 214.479 86.92 211.706 86.92C210.319 86.92 208.866 86.7333 207.346 86.36C205.852 85.9867 204.439 85.3867 203.106 84.56L204.226 82C205.559 82.7467 206.839 83.2667 208.066 83.56C209.319 83.88 210.532 84.04 211.706 84.04C213.519 84.04 214.919 83.7467 215.906 83.16C216.892 82.5733 217.386 81.7867 217.386 80.8C217.386 80.08 217.146 79.52 216.666 79.12C216.186 78.7467 215.412 78.56 214.346 78.56H209.746C208.012 78.56 206.759 78.1467 205.986 77.32C205.212 76.4933 204.826 75.5867 204.826 74.6C204.826 73.9067 204.986 73.2267 205.306 72.56C205.626 71.8667 206.079 71.1867 206.666 70.52C205.732 69.96 204.986 69.2 204.426 68.24C203.866 67.2533 203.586 66.0667 203.586 64.68C203.586 63.16 203.906 61.8933 204.546 60.88C205.212 59.8667 206.092 59.1067 207.186 58.6C208.279 58.0667 209.506 57.8 210.866 57.8H211.546C212.479 57.8 213.332 57.9333 214.106 58.2H221.226V61.12L216.906 60.52C217.466 61 217.919 61.6 218.266 62.32C218.612 63.0133 218.786 63.8667 218.786 64.88C218.786 66.32 218.452 67.5333 217.786 68.52C217.146 69.5067 216.279 70.2667 215.186 70.8C214.092 71.3067 212.879 71.56 211.546 71.56H210.866C210.519 71.56 210.186 71.5467 209.866 71.52C209.546 71.4667 209.226 71.4133 208.906 71.36C208.132 72.2133 207.746 73.0533 207.746 73.88C207.746 74.9467 208.492 75.48 209.986 75.48H214.466C216.386 75.48 217.892 75.9067 218.986 76.76C220.079 77.6133 220.626 78.8533 220.626 80.48ZM211.546 68.72C212.586 68.72 213.506 68.3867 214.306 67.72C215.106 67.0533 215.506 66.04 215.506 64.68C215.506 63.3467 215.106 62.3467 214.306 61.68C213.506 60.9867 212.586 60.64 211.546 60.64H210.866C209.799 60.64 208.866 60.9867 208.066 61.68C207.266 62.3467 206.866 63.3467 206.866 64.68C206.866 66.04 207.266 67.0533 208.066 67.72C208.866 68.3867 209.799 68.72 210.866 68.72H211.546ZM240.047 78.2C238.82 78.2 237.834 77.92 237.087 77.36C236.367 76.8 235.86 76.1067 235.567 75.28C234.26 76.4267 233.074 77.24 232.007 77.72C230.94 78.1733 229.874 78.4 228.807 78.4C227.074 78.4 225.794 77.84 224.967 76.72C224.14 75.6 223.727 74.2267 223.727 72.6C223.727 71.5067 223.927 70.5333 224.327 69.68C224.727 68.8267 225.407 68.16 226.367 67.68C227.327 67.1733 228.62 66.92 230.247 66.92C230.967 66.92 231.754 66.9733 232.607 67.08C233.46 67.16 234.327 67.2667 235.207 67.4V64.72C235.207 63.2267 234.874 62.2133 234.207 61.68C233.567 61.12 232.62 60.84 231.367 60.84C229.66 60.84 227.754 61.3067 225.647 62.24L224.607 59.52C225.834 58.96 227.007 58.5333 228.127 58.24C229.247 57.9467 230.38 57.8 231.527 57.8C233.394 57.8 234.82 58.1067 235.807 58.72C236.794 59.3333 237.474 60.1467 237.847 61.16C238.22 62.1733 238.407 63.28 238.407 64.48V73.04C238.407 73.6533 238.527 74.1733 238.767 74.6C239.007 75 239.487 75.2 240.207 75.2H240.647V78.2H240.047ZM226.967 72.56C226.967 73.4667 227.18 74.2 227.607 74.76C228.034 75.32 228.647 75.6 229.447 75.6C230.14 75.6 230.94 75.4 231.847 75C232.754 74.5733 233.874 73.7333 235.207 72.48V69.96C233.394 69.6667 231.794 69.52 230.407 69.52C229.18 69.52 228.3 69.7733 227.767 70.28C227.234 70.7867 226.967 71.5467 226.967 72.56ZM247.613 66.92V69.28C247.613 71.3067 247.987 72.84 248.733 73.88C249.48 74.8933 250.667 75.4 252.293 75.4C253.893 75.4 255.613 74.9867 257.453 74.16L258.453 76.92C256.267 77.9067 254.147 78.4 252.093 78.4C249.533 78.4 247.587 77.5867 246.253 75.96C244.92 74.3333 244.253 72.1067 244.253 69.28V66.92C244.253 64.0933 244.92 61.8667 246.253 60.24C247.587 58.6133 249.533 57.8 252.093 57.8C253.053 57.8 254.04 57.9333 255.053 58.2C256.093 58.44 257.133 58.7867 258.173 59.24L257.173 62.04C256.293 61.6667 255.44 61.3733 254.613 61.16C253.813 60.9467 253.04 60.84 252.293 60.84C250.667 60.84 249.48 61.36 248.733 62.4C247.987 63.4133 247.613 64.92 247.613 66.92ZM265.504 66.92V69.28C265.504 71.3067 265.877 72.84 266.624 73.88C267.371 74.8933 268.557 75.4 270.184 75.4C271.784 75.4 273.504 74.9867 275.344 74.16L276.344 76.92C274.157 77.9067 272.037 78.4 269.984 78.4C267.424 78.4 265.477 77.5867 264.144 75.96C262.811 74.3333 262.144 72.1067 262.144 69.28V66.92C262.144 64.0933 262.811 61.8667 264.144 60.24C265.477 58.6133 267.424 57.8 269.984 57.8C270.944 57.8 271.931 57.9333 272.944 58.2C273.984 58.44 275.024 58.7867 276.064 59.24L275.064 62.04C274.184 61.6667 273.331 61.3733 272.504 61.16C271.704 60.9467 270.931 60.84 270.184 60.84C268.557 60.84 267.371 61.36 266.624 62.4C265.877 63.4133 265.504 64.92 265.504 66.92ZM284.633 53.36H280.953V49.68H284.633V53.36ZM284.433 78H281.153V58.2H284.433V78ZM301.024 60.88C300.278 60.88 299.398 61.0667 298.384 61.44C297.398 61.8133 296.198 62.5733 294.784 63.72V78H291.504V58.2H294.624V60.96C296.038 59.76 297.318 58.9333 298.464 58.48C299.638 58.0267 300.758 57.8 301.824 57.8C303.664 57.8 305.064 58.3867 306.024 59.56C307.011 60.7067 307.504 62.3467 307.504 64.48V78H304.224V64.96C304.224 62.24 303.158 60.88 301.024 60.88ZM330.036 66.88V69.28C330.036 72.1067 329.303 74.3333 327.836 75.96C326.396 77.5867 324.329 78.4 321.636 78.4C318.969 78.4 316.903 77.5867 315.436 75.96C313.969 74.3333 313.236 72.1067 313.236 69.28V66.88C313.236 64.1067 313.956 61.9067 315.396 60.28C316.863 58.6267 318.943 57.8 321.636 57.8C324.329 57.8 326.396 58.6267 327.836 60.28C329.303 61.9067 330.036 64.1067 330.036 66.88ZM326.636 66.88C326.636 64.9867 326.209 63.5067 325.356 62.44C324.503 61.3467 323.263 60.8 321.636 60.8C320.036 60.8 318.796 61.3467 317.916 62.44C317.063 63.5067 316.636 64.9867 316.636 66.88V69.28C316.636 71.2533 317.063 72.7733 317.916 73.84C318.796 74.9067 320.036 75.44 321.636 75.44C323.263 75.44 324.503 74.9067 325.356 73.84C326.209 72.7733 326.636 71.2533 326.636 69.28V66.88Z" fill="black"/>
</svg>
