<svg width="701" height="144" viewBox="0 0 701 144" fill="none" xmlns="http://www.w3.org/2000/svg">
<path d="M161.12 35.76V39H146.24V11.8H149.72V35.76H161.12ZM180.234 39.2C179.008 39.2 178.021 38.92 177.274 38.36C176.554 37.8 176.048 37.1067 175.754 36.28C174.448 37.4267 173.261 38.24 172.194 38.72C171.128 39.1733 170.061 39.4 168.994 39.4C167.261 39.4 165.981 38.84 165.154 37.72C164.328 36.6 163.914 35.2267 163.914 33.6C163.914 32.5067 164.114 31.5333 164.514 30.68C164.914 29.8267 165.594 29.16 166.554 28.68C167.514 28.1733 168.808 27.92 170.434 27.92C171.154 27.92 171.941 27.9733 172.794 28.08C173.648 28.16 174.514 28.2667 175.394 28.4V25.72C175.394 24.2267 175.061 23.2133 174.394 22.68C173.754 22.12 172.808 21.84 171.554 21.84C169.848 21.84 167.941 22.3067 165.834 23.24L164.794 20.52C166.021 19.96 167.194 19.5333 168.314 19.24C169.434 18.9467 170.568 18.8 171.714 18.8C173.581 18.8 175.008 19.1067 175.994 19.72C176.981 20.3333 177.661 21.1467 178.034 22.16C178.408 23.1733 178.594 24.28 178.594 25.48V34.04C178.594 34.6533 178.714 35.1733 178.954 35.6C179.194 36 179.674 36.2 180.394 36.2H180.834V39.2H180.234ZM167.154 33.56C167.154 34.4667 167.368 35.2 167.794 35.76C168.221 36.32 168.834 36.6 169.634 36.6C170.328 36.6 171.128 36.4 172.034 36C172.941 35.5733 174.061 34.7333 175.394 33.48V30.96C173.581 30.6667 171.981 30.52 170.594 30.52C169.368 30.52 168.488 30.7733 167.954 31.28C167.421 31.7867 167.154 32.5467 167.154 33.56ZM190.321 36.48C192.988 36.48 194.321 35.5733 194.321 33.76C194.321 32.9867 194.081 32.3733 193.601 31.92C193.121 31.4667 192.241 31.08 190.961 30.76L188.761 30.2C187.134 29.8 185.921 29.1067 185.121 28.12C184.321 27.1067 183.921 25.9067 183.921 24.52C183.921 23.5067 184.148 22.5733 184.601 21.72C185.054 20.84 185.774 20.1333 186.761 19.6C187.748 19.0667 189.028 18.8 190.601 18.8C191.614 18.8 192.641 18.92 193.681 19.16C194.748 19.3733 195.828 19.7467 196.921 20.28L195.881 23.04C193.934 22.16 192.174 21.72 190.601 21.72C188.281 21.72 187.121 22.5867 187.121 24.32C187.121 24.9867 187.334 25.56 187.761 26.04C188.188 26.52 188.988 26.9067 190.161 27.2L192.361 27.76C194.121 28.1867 195.414 28.88 196.241 29.84C197.068 30.8 197.481 32.04 197.481 33.56C197.481 34.6533 197.241 35.6533 196.761 36.56C196.308 37.44 195.561 38.1333 194.521 38.64C193.508 39.1467 192.134 39.4 190.401 39.4C189.254 39.4 188.108 39.28 186.961 39.04C185.841 38.8 184.681 38.4133 183.481 37.88L184.361 35.16C185.508 35.6133 186.548 35.9467 187.481 36.16C188.414 36.3733 189.361 36.48 190.321 36.48ZM213.588 38.28C212.094 39.0267 210.508 39.4 208.828 39.4C207.388 39.4 206.254 39.1067 205.428 38.52C204.628 37.9333 204.054 37.1467 203.708 36.16C203.388 35.1733 203.228 34.08 203.228 32.88V22.08H199.788V19.2H203.228V13.68H206.508V19.2H212.988V22.08H206.508V32.76C206.508 34.1467 206.734 35.1067 207.188 35.64C207.668 36.1467 208.401 36.4 209.388 36.4C209.868 36.4 210.361 36.3467 210.868 36.24C211.401 36.1067 211.974 35.8933 212.588 35.6L213.588 38.28ZM242.614 30.28C242.614 33.0533 241.92 35.2667 240.534 36.92C239.147 38.5733 237.107 39.4 234.414 39.4C231.747 39.4 229.107 38.6933 226.494 37.28V9.4H229.774V21.88C230.974 20.76 232.067 19.9733 233.054 19.52C234.067 19.04 235.094 18.8 236.134 18.8C238.214 18.8 239.814 19.6 240.934 21.2C242.054 22.8 242.614 25.0533 242.614 27.96V30.28ZM235.334 21.88C234.587 21.88 233.787 22.08 232.934 22.48C232.107 22.88 231.054 23.7067 229.774 24.96V35.44C231.347 36.1067 232.827 36.44 234.214 36.44C236 36.44 237.28 35.8933 238.054 34.8C238.827 33.68 239.214 32.1733 239.214 30.28V27.96C239.214 25.88 238.894 24.3467 238.254 23.36C237.614 22.3733 236.64 21.88 235.334 21.88ZM260.884 39V36.2C259.497 37.4 258.257 38.24 257.164 38.72C256.071 39.1733 254.977 39.4 253.884 39.4C252.124 39.4 250.777 38.8267 249.844 37.68C248.911 36.5067 248.444 34.8667 248.444 32.76V19.2H251.724V32.28C251.724 33.6667 251.964 34.6933 252.444 35.36C252.951 36 253.697 36.32 254.684 36.32C255.431 36.32 256.271 36.1333 257.204 35.76C258.137 35.3867 259.297 34.64 260.684 33.52V19.2H263.964V39H260.884ZM281.908 38.28C280.414 39.0267 278.828 39.4 277.148 39.4C275.708 39.4 274.574 39.1067 273.748 38.52C272.948 37.9333 272.374 37.1467 272.028 36.16C271.708 35.1733 271.548 34.08 271.548 32.88V22.08H268.108V19.2H271.548V13.68H274.828V19.2H281.308V22.08H274.828V32.76C274.828 34.1467 275.054 35.1067 275.508 35.64C275.988 36.1467 276.721 36.4 277.708 36.4C278.188 36.4 278.681 36.3467 279.188 36.24C279.721 36.1067 280.294 35.8933 280.908 35.6L281.908 38.28ZM304.454 21.88C303.707 21.88 302.827 22.0667 301.814 22.44C300.827 22.8133 299.627 23.5733 298.214 24.72V39H294.934V19.2H298.054V21.96C299.467 20.76 300.747 19.9333 301.894 19.48C303.067 19.0267 304.187 18.8 305.254 18.8C307.094 18.8 308.494 19.3867 309.454 20.56C310.441 21.7067 310.934 23.3467 310.934 25.48V39H307.654V25.96C307.654 23.24 306.587 21.88 304.454 21.88ZM333.466 27.88V30.28C333.466 33.1067 332.732 35.3333 331.266 36.96C329.826 38.5867 327.759 39.4 325.066 39.4C322.399 39.4 320.332 38.5867 318.866 36.96C317.399 35.3333 316.666 33.1067 316.666 30.28V27.88C316.666 25.1067 317.386 22.9067 318.826 21.28C320.292 19.6267 322.372 18.8 325.066 18.8C327.759 18.8 329.826 19.6267 331.266 21.28C332.732 22.9067 333.466 25.1067 333.466 27.88ZM330.066 27.88C330.066 25.9867 329.639 24.5067 328.786 23.44C327.932 22.3467 326.692 21.8 325.066 21.8C323.466 21.8 322.226 22.3467 321.346 23.44C320.492 24.5067 320.066 25.9867 320.066 27.88V30.28C320.066 32.2533 320.492 33.7733 321.346 34.84C322.226 35.9067 323.466 36.44 325.066 36.44C326.692 36.44 327.932 35.9067 328.786 34.84C329.639 33.7733 330.066 32.2533 330.066 30.28V27.88ZM350.306 38.28C348.813 39.0267 347.226 39.4 345.546 39.4C344.106 39.4 342.973 39.1067 342.146 38.52C341.346 37.9333 340.773 37.1467 340.426 36.16C340.106 35.1733 339.946 34.08 339.946 32.88V22.08H336.506V19.2H339.946V13.68H343.226V19.2H349.706V22.08H343.226V32.76C343.226 34.1467 343.453 35.1067 343.906 35.64C344.386 36.1467 345.12 36.4 346.106 36.4C346.586 36.4 347.08 36.3467 347.586 36.24C348.12 36.1067 348.693 35.8933 349.306 35.6L350.306 38.28ZM363.293 34.2V9.4H366.573V34.04C366.573 34.76 366.679 35.3067 366.893 35.68C367.133 36.0267 367.599 36.2 368.293 36.2H368.933V39.2H368.013C366.253 39.2 365.026 38.7333 364.333 37.8C363.639 36.8667 363.293 35.6667 363.293 34.2ZM388.239 37.84C387.039 38.4267 385.839 38.8267 384.639 39.04C383.439 39.28 382.333 39.4 381.319 39.4C378.466 39.4 376.333 38.5867 374.919 36.96C373.533 35.3333 372.839 33.1067 372.839 30.28V27.88C372.839 25.1333 373.533 22.9333 374.919 21.28C376.333 19.6267 378.319 18.8 380.879 18.8C382.239 18.8 383.479 19.08 384.599 19.64C385.746 20.1733 386.653 21 387.319 22.12C388.013 23.2133 388.359 24.6267 388.359 26.36C388.359 27.48 388.199 28.76 387.879 30.2H376.079V30.28C376.079 32.3067 376.493 33.84 377.319 34.88C378.173 35.92 379.533 36.44 381.399 36.44C382.253 36.44 383.186 36.3333 384.199 36.12C385.239 35.9067 386.253 35.5733 387.239 35.12L388.239 37.84ZM380.879 21.68C379.333 21.68 378.159 22.1867 377.359 23.2C376.586 24.1867 376.159 25.5867 376.079 27.4H385.039C385.119 26.92 385.159 26.4667 385.159 26.04C385.159 24.5467 384.733 23.4533 383.879 22.76C383.053 22.04 382.053 21.68 380.879 21.68ZM408.516 39.2C407.289 39.2 406.302 38.92 405.556 38.36C404.836 37.8 404.329 37.1067 404.036 36.28C402.729 37.4267 401.542 38.24 400.476 38.72C399.409 39.1733 398.342 39.4 397.276 39.4C395.542 39.4 394.262 38.84 393.436 37.72C392.609 36.6 392.196 35.2267 392.196 33.6C392.196 32.5067 392.396 31.5333 392.796 30.68C393.196 29.8267 393.876 29.16 394.836 28.68C395.796 28.1733 397.089 27.92 398.716 27.92C399.436 27.92 400.222 27.9733 401.076 28.08C401.929 28.16 402.796 28.2667 403.676 28.4V25.72C403.676 24.2267 403.342 23.2133 402.676 22.68C402.036 22.12 401.089 21.84 399.836 21.84C398.129 21.84 396.222 22.3067 394.116 23.24L393.076 20.52C394.302 19.96 395.476 19.5333 396.596 19.24C397.716 18.9467 398.849 18.8 399.996 18.8C401.862 18.8 403.289 19.1067 404.276 19.72C405.262 20.3333 405.942 21.1467 406.316 22.16C406.689 23.1733 406.876 24.28 406.876 25.48V34.04C406.876 34.6533 406.996 35.1733 407.236 35.6C407.476 36 407.956 36.2 408.676 36.2H409.116V39.2H408.516ZM395.436 33.56C395.436 34.4667 395.649 35.2 396.076 35.76C396.502 36.32 397.116 36.6 397.916 36.6C398.609 36.6 399.409 36.4 400.316 36C401.222 35.5733 402.342 34.7333 403.676 33.48V30.96C401.862 30.6667 400.262 30.52 398.876 30.52C397.649 30.52 396.769 30.7733 396.236 31.28C395.702 31.7867 395.436 32.5467 395.436 33.56ZM418.602 36.48C421.269 36.48 422.602 35.5733 422.602 33.76C422.602 32.9867 422.362 32.3733 421.882 31.92C421.402 31.4667 420.522 31.08 419.242 30.76L417.042 30.2C415.416 29.8 414.202 29.1067 413.402 28.12C412.602 27.1067 412.202 25.9067 412.202 24.52C412.202 23.5067 412.429 22.5733 412.882 21.72C413.336 20.84 414.056 20.1333 415.042 19.6C416.029 19.0667 417.309 18.8 418.882 18.8C419.896 18.8 420.922 18.92 421.962 19.16C423.029 19.3733 424.109 19.7467 425.202 20.28L424.162 23.04C422.216 22.16 420.456 21.72 418.882 21.72C416.562 21.72 415.402 22.5867 415.402 24.32C415.402 24.9867 415.616 25.56 416.042 26.04C416.469 26.52 417.269 26.9067 418.442 27.2L420.642 27.76C422.402 28.1867 423.696 28.88 424.522 29.84C425.349 30.8 425.762 32.04 425.762 33.56C425.762 34.6533 425.522 35.6533 425.042 36.56C424.589 37.44 423.842 38.1333 422.802 38.64C421.789 39.1467 420.416 39.4 418.682 39.4C417.536 39.4 416.389 39.28 415.242 39.04C414.122 38.8 412.962 38.4133 411.762 37.88L412.642 35.16C413.789 35.6133 414.829 35.9467 415.762 36.16C416.696 36.3733 417.642 36.48 418.602 36.48ZM441.869 38.28C440.375 39.0267 438.789 39.4 437.109 39.4C435.669 39.4 434.535 39.1067 433.709 38.52C432.909 37.9333 432.335 37.1467 431.989 36.16C431.669 35.1733 431.509 34.08 431.509 32.88V22.08H428.069V19.2H431.509V13.68H434.789V19.2H441.269V22.08H434.789V32.76C434.789 34.1467 435.015 35.1067 435.469 35.64C435.949 36.1467 436.682 36.4 437.669 36.4C438.149 36.4 438.642 36.3467 439.149 36.24C439.682 36.1067 440.255 35.8933 440.869 35.6L441.869 38.28ZM465.775 38.28C464.282 39.0267 462.695 39.4 461.015 39.4C459.575 39.4 458.442 39.1067 457.615 38.52C456.815 37.9333 456.242 37.1467 455.895 36.16C455.575 35.1733 455.415 34.08 455.415 32.88V22.08H451.975V19.2H455.415V13.68H458.695V19.2H465.175V22.08H458.695V32.76C458.695 34.1467 458.922 35.1067 459.375 35.64C459.855 36.1467 460.588 36.4 461.575 36.4C462.055 36.4 462.548 36.3467 463.055 36.24C463.588 36.1067 464.162 35.8933 464.775 35.6L465.775 38.28ZM485.77 27.88V30.28C485.77 33.1067 485.037 35.3333 483.57 36.96C482.13 38.5867 480.064 39.4 477.37 39.4C474.704 39.4 472.637 38.5867 471.17 36.96C469.704 35.3333 468.97 33.1067 468.97 30.28V27.88C468.97 25.1067 469.69 22.9067 471.13 21.28C472.597 19.6267 474.677 18.8 477.37 18.8C480.064 18.8 482.13 19.6267 483.57 21.28C485.037 22.9067 485.77 25.1067 485.77 27.88ZM482.37 27.88C482.37 25.9867 481.944 24.5067 481.09 23.44C480.237 22.3467 478.997 21.8 477.37 21.8C475.77 21.8 474.53 22.3467 473.65 23.44C472.797 24.5067 472.37 25.9867 472.37 27.88V30.28C472.37 32.2533 472.797 33.7733 473.65 34.84C474.53 35.9067 475.77 36.44 477.37 36.44C478.997 36.44 480.237 35.9067 481.09 34.84C481.944 33.7733 482.37 32.2533 482.37 30.28V27.88ZM502.762 27.92V30.28C502.762 32.3067 503.135 33.84 503.882 34.88C504.629 35.8933 505.815 36.4 507.442 36.4C509.042 36.4 510.762 35.9867 512.602 35.16L513.602 37.92C511.415 38.9067 509.295 39.4 507.242 39.4C504.682 39.4 502.735 38.5867 501.402 36.96C500.069 35.3333 499.402 33.1067 499.402 30.28V27.92C499.402 25.0933 500.069 22.8667 501.402 21.24C502.735 19.6133 504.682 18.8 507.242 18.8C508.202 18.8 509.189 18.9333 510.202 19.2C511.242 19.44 512.282 19.7867 513.322 20.24L512.322 23.04C511.442 22.6667 510.589 22.3733 509.762 22.16C508.962 21.9467 508.189 21.84 507.442 21.84C505.815 21.84 504.629 22.36 503.882 23.4C503.135 24.4133 502.762 25.92 502.762 27.92ZM528.811 22.08C527.611 22.08 526.437 22.2933 525.291 22.72C524.171 23.1467 522.971 23.96 521.691 25.16V39H518.411V19.2H521.531V22.4C522.891 21.0667 524.131 20.1333 525.251 19.6C526.397 19.0667 527.584 18.8 528.811 18.8V22.08ZM547.458 37.84C546.258 38.4267 545.058 38.8267 543.858 39.04C542.658 39.28 541.551 39.4 540.538 39.4C537.685 39.4 535.551 38.5867 534.138 36.96C532.751 35.3333 532.058 33.1067 532.058 30.28V27.88C532.058 25.1333 532.751 22.9333 534.138 21.28C535.551 19.6267 537.538 18.8 540.098 18.8C541.458 18.8 542.698 19.08 543.818 19.64C544.965 20.1733 545.871 21 546.538 22.12C547.231 23.2133 547.578 24.6267 547.578 26.36C547.578 27.48 547.418 28.76 547.098 30.2H535.298V30.28C535.298 32.3067 535.711 33.84 536.538 34.88C537.391 35.92 538.751 36.44 540.618 36.44C541.471 36.44 542.405 36.3333 543.418 36.12C544.458 35.9067 545.471 35.5733 546.458 35.12L547.458 37.84ZM540.098 21.68C538.551 21.68 537.378 22.1867 536.578 23.2C535.805 24.1867 535.378 25.5867 535.298 27.4H544.258C544.338 26.92 544.378 26.4667 544.378 26.04C544.378 24.5467 543.951 23.4533 543.098 22.76C542.271 22.04 541.271 21.68 540.098 21.68ZM567.734 39.2C566.508 39.2 565.521 38.92 564.774 38.36C564.054 37.8 563.548 37.1067 563.254 36.28C561.948 37.4267 560.761 38.24 559.694 38.72C558.628 39.1733 557.561 39.4 556.494 39.4C554.761 39.4 553.481 38.84 552.654 37.72C551.828 36.6 551.414 35.2267 551.414 33.6C551.414 32.5067 551.614 31.5333 552.014 30.68C552.414 29.8267 553.094 29.16 554.054 28.68C555.014 28.1733 556.308 27.92 557.934 27.92C558.654 27.92 559.441 27.9733 560.294 28.08C561.148 28.16 562.014 28.2667 562.894 28.4V25.72C562.894 24.2267 562.561 23.2133 561.894 22.68C561.254 22.12 560.308 21.84 559.054 21.84C557.348 21.84 555.441 22.3067 553.334 23.24L552.294 20.52C553.521 19.96 554.694 19.5333 555.814 19.24C556.934 18.9467 558.068 18.8 559.214 18.8C561.081 18.8 562.508 19.1067 563.494 19.72C564.481 20.3333 565.161 21.1467 565.534 22.16C565.908 23.1733 566.094 24.28 566.094 25.48V34.04C566.094 34.6533 566.214 35.1733 566.454 35.6C566.694 36 567.174 36.2 567.894 36.2H568.334V39.2H567.734ZM554.654 33.56C554.654 34.4667 554.868 35.2 555.294 35.76C555.721 36.32 556.334 36.6 557.134 36.6C557.828 36.6 558.628 36.4 559.534 36C560.441 35.5733 561.561 34.7333 562.894 33.48V30.96C561.081 30.6667 559.481 30.52 558.094 30.52C556.868 30.52 555.988 30.7733 555.454 31.28C554.921 31.7867 554.654 32.5467 554.654 33.56ZM583.861 38.28C582.368 39.0267 580.781 39.4 579.101 39.4C577.661 39.4 576.528 39.1067 575.701 38.52C574.901 37.9333 574.328 37.1467 573.981 36.16C573.661 35.1733 573.501 34.08 573.501 32.88V22.08H570.061V19.2H573.501V13.68H576.781V19.2H583.261V22.08H576.781V32.76C576.781 34.1467 577.008 35.1067 577.461 35.64C577.941 36.1467 578.674 36.4 579.661 36.4C580.141 36.4 580.634 36.3467 581.141 36.24C581.674 36.1067 582.248 35.8933 582.861 35.6L583.861 38.28ZM602.536 37.84C601.336 38.4267 600.136 38.8267 598.936 39.04C597.736 39.28 596.63 39.4 595.616 39.4C592.763 39.4 590.63 38.5867 589.216 36.96C587.83 35.3333 587.136 33.1067 587.136 30.28V27.88C587.136 25.1333 587.83 22.9333 589.216 21.28C590.63 19.6267 592.616 18.8 595.176 18.8C596.536 18.8 597.776 19.08 598.896 19.64C600.043 20.1733 600.95 21 601.616 22.12C602.31 23.2133 602.656 24.6267 602.656 26.36C602.656 27.48 602.496 28.76 602.176 30.2H590.376V30.28C590.376 32.3067 590.79 33.84 591.616 34.88C592.47 35.92 593.83 36.44 595.696 36.44C596.55 36.44 597.483 36.3333 598.496 36.12C599.536 35.9067 600.55 35.5733 601.536 35.12L602.536 37.84ZM595.176 21.68C593.63 21.68 592.456 22.1867 591.656 23.2C590.883 24.1867 590.456 25.5867 590.376 27.4H599.336C599.416 26.92 599.456 26.4667 599.456 26.04C599.456 24.5467 599.03 23.4533 598.176 22.76C597.35 22.04 596.35 21.68 595.176 21.68ZM634.083 11.8L625.763 28.12V39H622.283V28.12L613.923 11.8H617.683L624.203 24.68L630.483 11.8H634.083ZM651.708 27.88V30.28C651.708 33.1067 650.974 35.3333 649.508 36.96C648.068 38.5867 646.001 39.4 643.308 39.4C640.641 39.4 638.574 38.5867 637.108 36.96C635.641 35.3333 634.908 33.1067 634.908 30.28V27.88C634.908 25.1067 635.628 22.9067 637.068 21.28C638.534 19.6267 640.614 18.8 643.308 18.8C646.001 18.8 648.068 19.6267 649.508 21.28C650.974 22.9067 651.708 25.1067 651.708 27.88ZM648.308 27.88C648.308 25.9867 647.881 24.5067 647.028 23.44C646.174 22.3467 644.934 21.8 643.308 21.8C641.708 21.8 640.468 22.3467 639.588 23.44C638.734 24.5067 638.308 25.9867 638.308 27.88V30.28C638.308 32.2533 638.734 33.7733 639.588 34.84C640.468 35.9067 641.708 36.44 643.308 36.44C644.934 36.44 646.174 35.9067 647.028 34.84C647.881 33.7733 648.308 32.2533 648.308 30.28V27.88ZM669.868 39V36.2C668.482 37.4 667.242 38.24 666.148 38.72C665.055 39.1733 663.962 39.4 662.868 39.4C661.108 39.4 659.762 38.8267 658.828 37.68C657.895 36.5067 657.428 34.8667 657.428 32.76V19.2H660.708V32.28C660.708 33.6667 660.948 34.6933 661.428 35.36C661.935 36 662.682 36.32 663.668 36.32C664.415 36.32 665.255 36.1333 666.188 35.76C667.122 35.3867 668.282 34.64 669.668 33.52V19.2H672.948V39H669.868ZM690.412 22.08C689.212 22.08 688.039 22.2933 686.892 22.72C685.772 23.1467 684.572 23.96 683.292 25.16V39H680.012V19.2H683.132V22.4C684.492 21.0667 685.732 20.1333 686.852 19.6C687.999 19.0667 689.186 18.8 690.412 18.8V22.08ZM160 87.2C158.773 87.2 157.787 86.92 157.04 86.36C156.32 85.8 155.813 85.1067 155.52 84.28C154.213 85.4267 153.027 86.24 151.96 86.72C150.893 87.1733 149.827 87.4 148.76 87.4C147.027 87.4 145.747 86.84 144.92 85.72C144.093 84.6 143.68 83.2267 143.68 81.6C143.68 80.5067 143.88 79.5333 144.28 78.68C144.68 77.8267 145.36 77.16 146.32 76.68C147.28 76.1733 148.573 75.92 150.2 75.92C150.92 75.92 151.707 75.9733 152.56 76.08C153.413 76.16 154.28 76.2667 155.16 76.4V73.72C155.16 72.2267 154.827 71.2133 154.16 70.68C153.52 70.12 152.573 69.84 151.32 69.84C149.613 69.84 147.707 70.3067 145.6 71.24L144.56 68.52C145.787 67.96 146.96 67.5333 148.08 67.24C149.2 66.9467 150.333 66.8 151.48 66.8C153.347 66.8 154.773 67.1067 155.76 67.72C156.747 68.3333 157.427 69.1467 157.8 70.16C158.173 71.1733 158.36 72.28 158.36 73.48V82.04C158.36 82.6533 158.48 83.1733 158.72 83.6C158.96 84 159.44 84.2 160.16 84.2H160.6V87.2H160ZM146.92 81.56C146.92 82.4667 147.133 83.2 147.56 83.76C147.987 84.32 148.6 84.6 149.4 84.6C150.093 84.6 150.893 84.4 151.8 84C152.707 83.5733 153.827 82.7333 155.16 81.48V78.96C153.347 78.6667 151.747 78.52 150.36 78.52C149.133 78.52 148.253 78.7733 147.72 79.28C147.187 79.7867 146.92 80.5467 146.92 81.56ZM167.567 75.92V78.28C167.567 80.3067 167.94 81.84 168.687 82.88C169.433 83.8933 170.62 84.4 172.247 84.4C173.847 84.4 175.567 83.9867 177.407 83.16L178.407 85.92C176.22 86.9067 174.1 87.4 172.047 87.4C169.487 87.4 167.54 86.5867 166.207 84.96C164.873 83.3333 164.207 81.1067 164.207 78.28V75.92C164.207 73.0933 164.873 70.8667 166.207 69.24C167.54 67.6133 169.487 66.8 172.047 66.8C173.007 66.8 173.993 66.9333 175.007 67.2C176.047 67.44 177.087 67.7867 178.127 68.24L177.127 71.04C176.247 70.6667 175.393 70.3733 174.567 70.16C173.767 69.9467 172.993 69.84 172.247 69.84C170.62 69.84 169.433 70.36 168.687 71.4C167.94 72.4133 167.567 73.92 167.567 75.92ZM185.457 75.92V78.28C185.457 80.3067 185.831 81.84 186.577 82.88C187.324 83.8933 188.511 84.4 190.137 84.4C191.737 84.4 193.457 83.9867 195.297 83.16L196.297 85.92C194.111 86.9067 191.991 87.4 189.937 87.4C187.377 87.4 185.431 86.5867 184.097 84.96C182.764 83.3333 182.097 81.1067 182.097 78.28V75.92C182.097 73.0933 182.764 70.8667 184.097 69.24C185.431 67.6133 187.377 66.8 189.937 66.8C190.897 66.8 191.884 66.9333 192.897 67.2C193.937 67.44 194.977 67.7867 196.017 68.24L195.017 71.04C194.137 70.6667 193.284 70.3733 192.457 70.16C191.657 69.9467 190.884 69.84 190.137 69.84C188.511 69.84 187.324 70.36 186.577 71.4C185.831 72.4133 185.457 73.92 185.457 75.92ZM216.708 75.88V78.28C216.708 81.1067 215.974 83.3333 214.508 84.96C213.068 86.5867 211.001 87.4 208.308 87.4C205.641 87.4 203.574 86.5867 202.108 84.96C200.641 83.3333 199.908 81.1067 199.908 78.28V75.88C199.908 73.1067 200.628 70.9067 202.068 69.28C203.534 67.6267 205.614 66.8 208.308 66.8C211.001 66.8 213.068 67.6267 214.508 69.28C215.974 70.9067 216.708 73.1067 216.708 75.88ZM213.308 75.88C213.308 73.9867 212.881 72.5067 212.028 71.44C211.174 70.3467 209.934 69.8 208.308 69.8C206.708 69.8 205.468 70.3467 204.588 71.44C203.734 72.5067 203.308 73.9867 203.308 75.88V78.28C203.308 80.2533 203.734 81.7733 204.588 82.84C205.468 83.9067 206.708 84.44 208.308 84.44C209.934 84.44 211.174 83.9067 212.028 82.84C212.881 81.7733 213.308 80.2533 213.308 78.28V75.88ZM234.868 87V84.2C233.482 85.4 232.242 86.24 231.148 86.72C230.055 87.1733 228.962 87.4 227.868 87.4C226.108 87.4 224.762 86.8267 223.828 85.68C222.895 84.5067 222.428 82.8667 222.428 80.76V67.2H225.708V80.28C225.708 81.6667 225.948 82.6933 226.428 83.36C226.935 84 227.682 84.32 228.668 84.32C229.415 84.32 230.255 84.1333 231.188 83.76C232.122 83.3867 233.282 82.64 234.668 81.52V67.2H237.948V87H234.868ZM254.532 69.88C253.786 69.88 252.906 70.0667 251.892 70.44C250.906 70.8133 249.706 71.5733 248.292 72.72V87H245.012V67.2H248.132V69.96C249.546 68.76 250.826 67.9333 251.972 67.48C253.146 67.0267 254.266 66.8 255.332 66.8C257.172 66.8 258.572 67.3867 259.532 68.56C260.519 69.7067 261.012 71.3467 261.012 73.48V87H257.732V73.96C257.732 71.24 256.666 69.88 254.532 69.88ZM278.744 86.28C277.25 87.0267 275.664 87.4 273.984 87.4C272.544 87.4 271.41 87.1067 270.584 86.52C269.784 85.9333 269.21 85.1467 268.864 84.16C268.544 83.1733 268.384 82.08 268.384 80.88V70.08H264.944V67.2H268.384V61.68H271.664V67.2H278.144V70.08H271.664V80.76C271.664 82.1467 271.89 83.1067 272.344 83.64C272.824 84.1467 273.557 84.4 274.544 84.4C275.024 84.4 275.517 84.3467 276.024 84.24C276.557 84.1067 277.13 83.8933 277.744 83.6L278.744 86.28ZM301.09 69.88C300.343 69.88 299.503 70.08 298.57 70.48C297.637 70.8533 296.463 71.6 295.05 72.72V87H291.77V67.2H294.89V69.96C296.303 68.7867 297.557 67.9733 298.65 67.52C299.743 67.04 300.823 66.8 301.89 66.8C303.143 66.8 304.183 67.0933 305.01 67.68C305.837 68.24 306.45 69.0533 306.85 70.12C308.317 68.8667 309.623 68 310.77 67.52C311.943 67.04 313.09 66.8 314.21 66.8C315.97 66.8 317.317 67.3867 318.25 68.56C319.183 69.7067 319.65 71.3467 319.65 73.48V87H316.37V73.96C316.37 71.24 315.383 69.88 313.41 69.88C312.663 69.88 311.81 70.08 310.85 70.48C309.917 70.8533 308.743 71.6 307.33 72.72C307.357 72.8267 307.37 72.9467 307.37 73.08C307.37 73.2133 307.37 73.3467 307.37 73.48V87H304.09V73.96C304.09 71.24 303.09 69.88 301.09 69.88ZM341.016 87.2C339.789 87.2 338.802 86.92 338.056 86.36C337.336 85.8 336.829 85.1067 336.536 84.28C335.229 85.4267 334.042 86.24 332.976 86.72C331.909 87.1733 330.842 87.4 329.776 87.4C328.042 87.4 326.762 86.84 325.936 85.72C325.109 84.6 324.696 83.2267 324.696 81.6C324.696 80.5067 324.896 79.5333 325.296 78.68C325.696 77.8267 326.376 77.16 327.336 76.68C328.296 76.1733 329.589 75.92 331.216 75.92C331.936 75.92 332.722 75.9733 333.576 76.08C334.429 76.16 335.296 76.2667 336.176 76.4V73.72C336.176 72.2267 335.842 71.2133 335.176 70.68C334.536 70.12 333.589 69.84 332.336 69.84C330.629 69.84 328.722 70.3067 326.616 71.24L325.576 68.52C326.802 67.96 327.976 67.5333 329.096 67.24C330.216 66.9467 331.349 66.8 332.496 66.8C334.362 66.8 335.789 67.1067 336.776 67.72C337.762 68.3333 338.442 69.1467 338.816 70.16C339.189 71.1733 339.376 72.28 339.376 73.48V82.04C339.376 82.6533 339.496 83.1733 339.736 83.6C339.976 84 340.456 84.2 341.176 84.2H341.616V87.2H341.016ZM327.936 81.56C327.936 82.4667 328.149 83.2 328.576 83.76C329.002 84.32 329.616 84.6 330.416 84.6C331.109 84.6 331.909 84.4 332.816 84C333.722 83.5733 334.842 82.7333 336.176 81.48V78.96C334.362 78.6667 332.762 78.52 331.376 78.52C330.149 78.52 329.269 78.7733 328.736 79.28C328.202 79.7867 327.936 80.5467 327.936 81.56ZM358.462 87L352.902 77.84C352.396 78.3467 351.862 78.8667 351.302 79.4C350.742 79.9333 350.156 80.4667 349.542 81V87H346.262V57.4H349.542V77.32C351.276 75.64 352.809 74 354.142 72.4C355.502 70.8 356.742 69.0667 357.862 67.2H361.622C360.662 68.8 359.676 70.28 358.662 71.64C357.676 72.9733 356.556 74.3333 355.302 75.72L362.422 87H358.462ZM380.466 85.84C379.266 86.4267 378.066 86.8267 376.866 87.04C375.666 87.28 374.559 87.4 373.546 87.4C370.693 87.4 368.559 86.5867 367.146 84.96C365.759 83.3333 365.066 81.1067 365.066 78.28V75.88C365.066 73.1333 365.759 70.9333 367.146 69.28C368.559 67.6267 370.546 66.8 373.106 66.8C374.466 66.8 375.706 67.08 376.826 67.64C377.973 68.1733 378.879 69 379.546 70.12C380.239 71.2133 380.586 72.6267 380.586 74.36C380.586 75.48 380.426 76.76 380.106 78.2H368.306V78.28C368.306 80.3067 368.719 81.84 369.546 82.88C370.399 83.92 371.759 84.44 373.626 84.44C374.479 84.44 375.413 84.3333 376.426 84.12C377.466 83.9067 378.479 83.5733 379.466 83.12L380.466 85.84ZM373.106 69.68C371.559 69.68 370.386 70.1867 369.586 71.2C368.813 72.1867 368.386 73.5867 368.306 75.4H377.266C377.346 74.92 377.386 74.4667 377.386 74.04C377.386 72.5467 376.959 71.4533 376.106 70.76C375.279 70.04 374.279 69.68 373.106 69.68ZM409.453 87.2C408.226 87.2 407.24 86.92 406.493 86.36C405.773 85.8 405.266 85.1067 404.973 84.28C403.666 85.4267 402.48 86.24 401.413 86.72C400.346 87.1733 399.28 87.4 398.213 87.4C396.48 87.4 395.2 86.84 394.373 85.72C393.546 84.6 393.133 83.2267 393.133 81.6C393.133 80.5067 393.333 79.5333 393.733 78.68C394.133 77.8267 394.813 77.16 395.773 76.68C396.733 76.1733 398.026 75.92 399.653 75.92C400.373 75.92 401.16 75.9733 402.013 76.08C402.866 76.16 403.733 76.2667 404.613 76.4V73.72C404.613 72.2267 404.28 71.2133 403.613 70.68C402.973 70.12 402.026 69.84 400.773 69.84C399.066 69.84 397.16 70.3067 395.053 71.24L394.013 68.52C395.24 67.96 396.413 67.5333 397.533 67.24C398.653 66.9467 399.786 66.8 400.933 66.8C402.8 66.8 404.226 67.1067 405.213 67.72C406.2 68.3333 406.88 69.1467 407.253 70.16C407.626 71.1733 407.813 72.28 407.813 73.48V82.04C407.813 82.6533 407.933 83.1733 408.173 83.6C408.413 84 408.893 84.2 409.613 84.2H410.053V87.2H409.453ZM396.373 81.56C396.373 82.4667 396.586 83.2 397.013 83.76C397.44 84.32 398.053 84.6 398.853 84.6C399.546 84.6 400.346 84.4 401.253 84C402.16 83.5733 403.28 82.7333 404.613 81.48V78.96C402.8 78.6667 401.2 78.52 399.813 78.52C398.586 78.52 397.706 78.7733 397.173 79.28C396.64 79.7867 396.373 80.5467 396.373 81.56ZM435.611 87V84.2C434.224 85.4 432.984 86.24 431.891 86.72C430.797 87.1733 429.704 87.4 428.611 87.4C426.851 87.4 425.504 86.8267 424.571 85.68C423.637 84.5067 423.171 82.8667 423.171 80.76V67.2H426.451V80.28C426.451 81.6667 426.691 82.6933 427.171 83.36C427.677 84 428.424 84.32 429.411 84.32C430.157 84.32 430.997 84.1333 431.931 83.76C432.864 83.3867 434.024 82.64 435.411 81.52V67.2H438.691V87H435.611ZM450.594 84.48C453.261 84.48 454.594 83.5733 454.594 81.76C454.594 80.9867 454.354 80.3733 453.874 79.92C453.394 79.4667 452.514 79.08 451.234 78.76L449.034 78.2C447.408 77.8 446.194 77.1067 445.394 76.12C444.594 75.1067 444.194 73.9067 444.194 72.52C444.194 71.5067 444.421 70.5733 444.874 69.72C445.328 68.84 446.048 68.1333 447.034 67.6C448.021 67.0667 449.301 66.8 450.874 66.8C451.888 66.8 452.914 66.92 453.954 67.16C455.021 67.3733 456.101 67.7467 457.194 68.28L456.154 71.04C454.208 70.16 452.448 69.72 450.874 69.72C448.554 69.72 447.394 70.5867 447.394 72.32C447.394 72.9867 447.608 73.56 448.034 74.04C448.461 74.52 449.261 74.9067 450.434 75.2L452.634 75.76C454.394 76.1867 455.688 76.88 456.514 77.84C457.341 78.8 457.754 80.04 457.754 81.56C457.754 82.6533 457.514 83.6533 457.034 84.56C456.581 85.44 455.834 86.1333 454.794 86.64C453.781 87.1467 452.408 87.4 450.674 87.4C449.528 87.4 448.381 87.28 447.234 87.04C446.114 86.8 444.954 86.4133 443.754 85.88L444.634 83.16C445.781 83.6133 446.821 83.9467 447.754 84.16C448.688 84.3733 449.634 84.48 450.594 84.48ZM477.341 85.84C476.141 86.4267 474.941 86.8267 473.741 87.04C472.541 87.28 471.434 87.4 470.421 87.4C467.568 87.4 465.434 86.5867 464.021 84.96C462.634 83.3333 461.941 81.1067 461.941 78.28V75.88C461.941 73.1333 462.634 70.9333 464.021 69.28C465.434 67.6267 467.421 66.8 469.981 66.8C471.341 66.8 472.581 67.08 473.701 67.64C474.848 68.1733 475.754 69 476.421 70.12C477.114 71.2133 477.461 72.6267 477.461 74.36C477.461 75.48 477.301 76.76 476.981 78.2H465.181V78.28C465.181 80.3067 465.594 81.84 466.421 82.88C467.274 83.92 468.634 84.44 470.501 84.44C471.354 84.44 472.288 84.3333 473.301 84.12C474.341 83.9067 475.354 83.5733 476.341 83.12L477.341 85.84ZM469.981 69.68C468.434 69.68 467.261 70.1867 466.461 71.2C465.688 72.1867 465.261 73.5867 465.181 75.4H474.141C474.221 74.92 474.261 74.4667 474.261 74.04C474.261 72.5467 473.834 71.4533 472.981 70.76C472.154 70.04 471.154 69.68 469.981 69.68ZM493.537 70.08C492.337 70.08 491.164 70.2933 490.017 70.72C488.897 71.1467 487.697 71.96 486.417 73.16V87H483.137V67.2H486.257V70.4C487.617 69.0667 488.857 68.1333 489.977 67.6C491.124 67.0667 492.311 66.8 493.537 66.8V70.08ZM516.056 69.88C515.309 69.88 514.429 70.0667 513.416 70.44C512.429 70.8133 511.229 71.5733 509.816 72.72V87H506.536V67.2H509.656V69.96C511.069 68.76 512.349 67.9333 513.496 67.48C514.669 67.0267 515.789 66.8 516.856 66.8C518.696 66.8 520.096 67.3867 521.056 68.56C522.042 69.7067 522.536 71.3467 522.536 73.48V87H519.256V73.96C519.256 71.24 518.189 69.88 516.056 69.88ZM543.867 87.2C542.641 87.2 541.654 86.92 540.907 86.36C540.187 85.8 539.681 85.1067 539.387 84.28C538.081 85.4267 536.894 86.24 535.827 86.72C534.761 87.1733 533.694 87.4 532.627 87.4C530.894 87.4 529.614 86.84 528.787 85.72C527.961 84.6 527.547 83.2267 527.547 81.6C527.547 80.5067 527.747 79.5333 528.147 78.68C528.547 77.8267 529.227 77.16 530.187 76.68C531.147 76.1733 532.441 75.92 534.067 75.92C534.787 75.92 535.574 75.9733 536.427 76.08C537.281 76.16 538.147 76.2667 539.027 76.4V73.72C539.027 72.2267 538.694 71.2133 538.027 70.68C537.387 70.12 536.441 69.84 535.187 69.84C533.481 69.84 531.574 70.3067 529.467 71.24L528.427 68.52C529.654 67.96 530.827 67.5333 531.947 67.24C533.067 66.9467 534.201 66.8 535.347 66.8C537.214 66.8 538.641 67.1067 539.627 67.72C540.614 68.3333 541.294 69.1467 541.667 70.16C542.041 71.1733 542.227 72.28 542.227 73.48V82.04C542.227 82.6533 542.347 83.1733 542.587 83.6C542.827 84 543.307 84.2 544.027 84.2H544.467V87.2H543.867ZM530.787 81.56C530.787 82.4667 531.001 83.2 531.427 83.76C531.854 84.32 532.467 84.6 533.267 84.6C533.961 84.6 534.761 84.4 535.667 84C536.574 83.5733 537.694 82.7333 539.027 81.48V78.96C537.214 78.6667 535.614 78.52 534.227 78.52C533.001 78.52 532.121 78.7733 531.587 79.28C531.054 79.7867 530.787 80.5467 530.787 81.56ZM558.434 69.88C557.687 69.88 556.847 70.08 555.914 70.48C554.98 70.8533 553.807 71.6 552.394 72.72V87H549.114V67.2H552.234V69.96C553.647 68.7867 554.9 67.9733 555.994 67.52C557.087 67.04 558.167 66.8 559.234 66.8C560.487 66.8 561.527 67.0933 562.354 67.68C563.18 68.24 563.794 69.0533 564.194 70.12C565.66 68.8667 566.967 68 568.114 67.52C569.287 67.04 570.434 66.8 571.554 66.8C573.314 66.8 574.66 67.3867 575.594 68.56C576.527 69.7067 576.994 71.3467 576.994 73.48V87H573.714V73.96C573.714 71.24 572.727 69.88 570.754 69.88C570.007 69.88 569.154 70.08 568.194 70.48C567.26 70.8533 566.087 71.6 564.674 72.72C564.7 72.8267 564.714 72.9467 564.714 73.08C564.714 73.2133 564.714 73.3467 564.714 73.48V87H561.434V73.96C561.434 71.24 560.434 69.88 558.434 69.88ZM598.239 85.84C597.039 86.4267 595.839 86.8267 594.639 87.04C593.439 87.28 592.333 87.4 591.319 87.4C588.466 87.4 586.333 86.5867 584.919 84.96C583.533 83.3333 582.839 81.1067 582.839 78.28V75.88C582.839 73.1333 583.533 70.9333 584.919 69.28C586.333 67.6267 588.319 66.8 590.879 66.8C592.239 66.8 593.479 67.08 594.599 67.64C595.746 68.1733 596.653 69 597.319 70.12C598.013 71.2133 598.359 72.6267 598.359 74.36C598.359 75.48 598.199 76.76 597.879 78.2H586.079V78.28C586.079 80.3067 586.493 81.84 587.319 82.88C588.173 83.92 589.533 84.44 591.399 84.44C592.253 84.44 593.186 84.3333 594.199 84.12C595.239 83.9067 596.253 83.5733 597.239 83.12L598.239 85.84ZM590.879 69.68C589.333 69.68 588.159 70.1867 587.359 71.2C586.586 72.1867 586.159 73.5867 586.079 75.4H595.039C595.119 74.92 595.159 74.4667 595.159 74.04C595.159 72.5467 594.733 71.4533 593.879 70.76C593.053 70.04 592.053 69.68 590.879 69.68ZM627.227 87.2C626 87.2 625.013 86.92 624.267 86.36C623.547 85.8 623.04 85.1067 622.747 84.28C621.44 85.4267 620.253 86.24 619.187 86.72C618.12 87.1733 617.053 87.4 615.987 87.4C614.253 87.4 612.973 86.84 612.147 85.72C611.32 84.6 610.907 83.2267 610.907 81.6C610.907 80.5067 611.107 79.5333 611.507 78.68C611.907 77.8267 612.587 77.16 613.547 76.68C614.507 76.1733 615.8 75.92 617.427 75.92C618.147 75.92 618.933 75.9733 619.787 76.08C620.64 76.16 621.507 76.2667 622.387 76.4V73.72C622.387 72.2267 622.053 71.2133 621.387 70.68C620.747 70.12 619.8 69.84 618.547 69.84C616.84 69.84 614.933 70.3067 612.827 71.24L611.787 68.52C613.013 67.96 614.187 67.5333 615.307 67.24C616.427 66.9467 617.56 66.8 618.707 66.8C620.573 66.8 622 67.1067 622.987 67.72C623.973 68.3333 624.653 69.1467 625.027 70.16C625.4 71.1733 625.587 72.28 625.587 73.48V82.04C625.587 82.6533 625.707 83.1733 625.947 83.6C626.187 84 626.667 84.2 627.387 84.2H627.827V87.2H627.227ZM614.147 81.56C614.147 82.4667 614.36 83.2 614.787 83.76C615.213 84.32 615.827 84.6 616.627 84.6C617.32 84.6 618.12 84.4 619.027 84C619.933 83.5733 621.053 82.7333 622.387 81.48V78.96C620.573 78.6667 618.973 78.52 617.587 78.52C616.36 78.52 615.48 78.7733 614.947 79.28C614.413 79.7867 614.147 80.5467 614.147 81.56ZM641.993 69.88C641.246 69.88 640.366 70.0667 639.353 70.44C638.366 70.8133 637.166 71.5733 635.753 72.72V87H632.473V67.2H635.593V69.96C637.006 68.76 638.286 67.9333 639.433 67.48C640.606 67.0267 641.726 66.8 642.793 66.8C644.633 66.8 646.033 67.3867 646.993 68.56C647.98 69.7067 648.473 71.3467 648.473 73.48V87H645.193V73.96C645.193 71.24 644.126 69.88 641.993 69.88ZM667.365 87V84.24C666.138 85.4133 665.018 86.24 664.005 86.72C663.018 87.1733 661.991 87.4 660.925 87.4C658.818 87.4 657.191 86.6 656.045 85C654.925 83.4 654.365 81.16 654.365 78.28V75.96C654.365 73.16 655.058 70.9333 656.445 69.28C657.858 67.6267 659.898 66.8 662.565 66.8C663.338 66.8 664.111 66.88 664.885 67.04C665.658 67.2 666.431 67.4267 667.205 67.72V57.4H670.485V87H667.365ZM657.765 78.28C657.765 80.36 658.085 81.8933 658.725 82.88C659.391 83.84 660.378 84.32 661.685 84.32C662.458 84.32 663.258 84.1333 664.085 83.76C664.911 83.36 665.951 82.5467 667.205 81.32V70.76C666.431 70.4133 665.685 70.1733 664.965 70.04C664.245 69.88 663.538 69.8 662.845 69.8C661.031 69.8 659.725 70.3467 658.925 71.44C658.151 72.5333 657.765 74.04 657.765 75.96V78.28ZM160 135.2C158.773 135.2 157.787 134.92 157.04 134.36C156.32 133.8 155.813 133.107 155.52 132.28C154.213 133.427 153.027 134.24 151.96 134.72C150.893 135.173 149.827 135.4 148.76 135.4C147.027 135.4 145.747 134.84 144.92 133.72C144.093 132.6 143.68 131.227 143.68 129.6C143.68 128.507 143.88 127.533 144.28 126.68C144.68 125.827 145.36 125.16 146.32 124.68C147.28 124.173 148.573 123.92 150.2 123.92C150.92 123.92 151.707 123.973 152.56 124.08C153.413 124.16 154.28 124.267 155.16 124.4V121.72C155.16 120.227 154.827 119.213 154.16 118.68C153.52 118.12 152.573 117.84 151.32 117.84C149.613 117.84 147.707 118.307 145.6 119.24L144.56 116.52C145.787 115.96 146.96 115.533 148.08 115.24C149.2 114.947 150.333 114.8 151.48 114.8C153.347 114.8 154.773 115.107 155.76 115.72C156.747 116.333 157.427 117.147 157.8 118.16C158.173 119.173 158.36 120.28 158.36 121.48V130.04C158.36 130.653 158.48 131.173 158.72 131.6C158.96 132 159.44 132.2 160.16 132.2H160.6V135.2H160ZM146.92 129.56C146.92 130.467 147.133 131.2 147.56 131.76C147.987 132.32 148.6 132.6 149.4 132.6C150.093 132.6 150.893 132.4 151.8 132C152.707 131.573 153.827 130.733 155.16 129.48V126.96C153.347 126.667 151.747 126.52 150.36 126.52C149.133 126.52 148.253 126.773 147.72 127.28C147.187 127.787 146.92 128.547 146.92 129.56ZM181.878 135.4C180.384 135.4 178.838 135.093 177.238 134.48V143.52H173.958V115.2H177.078V118C178.304 116.827 179.424 116 180.438 115.52C181.451 115.04 182.491 114.8 183.558 114.8C185.664 114.8 187.278 115.6 188.398 117.2C189.544 118.8 190.118 121.053 190.118 123.96V126.28C190.118 129.053 189.411 131.267 187.998 132.92C186.611 134.573 184.571 135.4 181.878 135.4ZM182.758 117.88C181.984 117.88 181.184 118.08 180.358 118.48C179.531 118.88 178.491 119.693 177.238 120.92V131.48C178.011 131.827 178.758 132.08 179.478 132.24C180.198 132.373 180.904 132.44 181.598 132.44C183.411 132.44 184.718 131.893 185.518 130.8C186.318 129.68 186.718 128.173 186.718 126.28V123.96C186.718 121.88 186.384 120.347 185.718 119.36C185.078 118.373 184.091 117.88 182.758 117.88ZM210.664 135.2C209.437 135.2 208.451 134.92 207.704 134.36C206.984 133.8 206.477 133.107 206.184 132.28C204.877 133.427 203.691 134.24 202.624 134.72C201.557 135.173 200.491 135.4 199.424 135.4C197.691 135.4 196.411 134.84 195.584 133.72C194.757 132.6 194.344 131.227 194.344 129.6C194.344 128.507 194.544 127.533 194.944 126.68C195.344 125.827 196.024 125.16 196.984 124.68C197.944 124.173 199.237 123.92 200.864 123.92C201.584 123.92 202.371 123.973 203.224 124.08C204.077 124.16 204.944 124.267 205.824 124.4V121.72C205.824 120.227 205.491 119.213 204.824 118.68C204.184 118.12 203.237 117.84 201.984 117.84C200.277 117.84 198.371 118.307 196.264 119.24L195.224 116.52C196.451 115.96 197.624 115.533 198.744 115.24C199.864 114.947 200.997 114.8 202.144 114.8C204.011 114.8 205.437 115.107 206.424 115.72C207.411 116.333 208.091 117.147 208.464 118.16C208.837 119.173 209.024 120.28 209.024 121.48V130.04C209.024 130.653 209.144 131.173 209.384 131.6C209.624 132 210.104 132.2 210.824 132.2H211.264V135.2H210.664ZM197.584 129.56C197.584 130.467 197.797 131.2 198.224 131.76C198.651 132.32 199.264 132.6 200.064 132.6C200.757 132.6 201.557 132.4 202.464 132C203.371 131.573 204.491 130.733 205.824 129.48V126.96C204.011 126.667 202.411 126.52 201.024 126.52C199.797 126.52 198.917 126.773 198.384 127.28C197.851 127.787 197.584 128.547 197.584 129.56ZM220.751 132.48C223.417 132.48 224.751 131.573 224.751 129.76C224.751 128.987 224.511 128.373 224.031 127.92C223.551 127.467 222.671 127.08 221.391 126.76L219.191 126.2C217.564 125.8 216.351 125.107 215.551 124.12C214.751 123.107 214.351 121.907 214.351 120.52C214.351 119.507 214.577 118.573 215.031 117.72C215.484 116.84 216.204 116.133 217.191 115.6C218.177 115.067 219.457 114.8 221.031 114.8C222.044 114.8 223.071 114.92 224.111 115.16C225.177 115.373 226.257 115.747 227.351 116.28L226.311 119.04C224.364 118.16 222.604 117.72 221.031 117.72C218.711 117.72 217.551 118.587 217.551 120.32C217.551 120.987 217.764 121.56 218.191 122.04C218.617 122.52 219.417 122.907 220.591 123.2L222.791 123.76C224.551 124.187 225.844 124.88 226.671 125.84C227.497 126.8 227.911 128.04 227.911 129.56C227.911 130.653 227.671 131.653 227.191 132.56C226.737 133.44 225.991 134.133 224.951 134.64C223.937 135.147 222.564 135.4 220.831 135.4C219.684 135.4 218.537 135.28 217.391 135.04C216.271 134.8 215.111 134.413 213.911 133.88L214.791 131.16C215.937 131.613 216.977 131.947 217.911 132.16C218.844 132.373 219.791 132.48 220.751 132.48ZM237.977 132.48C240.644 132.48 241.977 131.573 241.977 129.76C241.977 128.987 241.737 128.373 241.257 127.92C240.777 127.467 239.897 127.08 238.617 126.76L236.417 126.2C234.791 125.8 233.577 125.107 232.777 124.12C231.977 123.107 231.577 121.907 231.577 120.52C231.577 119.507 231.804 118.573 232.257 117.72C232.711 116.84 233.431 116.133 234.417 115.6C235.404 115.067 236.684 114.8 238.257 114.8C239.271 114.8 240.297 114.92 241.337 115.16C242.404 115.373 243.484 115.747 244.577 116.28L243.537 119.04C241.591 118.16 239.831 117.72 238.257 117.72C235.937 117.72 234.777 118.587 234.777 120.32C234.777 120.987 234.991 121.56 235.417 122.04C235.844 122.52 236.644 122.907 237.817 123.2L240.017 123.76C241.777 124.187 243.071 124.88 243.897 125.84C244.724 126.8 245.137 128.04 245.137 129.56C245.137 130.653 244.897 131.653 244.417 132.56C243.964 133.44 243.217 134.133 242.177 134.64C241.164 135.147 239.791 135.4 238.057 135.4C236.911 135.4 235.764 135.28 234.617 135.04C233.497 134.8 232.337 134.413 231.137 133.88L232.017 131.16C233.164 131.613 234.204 131.947 235.137 132.16C236.071 132.373 237.017 132.48 237.977 132.48ZM274.244 115.2L269.164 135H265.364L261.204 118.76L256.924 135H253.124L248.084 115.2H251.444L253.444 123.48L255.244 131.68L259.524 115.2H263.004L267.284 131.76L269.044 123.52L271.004 115.2H274.244ZM294.52 123.88V126.28C294.52 129.107 293.787 131.333 292.32 132.96C290.88 134.587 288.814 135.4 286.12 135.4C283.454 135.4 281.387 134.587 279.92 132.96C278.454 131.333 277.72 129.107 277.72 126.28V123.88C277.72 121.107 278.44 118.907 279.88 117.28C281.347 115.627 283.427 114.8 286.12 114.8C288.814 114.8 290.88 115.627 292.32 117.28C293.787 118.907 294.52 121.107 294.52 123.88ZM291.12 123.88C291.12 121.987 290.694 120.507 289.84 119.44C288.987 118.347 287.747 117.8 286.12 117.8C284.52 117.8 283.28 118.347 282.4 119.44C281.547 120.507 281.12 121.987 281.12 123.88V126.28C281.12 128.253 281.547 129.773 282.4 130.84C283.28 131.907 284.52 132.44 286.12 132.44C287.747 132.44 288.987 131.907 289.84 130.84C290.694 129.773 291.12 128.253 291.12 126.28V123.88ZM310.881 118.08C309.681 118.08 308.508 118.293 307.361 118.72C306.241 119.147 305.041 119.96 303.761 121.16V135H300.481V115.2H303.601V118.4C304.961 117.067 306.201 116.133 307.321 115.6C308.468 115.067 309.654 114.8 310.881 114.8V118.08ZM327.208 135V132.24C325.982 133.413 324.862 134.24 323.848 134.72C322.862 135.173 321.835 135.4 320.768 135.4C318.662 135.4 317.035 134.6 315.888 133C314.768 131.4 314.208 129.16 314.208 126.28V123.96C314.208 121.16 314.902 118.933 316.288 117.28C317.702 115.627 319.742 114.8 322.408 114.8C323.182 114.8 323.955 114.88 324.728 115.04C325.502 115.2 326.275 115.427 327.048 115.72V105.4H330.328V135H327.208ZM317.608 126.28C317.608 128.36 317.928 129.893 318.568 130.88C319.235 131.84 320.222 132.32 321.528 132.32C322.302 132.32 323.102 132.133 323.928 131.76C324.755 131.36 325.795 130.547 327.048 129.32V118.76C326.275 118.413 325.528 118.173 324.808 118.04C324.088 117.88 323.382 117.8 322.688 117.8C320.875 117.8 319.568 118.347 318.768 119.44C317.995 120.533 317.608 122.04 317.608 123.96V126.28ZM339.282 135H335.602V131.36H339.282V135Z" fill="white"/>
<path d="M85.3743 42.1124H4.32812V112.365H85.3743V42.1124Z" fill="#BF6C0D"/>
<path d="M25.6497 103.017C28.4895 103.017 30.7916 100.715 30.7916 97.8755C30.7916 95.0357 28.4895 92.7336 25.6497 92.7336C22.8099 92.7336 20.5078 95.0357 20.5078 97.8755C20.5078 100.715 22.8099 103.017 25.6497 103.017Z" fill="#A56021"/>
<path d="M16.768 42.1124H4.32812V112.366H16.768V42.1124Z" fill="#A56021"/>
<path d="M51.1924 64.0657H38.5107V76.7474H51.1924V64.0657Z" fill="#8C4C17"/>
<path d="M95.1321 78.742C85.221 80.4801 45.9086 77.4292 38.6319 76.8424C37.975 76.7894 37.4702 76.2501 37.4702 75.6026V69.0747C37.4702 68.4271 37.9752 67.8878 38.6319 67.8348C45.9086 67.248 85.221 64.1971 95.1321 65.9352C96.3434 66.1476 97.227 67.1774 97.227 68.3863V76.2904C97.227 77.4999 96.3434 78.5296 95.1321 78.742Z" fill="#A56021"/>
<path d="M51.6495 64.5785H38.0528C36.3321 64.5785 34.937 63.1834 34.937 61.4627V53.6285H54.7653V61.4627C54.7653 63.1834 53.3702 64.5785 51.6495 64.5785Z" fill="#FFA730"/>
<path d="M43.1106 73.6079C42.4539 73.555 41.9489 73.0159 41.9489 72.3684V67.5744C40.5343 67.6832 39.4023 67.773 38.6324 67.8351C37.9757 67.8881 37.4707 68.4274 37.4707 69.0749V75.6028C37.4707 76.2504 37.9757 76.7894 38.6324 76.8424C45.9091 77.4292 85.2215 80.4801 95.1326 78.742C96.3439 78.5296 97.2275 77.4999 97.2275 76.2909V75.795C84.5531 76.8461 49.8979 74.1555 43.1106 73.6079Z" fill="#8C4C17"/>
<path d="M42.401 59.5997H54.7653V53.6285H34.937V61.5928C34.937 63.2418 36.2737 64.5783 37.9225 64.5783H42.401V59.5997Z" fill="#E58D23"/>
<path d="M85.3746 15.2143H4.32812V9.49131C4.32812 5.9063 7.23441 3.00002 10.8194 3.00002H78.883C82.468 3.00002 85.3743 5.9063 85.3743 9.49131V15.2143H85.3746Z" fill="#FFC34C"/>
<path d="M22.988 5.73675H84.3082C83.1899 4.08536 81.2991 3.00002 79.1543 3.00002H10.5481C7.11289 3.00002 4.32812 5.78478 4.32812 9.21998V15.2143H16.768V11.957C16.768 8.52151 19.5528 5.73675 22.988 5.73675Z" fill="#F9BB32"/>
<path d="M25.4215 56.8993L22.7907 51.4329V31.839H12.6729V51.4329L10.0421 56.8993C9.72401 57.5599 10.2057 58.3261 10.9389 58.3261H24.5247C25.2582 58.3261 25.7396 57.5599 25.4215 56.8993Z" fill="#FFDF74"/>
<path d="M67.7407 31.8388H75.9512C75.9512 31.8388 75.9512 53.6038 73.9898 58.3261H69.7021H73.9898H69.7021C67.7407 53.6038 67.7407 31.8388 67.7407 31.8388H75.9512H67.7407Z" fill="#FFDF74"/>
<path d="M67.7407 31.839C67.7407 31.839 67.7407 53.6038 69.7021 58.3261H72.9366C70.9752 53.6038 70.9752 31.839 70.9752 31.839H67.7407Z" fill="#FFD551"/>
<path d="M14.0233 56.8993L16.6541 51.4329V31.839H12.6734V51.4329L10.0426 56.8993C9.7245 57.5599 10.2062 58.3261 10.9394 58.3261H14.9201C14.1869 58.3261 13.7055 57.5599 14.0233 56.8993Z" fill="#FFD551"/>
<path d="M85.0287 125.907H4.67373C2.09253 125.907 0 123.814 0 121.233V111.61C0 109.029 2.09253 106.936 4.67373 106.936H85.0287C87.6099 106.936 89.7024 109.029 89.7024 111.61V121.233C89.7024 123.814 87.6099 125.907 85.0287 125.907Z" fill="#E58D23"/>
<path d="M64.8384 125.907H24.8647L29.2718 117.516C30.1315 115.878 31.8281 114.853 33.6771 114.853H56.0261C57.8751 114.853 59.5716 115.879 60.4313 117.516L64.8384 125.907Z" fill="#BF6C0D"/>
<path d="M85.3746 13.203H4.32812V45.0823H25.188C26.377 45.0823 27.3865 45.9264 27.629 47.0902C28.328 50.4452 29.6231 53.6641 31.4708 56.5877C32.1548 57.67 33.3455 58.3258 34.6256 58.3258H55.0766C56.3566 58.3258 57.5474 57.6697 58.2313 56.5877C60.0793 53.6641 61.3742 50.4452 62.0731 47.0902C62.3157 45.9262 63.3252 45.0823 64.5141 45.0823H85.374V13.203H85.3746Z" fill="#F9BB32"/>
<path d="M44.8513 42.1132C50.5256 42.1132 55.1255 37.5133 55.1255 31.839C55.1255 26.1647 50.5256 21.5648 44.8513 21.5648C39.177 21.5648 34.5771 26.1647 34.5771 31.839C34.5771 37.5133 39.177 42.1132 44.8513 42.1132Z" fill="#FCDA4F"/>
<path d="M44.8511 39.6252C49.1513 39.6252 52.6373 36.1392 52.6373 31.839C52.6373 27.5388 49.1513 24.0529 44.8511 24.0529C40.5509 24.0529 37.0649 27.5388 37.0649 31.839C37.0649 36.1392 40.5509 39.6252 44.8511 39.6252Z" fill="#FFEACF"/>
<path d="M17.5525 38.2244C20.3923 38.2244 22.6944 35.9223 22.6944 33.0825C22.6944 30.2427 20.3923 27.9406 17.5525 27.9406C14.7127 27.9406 12.4106 30.2427 12.4106 33.0825C12.4106 35.9223 14.7127 38.2244 17.5525 38.2244Z" fill="#FCDA4F"/>
<path d="M71.846 38.2244C74.6858 38.2244 76.9879 35.9223 76.9879 33.0825C76.9879 30.2427 74.6858 27.9406 71.846 27.9406C69.0062 27.9406 66.7041 30.2427 66.7041 33.0825C66.7041 35.9223 69.0062 38.2244 71.846 38.2244Z" fill="#FCDA4F"/>
<path d="M44.8507 34.0572C44.6129 34.0572 44.374 33.976 44.1788 33.8101L39.6175 29.934C39.1805 29.5624 39.1272 28.907 39.4985 28.4698C39.8701 28.0328 40.5257 27.9796 40.9627 28.3509L45.524 32.227C45.961 32.5985 46.0143 33.2539 45.6429 33.6911C45.4373 33.9329 45.1449 34.0572 44.8507 34.0572Z" fill="#FF624B"/>
<path d="M47.066 53.3501C45.7859 53.3501 44.5952 52.694 43.9112 51.612C42.0633 48.6884 40.7684 45.4692 40.0694 42.1145C39.8269 40.9507 38.8174 40.1066 37.6284 40.1066H16.7685V13.203H4.32861V45.0823H25.1885C26.3775 45.0823 27.387 45.9264 27.6295 47.0902C28.3285 50.4452 29.6236 53.6641 31.4713 56.5877C32.1552 57.67 33.346 58.3258 34.6261 58.3258H55.0771C56.3571 58.3258 57.5479 57.6697 58.2318 56.5877C58.8913 55.5442 59.4774 54.4614 59.9941 53.3499H47.066V53.3501Z" fill="#DB9C2E"/>
<path d="M76.9544 40.1064C75.7655 40.1064 74.7559 40.9505 74.5134 42.1142C74.3044 43.1181 74.0354 44.1073 73.7207 45.0823H85.3744V40.1064H76.9544Z" fill="#DB9C2E"/>
<path d="M17.0167 28.0066C14.5502 28.3851 12.6592 30.5101 12.6592 33.0825C12.6592 35.6549 14.5502 37.7799 17.0167 38.1584V28.0066Z" fill="#FFD551"/>
<path d="M70.3387 122.649C73.1785 122.649 75.4805 120.347 75.4805 117.507C75.4805 114.667 73.1785 112.365 70.3387 112.365C67.4989 112.365 65.1968 114.667 65.1968 117.507C65.1968 120.347 67.4989 122.649 70.3387 122.649Z" fill="#A56021"/>
<path d="M94.1975 74.3946C94.0723 74.3946 93.9451 74.3793 93.8181 74.3476C92.9836 74.1386 92.4762 73.2927 92.6853 72.4582C92.9309 71.4769 92.8782 70.7702 92.5282 70.3573C91.9068 69.6248 90.3372 69.5768 89.8366 69.617C88.9808 69.6887 88.2278 69.0526 88.1543 68.1983C88.0806 67.3438 88.7074 66.5911 89.5614 66.5134C89.9202 66.4807 93.1168 66.2543 94.891 68.3266C95.611 69.1676 96.3375 70.6985 95.7076 73.2148C95.5305 73.9223 94.8954 74.3946 94.1975 74.3946Z" fill="#BF6C0D"/>
<path d="M80.7913 105.482C79.9311 105.482 79.2334 104.784 79.2334 103.924V82.2842C79.2334 81.424 79.9311 80.7263 80.7913 80.7263C81.6515 80.7263 82.3492 81.424 82.3492 82.2842V103.924C82.3492 104.784 81.6518 105.482 80.7913 105.482Z" fill="#DB9C2E"/>
<path d="M81.5906 31.3924C80.7304 31.3924 80.0327 30.6947 80.0327 29.8345V14.2788C80.0327 13.4185 80.7304 12.7209 81.5906 12.7209C82.4509 12.7209 83.1485 13.4185 83.1485 14.2788V29.8345C83.1485 30.695 82.4509 31.3924 81.5906 31.3924Z" fill="#FFD551"/>
<path d="M61.8448 93.1042C59.9699 90.914 56.0889 91.1601 53.1766 93.6536C50.2644 96.147 49.4234 99.9439 51.2986 102.134C53.1738 104.324 57.0545 104.078 59.9668 101.584C62.879 99.0909 63.7198 95.2941 61.8448 93.1042ZM58.3533 99.6998C57.2791 100.62 56.0014 101.147 54.848 101.147C54.848 101.147 54.848 101.147 54.8478 101.147C54.3331 101.147 53.6263 101.038 53.1829 100.52C52.34 99.536 52.7929 97.2479 54.7899 95.5381C55.864 94.6184 57.1418 94.0908 58.2954 94.0908C58.81 94.0908 59.5166 94.1996 59.9603 94.7176C60.8031 95.7017 60.3503 97.99 58.3533 99.6998Z" fill="#FCF9DE"/>
<path d="M59.3101 94.3562C59.7331 95.4823 59.1621 97.3939 57.4343 98.8731C56.3602 99.7928 55.0824 100.32 53.929 100.32C53.929 100.32 53.9291 100.32 53.9288 100.32C53.4142 100.32 52.7074 100.212 52.2639 99.6936C51.4211 98.7093 51.8739 96.4212 53.8709 94.7114C54.0181 94.5852 54.1695 94.4673 54.3235 94.3565H50.8361C49.125 96.6946 48.8578 99.53 50.3796 101.307C52.2548 103.498 56.1356 103.251 59.0478 100.758C61.1702 98.9406 62.1909 96.4316 61.8635 94.3565H59.3101V94.3562Z" fill="#99AF17"/>
<path d="M61.8448 93.1042C59.9699 90.914 56.0889 91.1601 53.1766 93.6536C50.2644 96.147 49.4234 99.9439 51.2986 102.134C53.1738 104.324 57.0545 104.078 59.9668 101.584C62.879 99.0909 63.7198 95.2941 61.8448 93.1042ZM58.3533 99.6998C57.2791 100.62 56.0014 101.147 54.848 101.147C54.848 101.147 54.848 101.147 54.8478 101.147C54.3331 101.147 53.6263 101.038 53.1829 100.52C52.34 99.536 52.7929 97.2479 54.7899 95.5381C55.864 94.6184 57.1418 94.0908 58.2954 94.0908C58.81 94.0908 59.5166 94.1996 59.9603 94.7176C60.8031 95.7017 60.3503 97.99 58.3533 99.6998Z" fill="#EACF32"/>
<path d="M53.1761 93.6533C50.2639 96.1467 49.4229 99.9436 51.2981 102.134C52.8386 103.933 55.7327 104.086 58.3318 102.702L59.1378 98.9089C58.9093 99.181 58.6486 99.4467 58.3531 99.6996C57.2789 100.619 56.0012 101.147 54.8478 101.147C54.8478 101.147 54.8478 101.147 54.8475 101.147C54.3329 101.147 53.6261 101.038 53.1826 100.52C52.3398 99.5357 52.7926 97.2477 54.7896 95.5379C55.8638 94.6182 57.1415 94.0906 58.2952 94.0906C58.8098 94.0906 59.5163 94.1993 59.9601 94.7174C59.9788 94.7394 59.9962 94.7628 60.0138 94.7859L60.5804 92.1193C58.5309 91.0887 55.5359 91.6332 53.1761 93.6533Z" fill="#CCC033"/>
<path d="M50.8102 108.002H41.1195C39.533 108.002 38.1629 106.892 37.8331 105.34L34.4047 89.2052C34.2777 88.608 34.7331 88.0458 35.3436 88.0458H56.5862C57.1966 88.0458 57.6521 88.6082 57.5251 89.2052L54.0967 105.34C53.7669 106.892 52.3967 108.002 50.8102 108.002Z" fill="#CCC033"/>
<path d="M41.5077 105.34L38.0792 89.2052C37.9523 88.608 38.4077 88.0458 39.0181 88.0458H35.3436C34.7331 88.0458 34.2777 88.6082 34.4047 89.2052L37.8331 105.34C38.1629 106.892 39.533 108.002 41.1195 108.002H44.7941C43.2076 108.002 41.8374 106.892 41.5077 105.34Z" fill="#99AF17"/>
<path d="M52.5533 96.3594C52.5086 96.3594 52.4632 96.3547 52.4177 96.3451C52.0669 96.2706 51.8431 95.926 51.9176 95.5752L52.2035 94.2305C52.278 93.8797 52.6221 93.6567 52.9734 93.7304C53.3242 93.8049 53.548 94.1495 53.4735 94.5003L53.1876 95.845C53.1227 96.1501 52.8532 96.3594 52.5533 96.3594Z" fill="#EACF32"/>
<path d="M50.9436 104.853C50.899 104.853 50.8535 104.849 50.8081 104.839C50.4573 104.765 50.2338 104.42 50.3083 104.069L51.6221 97.889C51.6966 97.5382 52.0412 97.3149 52.392 97.3892C52.7428 97.4637 52.9663 97.8085 52.8918 98.159L51.578 104.339C51.5131 104.644 51.2435 104.853 50.9436 104.853Z" fill="#EACF32"/>
</svg>
